{"glyphs":{"0":{"ha":961,"x_min":-14,"x_max":870,"o":"m 320 427 l 313 513 l 337 585 l 304 657 l 385 631 l 468 643 l 544 661 l 533 572 l 525 503 l 528 418 l 467 441 l 390 410 l 317 408 l 320 427 m 534 106 l 525 220 l 624 214 l 657 271 l 642 321 l 625 391 l 637 465 l 629 519 l 661 589 l 623 652 l 626 718 l 625 803 l 621 872 l 543 845 l 538 956 l 457 947 l 401 978 l 334 966 l 334 850 l 227 840 l 223 781 l 201 745 l 208 673 l 208 593 l 203 553 l 232 475 l 206 402 l 195 355 l 229 275 l 221 197 l 319 222 l 320 107 l 388 110 l 477 115 l 537 115 l 534 106 m 214 0 l 207 115 l 103 111 l 97 203 l 13 214 l 7 285 l -5 332 l 7 387 l -14 469 l 12 522 l 7 613 l 3 672 l -14 746 l 18 794 l 15 871 l 125 863 l 111 975 l 210 957 l 234 1059 l 272 1087 l 340 1063 l 387 1077 l 438 1050 l 506 1083 l 574 1050 l 654 1055 l 637 942 l 742 954 l 743 862 l 870 850 l 869 803 l 850 734 l 835 663 l 836 591 l 841 534 l 849 465 l 850 410 l 845 358 l 836 263 l 869 224 l 740 195 l 758 113 l 637 108 l 640 -17 l 590 9 l 517 5 l 454 18 l 408 14 l 338 14 l 266 -13 l 229 -5 l 214 0 z "},"1":{"ha":961,"x_min":98,"x_max":764,"o":"m 106 0 l 98 119 l 180 116 l 265 95 l 326 95 l 328 168 l 313 245 l 302 286 l 313 380 l 334 425 l 319 488 l 336 561 l 334 600 l 315 684 l 338 741 l 239 743 l 173 762 l 125 756 l 98 869 l 208 849 l 203 976 l 308 975 l 314 1088 l 387 1049 l 442 1075 l 516 1050 l 541 1004 l 530 938 l 543 880 l 552 798 l 534 728 l 516 663 l 522 635 l 540 568 l 538 485 l 550 434 l 536 368 l 529 281 l 522 250 l 529 151 l 539 92 l 589 109 l 664 90 l 736 115 l 764 -17 l 696 -2 l 618 -12 l 568 8 l 478 -9 l 413 17 l 351 -17 l 311 -15 l 239 16 l 184 -7 l 104 -20 l 106 0 z "},"2":{"ha":961,"x_min":-12,"x_max":764,"o":"m 0 0 l 7 72 l 7 130 l 3 208 l 8 264 l 8 329 l 109 336 l 119 414 l 225 435 l 224 547 l 316 543 l 332 660 l 433 631 l 422 743 l 540 767 l 539 838 l 531 881 l 553 951 l 484 946 l 408 945 l 346 953 l 263 960 l 199 951 l 205 848 l 130 858 l 52 852 l -12 869 l -1 945 l 96 964 l 124 1078 l 165 1053 l 237 1072 l 300 1053 l 393 1069 l 427 1085 l 515 1065 l 558 1058 l 656 1072 l 632 958 l 731 941 l 736 889 l 764 806 l 739 737 l 644 751 l 625 622 l 549 627 l 530 532 l 420 548 l 408 419 l 319 447 l 337 338 l 200 307 l 201 240 l 207 173 l 195 102 l 287 106 l 329 102 l 411 102 l 473 98 l 514 123 l 517 197 l 610 203 l 659 195 l 730 218 l 735 162 l 736 85 l 756 -19 l 691 15 l 629 2 l 576 11 l 505 -12 l 419 -11 l 360 7 l 313 -19 l 240 -6 l 178 5 l 138 7 l 65 -9 l 9 12 l 0 0 z "},"3":{"ha":961,"x_min":-18,"x_max":764,"o":"m 106 0 l 121 123 l -5 117 l -18 229 l 66 195 l 138 202 l 195 219 l 195 101 l 286 118 l 349 118 l 387 92 l 488 117 l 550 113 l 528 167 l 548 248 l 522 277 l 516 353 l 532 426 l 546 479 l 547 536 l 453 539 l 390 514 l 348 534 l 267 530 l 234 549 l 214 658 l 275 661 l 331 654 l 394 636 l 480 637 l 526 649 l 515 707 l 515 753 l 517 846 l 534 878 l 530 981 l 458 959 l 391 952 l 347 963 l 298 975 l 220 951 l 199 855 l 156 867 l 83 845 l -8 859 l 2 960 l 95 979 l 109 1073 l 191 1053 l 246 1059 l 300 1078 l 382 1088 l 441 1088 l 498 1053 l 589 1070 l 656 1057 l 625 960 l 753 967 l 744 902 l 728 838 l 746 759 l 740 720 l 741 627 l 635 631 l 633 519 l 745 547 l 762 491 l 754 430 l 764 357 l 763 304 l 728 236 l 745 178 l 728 91 l 646 108 l 628 14 l 570 -13 l 503 -11 l 427 -20 l 366 -9 l 288 -17 l 257 7 l 167 -8 l 105 -7 l 106 0 z "},"4":{"ha":961,"x_min":-14,"x_max":749,"o":"m 427 534 l 418 585 l 437 690 l 441 766 l 321 750 l 311 633 l 207 643 l 202 534 l 301 526 l 353 548 l 444 526 l 427 534 m 320 0 l 332 102 l 424 111 l 414 160 l 444 217 l 438 304 l 422 378 l 428 443 l 366 435 l 309 408 l 252 414 l 166 427 l 113 414 l 46 413 l -14 416 l 3 487 l -9 557 l -7 651 l 119 654 l 104 753 l 220 753 l 220 871 l 319 835 l 318 981 l 407 958 l 408 1081 l 497 1086 l 568 1065 l 638 1055 l 642 985 l 631 925 l 640 869 l 658 800 l 640 750 l 635 649 l 644 611 l 654 536 l 746 530 l 749 432 l 626 423 l 637 345 l 648 289 l 649 243 l 627 190 l 643 117 l 734 94 l 740 -3 l 692 5 l 629 5 l 565 14 l 516 13 l 430 13 l 375 19 l 308 3 l 320 0 z "},"5":{"ha":961,"x_min":-18,"x_max":767,"o":"m 106 0 l 88 123 l 6 119 l -18 214 l 71 210 l 160 220 l 229 221 l 222 123 l 271 105 l 333 94 l 415 91 l 464 89 l 523 116 l 539 149 l 519 234 l 532 303 l 530 367 l 526 414 l 519 476 l 541 542 l 450 536 l 403 530 l 329 541 l 260 540 l 212 515 l 146 530 l 62 519 l -1 518 l 16 616 l -18 649 l -16 742 l 7 785 l -15 855 l -4 939 l 12 1013 l -14 1062 l 62 1050 l 133 1050 l 186 1079 l 230 1082 l 327 1056 l 368 1062 l 426 1073 l 501 1088 l 555 1081 l 606 1072 l 705 1054 l 758 1071 l 767 953 l 667 962 l 625 944 l 558 947 l 472 960 l 406 980 l 328 960 l 290 949 l 212 958 l 200 904 l 196 813 l 214 781 l 233 688 l 218 653 l 277 653 l 348 661 l 380 632 l 447 628 l 510 653 l 561 649 l 647 642 l 623 515 l 760 549 l 753 472 l 765 407 l 739 348 l 749 290 l 746 233 l 754 169 l 734 96 l 650 91 l 627 18 l 557 -7 l 488 15 l 446 19 l 382 -2 l 296 -20 l 239 1 l 184 12 l 97 -11 l 106 0 z "},"6":{"ha":961,"x_min":-20,"x_max":767,"o":"m 534 106 l 522 179 l 534 214 l 533 308 l 548 345 l 549 393 l 520 488 l 530 522 l 467 515 l 393 544 l 353 524 l 260 523 l 231 546 l 202 454 l 224 395 l 226 357 l 208 308 l 224 232 l 211 174 l 221 119 l 273 120 l 342 117 l 416 87 l 469 119 l 536 113 l 534 106 m 106 0 l 91 92 l -3 104 l 16 184 l 20 213 l -7 302 l -18 366 l 15 422 l -20 462 l 2 558 l -3 597 l 18 655 l -16 743 l -16 810 l 14 855 l 125 851 l 117 949 l 197 945 l 222 1084 l 278 1085 l 345 1065 l 420 1063 l 454 1049 l 551 1061 l 534 972 l 446 977 l 397 972 l 307 979 l 309 835 l 222 872 l 202 783 l 227 695 l 211 658 l 292 640 l 326 644 l 387 659 l 461 661 l 522 643 l 584 652 l 622 632 l 642 531 l 746 516 l 767 459 l 737 412 l 742 368 l 760 283 l 741 231 l 731 168 l 743 125 l 657 96 l 633 9 l 576 -11 l 496 12 l 452 14 l 389 -7 l 295 1 l 256 -18 l 162 17 l 95 20 l 106 0 z "},"7":{"ha":961,"x_min":-18,"x_max":764,"o":"m 214 0 l 197 79 l 207 103 l 216 199 l 214 250 l 228 292 l 221 361 l 230 429 l 340 412 l 335 543 l 448 543 l 422 623 l 519 633 l 534 715 l 548 778 l 533 819 l 546 883 l 541 944 l 460 970 l 407 960 l 353 950 l 264 943 l 218 949 l 205 861 l 131 869 l 77 836 l 6 861 l 9 912 l -7 1010 l -18 1064 l 76 1061 l 140 1076 l 167 1088 l 267 1060 l 315 1059 l 389 1052 l 456 1050 l 486 1084 l 571 1059 l 641 1049 l 690 1065 l 743 1063 l 736 1000 l 756 937 l 734 883 l 728 823 l 750 772 l 752 703 l 764 631 l 661 648 l 659 549 l 526 551 l 546 421 l 410 410 l 408 361 l 420 296 l 435 257 l 433 191 l 410 115 l 440 66 l 415 -19 l 357 7 l 269 7 l 208 13 l 214 0 z "},"8":{"ha":961,"x_min":-20,"x_max":767,"o":"m 534 106 l 528 149 l 546 248 l 528 294 l 515 345 l 538 421 l 552 475 l 537 523 l 467 520 l 411 528 l 361 533 l 288 522 l 194 542 l 223 488 l 226 406 l 222 362 l 208 308 l 233 245 l 214 170 l 194 105 l 288 122 l 345 94 l 389 90 l 484 104 l 543 110 l 534 106 m 534 641 l 531 715 l 514 750 l 522 832 l 546 878 l 547 972 l 452 961 l 387 967 l 338 956 l 262 975 l 201 960 l 213 892 l 226 818 l 222 757 l 222 724 l 217 640 l 268 646 l 359 629 l 399 628 l 474 639 l 523 635 l 534 641 m 106 0 l 101 118 l 2 119 l 15 175 l 10 240 l -19 276 l -20 347 l 3 398 l 18 491 l 9 536 l 91 522 l 117 653 l 3 642 l 6 696 l 6 767 l -5 829 l 14 900 l 19 960 l 111 964 l 102 1060 l 163 1086 l 245 1074 l 293 1078 l 369 1069 l 441 1059 l 496 1068 l 578 1065 l 649 1077 l 653 967 l 767 977 l 751 879 l 736 833 l 760 779 l 730 716 l 749 651 l 623 651 l 632 548 l 754 530 l 760 473 l 738 395 l 745 342 l 745 298 l 747 247 l 766 165 l 749 109 l 623 104 l 659 13 l 563 15 l 515 -18 l 456 -18 l 382 -20 l 309 -11 l 248 4 l 181 -16 l 96 -7 l 106 0 z "},"9":{"ha":961,"x_min":-9,"x_max":766,"o":"m 534 641 l 549 701 l 515 758 l 535 820 l 522 905 l 528 945 l 487 977 l 418 968 l 340 950 l 284 958 l 221 977 l 210 879 l 212 838 l 228 781 l 232 704 l 234 648 l 285 644 l 330 656 l 397 642 l 463 637 l 517 635 l 534 641 m 106 0 l 89 117 l 179 111 l 250 121 l 314 105 l 346 90 l 427 117 l 422 231 l 525 216 l 524 276 l 553 359 l 541 406 l 532 457 l 529 549 l 478 546 l 414 524 l 355 519 l 289 528 l 211 539 l 180 533 l 88 526 l 101 647 l -7 635 l -5 695 l 3 764 l -7 818 l -9 898 l 4 956 l 123 975 l 126 1073 l 157 1081 l 243 1088 l 296 1088 l 366 1078 l 450 1055 l 520 1072 l 587 1059 l 646 1082 l 659 960 l 756 981 l 761 892 l 762 840 l 762 754 l 743 713 l 743 661 l 758 580 l 733 524 l 755 454 l 745 400 l 749 345 l 729 277 l 766 218 l 623 210 l 635 95 l 541 90 l 534 1 l 476 -5 l 431 3 l 342 -9 l 292 1 l 221 -19 l 178 20 l 123 12 l 106 0 z "},"\u0000":{"ha":0,"x_min":0,"x_max":0,"o":""},"\r":{"ha":347,"x_min":0,"x_max":0,"o":""}," ":{"ha":374,"x_min":0,"x_max":0,"o":""},"!":{"ha":961,"x_min":200,"x_max":652,"o":"m 320 0 l 326 55 l 334 140 l 330 233 l 403 195 l 468 195 l 543 231 l 532 157 l 541 89 l 517 8 l 460 3 l 407 10 l 333 -12 l 320 0 m 320 320 l 319 364 l 304 448 l 304 529 l 309 589 l 312 650 l 205 656 l 210 703 l 210 789 l 226 821 l 220 907 l 200 956 l 320 941 l 335 1084 l 401 1062 l 470 1053 l 546 1063 l 553 945 l 652 950 l 635 880 l 622 836 l 634 786 l 652 722 l 650 638 l 553 646 l 519 566 l 545 498 l 547 459 l 526 370 l 549 329 l 478 333 l 400 306 l 308 305 l 320 320 z "},"\"":{"ha":961,"x_min":102,"x_max":765,"o":"m 214 747 l 227 848 l 119 854 l 121 902 l 104 971 l 119 1043 l 102 1114 l 120 1192 l 179 1183 l 257 1173 l 309 1160 l 311 1128 l 330 1040 l 317 993 l 314 920 l 327 878 l 325 817 l 338 733 l 205 728 l 214 747 m 534 747 l 529 793 l 526 872 l 528 913 l 553 985 l 552 1058 l 523 1133 l 517 1174 l 621 1161 l 668 1162 l 757 1193 l 743 1121 l 743 1037 l 735 975 l 765 906 l 752 843 l 623 872 l 653 766 l 541 740 l 534 747 z "},"#":{"ha":961,"x_min":0,"x_max":766,"o":"m 427 320 l 409 404 l 414 432 l 419 528 l 433 593 l 426 659 l 321 623 l 332 591 l 320 495 l 307 431 l 301 404 l 304 306 l 419 326 l 427 320 m 106 0 l 118 62 l 112 156 l 126 195 l 16 199 l 3 312 l 102 304 l 92 391 l 106 431 l 106 524 l 111 562 l 110 645 l 0 627 l 7 734 l 89 762 l 91 799 l 92 870 l 121 953 l 176 966 l 262 962 l 323 962 l 304 886 l 334 800 l 329 754 l 445 759 l 420 838 l 423 909 l 433 979 l 500 968 l 564 943 l 625 974 l 623 886 l 628 804 l 655 742 l 753 756 l 738 627 l 648 661 l 636 588 l 641 493 l 637 435 l 633 380 l 650 327 l 766 327 l 763 231 l 648 196 l 629 154 l 641 56 l 652 -2 l 568 10 l 486 9 l 414 14 l 418 66 l 421 155 l 433 197 l 304 214 l 321 129 l 308 56 l 338 -11 l 232 9 l 171 -7 l 94 4 l 106 0 z "},"$":{"ha":961,"x_min":-17,"x_max":766,"o":"m 320 -214 l 331 -138 l 317 -72 l 303 18 l 236 1 l 195 12 l 117 -12 l 120 96 l -17 98 l 7 165 l -11 246 l -2 310 l 111 300 l 119 199 l 211 233 l 233 108 l 289 106 l 323 123 l 416 126 l 486 102 l 552 126 l 539 154 l 550 224 l 553 291 l 540 354 l 545 393 l 522 456 l 538 543 l 479 519 l 414 515 l 345 544 l 303 541 l 220 549 l 174 525 l 98 520 l 94 654 l 5 648 l -5 705 l 16 763 l 12 838 l -17 907 l 14 972 l 90 949 l 104 1068 l 194 1064 l 233 1078 l 303 1076 l 301 1136 l 336 1222 l 327 1278 l 390 1299 l 477 1263 l 526 1298 l 545 1219 l 544 1140 l 527 1071 l 648 1080 l 628 969 l 760 977 l 744 878 l 730 823 l 762 734 l 642 766 l 646 841 l 517 839 l 544 947 l 473 965 l 424 959 l 338 980 l 298 975 l 209 968 l 223 880 l 197 836 l 224 759 l 194 711 l 195 623 l 263 642 l 342 640 l 393 661 l 471 659 l 523 650 l 563 644 l 648 658 l 638 519 l 752 517 l 755 455 l 743 393 l 733 351 l 732 305 l 766 209 l 734 167 l 761 125 l 647 118 l 661 16 l 526 10 l 543 -72 l 531 -149 l 528 -200 l 467 -234 l 387 -199 l 336 -221 l 320 -214 z "},"%":{"ha":961,"x_min":-20,"x_max":766,"o":"m 534 0 l 517 80 l 521 130 l 545 229 l 585 210 l 688 224 l 746 220 l 743 142 l 728 89 l 761 14 l 676 1 l 607 -16 l 550 5 l 534 0 m 0 641 l 13 703 l -20 780 l 16 873 l 71 861 l 161 847 l 232 842 l 227 800 l 201 724 l 224 638 l 161 661 l 62 655 l -14 637 l 0 641 m 0 0 l 8 89 l -19 124 l 1 225 l 111 199 l 95 315 l 203 304 l 195 427 l 338 409 l 321 534 l 434 532 l 428 656 l 527 641 l 548 730 l 638 750 l 627 872 l 739 859 l 753 799 l 760 709 l 766 631 l 637 634 l 656 545 l 534 530 l 513 415 l 409 418 l 433 305 l 304 332 l 307 227 l 213 232 l 221 124 l 104 126 l 115 -9 l 14 9 l 0 0 z "},"&":{"ha":961,"x_min":-18,"x_max":736,"o":"m 427 747 l 414 823 l 425 880 l 411 972 l 317 964 l 323 884 l 332 803 l 338 743 l 444 730 l 427 747 m 106 0 l 111 92 l 10 106 l -18 162 l 18 228 l -7 284 l -6 338 l 3 393 l 3 454 l -1 518 l 102 530 l 98 634 l 199 626 l 223 767 l 119 743 l 90 802 l 123 872 l 98 967 l 233 947 l 216 1081 l 267 1060 l 338 1086 l 397 1072 l 469 1050 l 532 1069 l 518 967 l 655 951 l 656 893 l 629 806 l 629 762 l 517 758 l 541 661 l 436 652 l 412 553 l 547 547 l 514 625 l 595 644 l 659 635 l 735 658 l 736 548 l 654 523 l 633 475 l 652 414 l 630 362 l 647 304 l 639 216 l 659 158 l 659 103 l 736 112 l 728 1 l 665 20 l 618 16 l 519 -8 l 515 104 l 437 102 l 430 173 l 416 216 l 436 292 l 447 363 l 440 444 l 330 410 l 315 532 l 214 524 l 203 465 l 221 432 l 212 367 l 226 290 l 212 226 l 204 165 l 214 95 l 281 109 l 349 87 l 429 115 l 431 8 l 383 4 l 281 1 l 216 12 l 171 -10 l 109 3 l 106 0 z "},"'":{"ha":961,"x_min":90,"x_max":444,"o":"m 106 747 l 121 849 l 216 839 l 209 934 l 194 988 l 208 1053 l 208 1125 l 203 1189 l 285 1173 l 349 1181 l 444 1194 l 434 1108 l 413 1061 l 425 1000 l 420 930 l 441 845 l 334 848 l 307 762 l 256 732 l 172 741 l 90 730 l 106 747 z "},"(":{"ha":961,"x_min":197,"x_max":656,"o":"m 427 0 l 409 92 l 315 98 l 319 221 l 234 212 l 214 283 l 223 340 l 203 409 l 216 476 l 212 553 l 226 610 l 231 661 l 223 715 l 218 799 l 197 840 l 318 849 l 340 975 l 408 945 l 430 1065 l 482 1055 l 581 1064 l 650 1077 l 650 968 l 520 950 l 517 865 l 435 846 l 439 786 l 441 740 l 425 651 l 430 600 l 412 517 l 416 456 l 429 406 l 441 342 l 427 291 l 424 232 l 529 213 l 552 100 l 656 127 l 651 9 l 569 -5 l 506 -18 l 409 -15 l 427 0 z "},")":{"ha":961,"x_min":199,"x_max":661,"o":"m 214 0 l 201 113 l 300 116 l 320 220 l 423 227 l 439 262 l 419 359 l 411 419 l 446 489 l 419 547 l 418 591 l 414 666 l 425 739 l 444 789 l 413 839 l 302 842 l 318 959 l 199 951 l 201 1073 l 301 1085 l 370 1055 l 441 1080 l 431 958 l 531 954 l 517 844 l 627 864 l 643 810 l 634 715 l 661 654 l 623 583 l 633 553 l 640 458 l 633 412 l 635 329 l 642 260 l 633 232 l 538 226 l 534 119 l 431 113 l 427 14 l 345 16 l 303 12 l 202 14 l 214 0 z "},"*":{"ha":961,"x_min":-19,"x_max":863,"o":"m 106 214 l 108 326 l 205 326 l 198 425 l 123 420 l 73 420 l -16 408 l -19 517 l 66 544 l 133 552 l 201 526 l 214 623 l 93 652 l 125 765 l 159 734 l 234 736 l 338 759 l 333 656 l 393 656 l 466 634 l 516 622 l 515 741 l 610 754 l 692 762 l 761 755 l 741 654 l 634 629 l 625 536 l 692 526 l 786 543 l 855 519 l 863 427 l 776 408 l 703 436 l 623 446 l 639 336 l 728 311 l 752 227 l 656 220 l 595 212 l 547 207 l 520 305 l 446 336 l 374 317 l 325 307 l 301 197 l 262 228 l 165 199 l 109 203 l 106 214 z "},"+":{"ha":961,"x_min":111,"x_max":729,"o":"m 320 214 l 302 283 l 321 367 l 311 420 l 240 437 l 161 443 l 111 447 l 121 515 l 159 536 l 243 515 l 329 541 l 330 625 l 309 683 l 306 748 l 393 734 l 470 764 l 545 746 l 526 664 l 550 585 l 519 517 l 623 531 l 665 529 l 729 532 l 729 444 l 694 431 l 611 425 l 548 437 l 549 366 l 549 288 l 543 199 l 458 232 l 401 220 l 334 201 l 320 214 z "},",":{"ha":961,"x_min":195,"x_max":551,"o":"m 214 -106 l 203 3 l 317 -3 l 325 71 l 339 140 l 336 202 l 311 273 l 328 321 l 401 306 l 471 332 l 528 312 l 551 247 l 528 173 l 538 138 l 532 81 l 534 -1 l 421 -9 l 409 -89 l 361 -105 l 300 -94 l 195 -100 l 214 -106 z "},"-":{"ha":961,"x_min":0,"x_max":739,"o":"m 0 427 l 16 520 l 61 553 l 113 534 l 186 524 l 240 528 l 307 526 l 382 530 l 429 536 l 504 547 l 545 541 l 629 535 l 694 553 l 727 525 l 739 441 l 686 421 l 629 418 l 547 422 l 485 418 l 435 433 l 394 425 l 296 442 l 244 436 l 197 409 l 109 413 l 73 427 l 19 439 l 0 427 z "},".":{"ha":961,"x_min":302,"x_max":552,"o":"m 320 0 l 315 58 l 308 123 l 316 205 l 391 225 l 475 206 l 516 208 l 536 157 l 518 62 l 552 14 l 477 2 l 374 15 l 302 -4 l 320 0 z "},"/":{"ha":961,"x_min":0,"x_max":758,"o":"m 0 0 l 17 64 l 15 128 l 16 213 l 125 222 l 100 337 l 222 319 l 215 417 l 323 431 l 319 549 l 421 551 l 411 648 l 528 635 l 540 737 l 637 764 l 659 853 l 743 838 l 758 782 l 750 705 l 728 631 l 631 652 l 654 532 l 515 547 l 545 412 l 415 427 l 436 315 l 313 319 l 330 218 l 204 229 l 197 88 l 121 94 l 109 -1 l 8 -3 l 0 0 z "},":":{"ha":961,"x_min":302,"x_max":547,"o":"m 320 106 l 334 165 l 332 264 l 315 332 l 403 307 l 446 313 l 541 323 l 520 243 l 525 173 l 540 113 l 456 87 l 376 113 l 325 103 l 320 106 m 320 641 l 309 709 l 302 769 l 313 859 l 408 837 l 475 845 l 547 837 l 530 791 l 526 722 l 545 658 l 467 627 l 375 646 l 307 647 l 320 641 z "},";":{"ha":961,"x_min":201,"x_max":544,"o":"m 214 0 l 227 109 l 329 109 l 338 175 l 319 253 l 317 324 l 377 317 l 447 302 l 526 326 l 522 243 l 519 182 l 531 120 l 426 90 l 423 -18 l 371 -9 l 281 -4 l 201 -7 l 214 0 m 320 641 l 319 726 l 312 797 l 315 845 l 411 843 l 481 871 l 514 864 l 514 768 l 544 693 l 529 651 l 456 648 l 394 646 l 328 624 l 320 641 z "},"<":{"ha":961,"x_min":101,"x_max":766,"o":"m 534 0 l 519 117 l 425 113 l 432 229 l 330 195 l 334 319 l 223 316 l 222 429 l 121 439 l 101 535 l 202 542 l 201 641 l 315 659 l 317 734 l 410 734 l 414 848 l 551 869 l 553 959 l 599 969 l 680 950 l 761 963 l 766 871 l 648 851 l 639 745 l 524 728 l 553 627 l 419 643 l 413 545 l 338 522 l 309 438 l 410 433 l 444 308 l 538 327 l 537 233 l 648 213 l 637 106 l 764 118 l 751 19 l 689 11 l 600 -13 l 551 9 l 534 0 z "},"=":{"ha":961,"x_min":106,"x_max":766,"o":"m 106 320 l 123 440 l 184 413 l 239 425 l 307 442 l 365 408 l 408 415 l 501 418 l 566 445 l 619 430 l 683 436 l 746 431 l 766 334 l 678 334 l 636 338 l 560 331 l 476 336 l 410 338 l 360 302 l 304 336 l 230 301 l 183 334 l 113 328 l 106 320 m 106 641 l 123 750 l 189 736 l 216 763 l 318 759 l 360 744 l 428 764 l 496 734 l 565 731 l 619 735 l 691 755 l 733 745 l 758 640 l 683 640 l 612 623 l 546 646 l 502 648 l 442 621 l 349 633 l 288 621 l 224 650 l 162 650 l 115 637 l 106 641 z "},">":{"ha":961,"x_min":90,"x_max":761,"o":"m 106 0 l 106 126 l 195 89 l 222 205 l 338 211 l 325 320 l 426 311 l 440 422 l 527 422 l 553 515 l 414 522 l 426 637 l 302 661 l 338 742 l 214 734 l 203 842 l 90 871 l 124 970 l 186 954 l 234 977 l 328 963 l 328 867 l 418 872 l 425 757 l 547 753 l 544 632 l 650 627 l 650 534 l 757 529 l 761 442 l 621 429 l 652 316 l 547 304 l 538 204 l 429 193 l 448 111 l 315 114 l 317 -1 l 267 6 l 180 4 l 113 6 l 106 0 z "},"?":{"ha":961,"x_min":0,"x_max":759,"o":"m 320 0 l 307 86 l 310 160 l 300 232 l 406 220 l 455 224 l 553 224 l 544 156 l 536 84 l 516 14 l 460 16 l 404 -18 l 337 4 l 320 0 m 320 320 l 326 404 l 309 438 l 324 528 l 311 569 l 326 652 l 435 649 l 446 737 l 538 733 l 536 829 l 542 890 l 522 976 l 469 945 l 406 945 l 335 957 l 270 971 l 224 951 l 229 876 l 230 806 l 204 745 l 148 756 l 62 742 l 19 735 l 0 833 l 9 886 l 3 978 l 106 946 l 107 1081 l 168 1054 l 221 1054 l 294 1075 l 377 1050 l 456 1076 l 509 1063 l 588 1074 l 643 1048 l 630 947 l 729 957 l 730 905 l 759 804 l 745 729 l 625 758 l 650 643 l 526 656 l 530 567 l 531 509 l 551 446 l 553 376 l 547 308 l 473 310 l 408 315 l 331 311 l 320 320 z "},"@":{"ha":961,"x_min":-18,"x_max":766,"o":"m 106 0 l 91 126 l 7 88 l 18 180 l -7 224 l 1 311 l 8 342 l 11 415 l 1 467 l -3 559 l -6 617 l 6 652 l -18 737 l 4 779 l 0 873 l 125 869 l 104 972 l 186 974 l 247 978 l 313 968 l 389 965 l 433 943 l 515 959 l 555 941 l 634 968 l 651 866 l 734 858 l 741 800 l 758 713 l 760 640 l 745 606 l 766 509 l 745 473 l 744 381 l 739 340 l 632 340 l 640 195 l 584 214 l 498 208 l 466 203 l 374 208 l 309 220 l 303 273 l 303 322 l 310 386 l 323 471 l 304 507 l 334 567 l 336 631 l 393 640 l 469 646 l 549 650 l 530 717 l 551 787 l 514 873 l 489 863 l 385 835 l 332 853 l 258 855 l 233 860 l 233 787 l 214 714 l 224 648 l 218 592 l 201 559 l 208 469 l 216 425 l 216 360 l 206 281 l 195 241 l 230 182 l 220 114 l 281 102 l 345 100 l 405 98 l 446 95 l 528 108 l 593 87 l 638 91 l 633 -9 l 554 -15 l 509 10 l 446 -7 l 375 -20 l 290 3 l 236 5 l 165 16 l 108 -18 l 106 0 z "},"A":{"ha":961,"x_min":-16,"x_max":767,"o":"m 534 534 l 537 591 l 517 679 l 542 753 l 443 753 l 426 854 l 307 863 l 300 753 l 231 736 l 207 696 l 204 602 l 205 520 l 295 552 l 355 533 l 426 551 l 466 532 l 519 529 l 534 534 m 0 0 l -7 75 l -7 126 l -9 204 l -10 237 l 1 328 l 14 376 l -16 421 l 5 495 l -3 560 l -7 634 l 9 675 l 20 732 l 88 746 l 100 859 l 203 846 l 197 977 l 332 975 l 338 1082 l 429 1082 l 427 980 l 534 953 l 536 836 l 625 857 l 638 764 l 758 750 l 766 682 l 766 643 l 766 573 l 745 481 l 745 446 l 752 376 l 728 309 l 734 252 l 767 177 l 740 127 l 765 64 l 737 -14 l 682 12 l 592 -11 l 536 -6 l 523 81 l 513 111 l 541 172 l 517 227 l 514 313 l 550 368 l 517 439 l 473 429 l 423 419 l 323 431 l 269 430 l 227 420 l 231 379 l 230 311 l 206 262 l 200 168 l 229 123 l 224 45 l 210 -12 l 153 0 l 53 7 l 12 -5 l 0 0 z "},"B":{"ha":961,"x_min":-14,"x_max":767,"o":"m 534 106 l 514 187 l 533 227 l 544 277 l 521 370 l 548 425 l 534 460 l 551 538 l 472 536 l 381 549 l 319 525 l 302 482 l 306 400 l 321 352 l 309 287 l 306 218 l 329 180 l 321 106 l 388 125 l 470 100 l 516 110 l 534 106 m 534 641 l 523 713 l 526 783 l 553 839 l 513 902 l 534 965 l 470 959 l 391 949 l 321 975 l 304 888 l 337 845 l 304 768 l 334 706 l 323 625 l 378 643 l 443 649 l 547 652 l 534 641 m 0 0 l -4 123 l 113 108 l 91 149 l 92 214 l 103 272 l 90 370 l 89 406 l 119 468 l 87 551 l 95 585 l 92 655 l 123 713 l 118 797 l 107 836 l 99 886 l 95 943 l -14 966 l 18 1057 l 66 1081 l 112 1070 l 174 1076 l 277 1081 l 340 1070 l 385 1068 l 465 1061 l 515 1048 l 580 1055 l 624 1065 l 649 970 l 738 955 l 746 899 l 744 817 l 767 766 l 753 705 l 762 654 l 635 638 l 631 524 l 757 539 l 760 452 l 751 428 l 736 359 l 745 272 l 733 224 l 732 178 l 750 100 l 631 119 l 644 3 l 564 11 l 505 -8 l 438 5 l 400 16 l 338 1 l 264 18 l 199 9 l 119 16 l 67 1 l -11 13 l 0 0 z "},"C":{"ha":961,"x_min":-16,"x_max":762,"o":"m 214 0 l 205 125 l 120 124 l 100 224 l -3 201 l -3 296 l -16 353 l 14 387 l -14 473 l -12 536 l 9 608 l -4 671 l 14 722 l -12 771 l -2 846 l 108 850 l 121 968 l 222 979 l 229 1065 l 275 1083 l 319 1055 l 401 1069 l 466 1078 l 506 1048 l 578 1051 l 626 1079 l 654 980 l 760 945 l 762 894 l 757 804 l 755 732 l 622 758 l 659 867 l 522 871 l 548 959 l 483 971 l 378 957 l 332 979 l 316 870 l 217 836 l 230 810 l 216 728 l 225 646 l 225 612 l 225 553 l 224 465 l 218 398 l 202 362 l 195 261 l 210 210 l 321 214 l 328 93 l 373 109 l 481 101 l 532 107 l 550 216 l 659 231 l 625 331 l 753 323 l 746 243 l 742 172 l 758 111 l 625 111 l 650 5 l 580 14 l 536 6 l 439 18 l 415 -17 l 352 7 l 258 -1 l 209 14 l 214 0 z "},"D":{"ha":961,"x_min":-10,"x_max":762,"o":"m 427 106 l 430 201 l 545 228 l 531 296 l 537 352 l 534 391 l 520 489 l 522 530 l 528 608 l 543 656 l 531 736 l 529 791 l 544 837 l 438 859 l 435 946 l 309 970 l 302 883 l 321 846 l 319 766 l 307 709 l 307 669 l 306 610 l 321 532 l 330 454 l 336 401 l 338 332 l 330 307 l 321 229 l 313 150 l 324 125 l 411 119 l 427 106 m 0 0 l -2 93 l 108 94 l 97 186 l 118 240 l 88 297 l 94 370 l 90 409 l 110 487 l 121 529 l 102 602 l 112 661 l 93 734 l 86 791 l 115 821 l 104 905 l 114 980 l 14 960 l -10 1056 l 78 1052 l 127 1082 l 212 1072 l 275 1057 l 339 1079 l 389 1072 l 456 1087 l 551 1064 l 536 954 l 626 966 l 645 846 l 734 835 l 760 775 l 756 715 l 749 646 l 762 616 l 752 529 l 746 490 l 732 393 l 732 345 l 749 260 l 731 216 l 640 194 l 652 117 l 514 104 l 550 -5 l 451 -4 l 386 16 l 345 -12 l 258 7 l 208 20 l 125 -14 l 80 -15 l -7 -10 l 0 0 z "},"E":{"ha":961,"x_min":-7,"x_max":764,"o":"m 0 0 l 16 97 l 89 121 l 94 172 l 116 209 l 98 285 l 109 368 l 120 410 l 108 491 l 98 526 l 105 595 l 125 666 l 95 726 l 107 793 l 119 840 l 88 918 l 121 944 l 17 955 l -1 1084 l 58 1082 l 117 1073 l 181 1070 l 234 1052 l 308 1086 l 386 1066 l 417 1079 l 486 1070 l 559 1080 l 609 1061 l 673 1051 l 764 1074 l 743 1006 l 756 932 l 729 877 l 749 804 l 749 744 l 659 745 l 639 864 l 540 844 l 539 971 l 456 959 l 378 953 l 328 968 l 338 899 l 322 840 l 302 774 l 317 685 l 321 650 l 425 630 l 413 751 l 545 758 l 537 667 l 528 637 l 526 565 l 537 485 l 551 439 l 427 443 l 434 553 l 322 532 l 324 467 l 323 412 l 313 336 l 315 309 l 327 231 l 311 167 l 307 87 l 410 113 l 481 120 l 519 88 l 544 195 l 646 201 l 631 306 l 746 305 l 743 260 l 757 183 l 734 137 l 736 80 l 741 18 l 672 15 l 623 -12 l 552 -16 l 479 16 l 420 -3 l 381 8 l 321 -18 l 253 12 l 197 4 l 109 -16 l 48 19 l -7 3 l 0 0 z "},"F":{"ha":961,"x_min":-18,"x_max":764,"o":"m 0 0 l -4 108 l 121 99 l 95 161 l 104 210 l 104 305 l 100 371 l 98 416 l 116 491 l 111 530 l 96 612 l 96 661 l 116 728 l 98 765 l 108 820 l 98 902 l 106 941 l -18 960 l -1 1087 l 47 1078 l 104 1088 l 170 1053 l 266 1065 l 328 1084 l 366 1073 l 416 1079 l 507 1086 l 564 1083 l 604 1067 l 696 1069 l 730 1069 l 744 1004 l 764 945 l 744 865 l 741 818 l 739 745 l 639 731 l 633 859 l 538 838 l 534 947 l 473 980 l 382 968 l 325 952 l 321 890 l 317 851 l 302 751 l 332 696 l 331 651 l 432 654 l 429 764 l 525 747 l 545 667 l 523 612 l 538 545 l 522 505 l 526 414 l 415 436 l 430 517 l 304 541 l 320 489 l 336 431 l 310 339 l 313 278 l 317 238 l 330 174 l 332 106 l 435 119 l 428 14 l 379 -11 l 315 16 l 231 5 l 172 -20 l 130 -10 l 54 20 l 14 18 l 0 0 z "},"G":{"ha":961,"x_min":-19,"x_max":766,"o":"m 641 0 l 654 123 l 530 86 l 545 159 l 548 227 l 524 288 l 528 376 l 542 441 l 460 409 l 377 417 l 328 410 l 330 524 l 375 536 l 423 521 l 500 538 l 557 521 l 644 521 l 688 518 l 766 517 l 739 459 l 728 412 l 762 332 l 754 276 l 734 211 l 728 144 l 732 55 l 744 10 l 660 -20 l 641 0 m 214 0 l 202 121 l 96 110 l 108 213 l 1 210 l -13 279 l 1 347 l 7 425 l 13 472 l -19 554 l 6 580 l 13 656 l -4 745 l -4 802 l 6 837 l 109 869 l 87 968 l 224 941 l 198 1070 l 264 1057 l 328 1063 l 407 1062 l 451 1087 l 522 1048 l 582 1086 l 647 1065 l 654 981 l 730 957 l 760 909 l 728 837 l 759 751 l 648 750 l 652 863 l 532 857 l 545 972 l 473 974 l 379 963 l 316 946 l 316 840 l 226 846 l 195 786 l 199 736 l 208 672 l 218 585 l 197 530 l 233 466 l 205 422 l 212 353 l 210 277 l 210 204 l 302 210 l 314 125 l 374 105 l 461 106 l 551 104 l 533 -1 l 454 9 l 399 9 l 321 -16 l 288 8 l 206 3 l 214 0 z "},"H":{"ha":961,"x_min":-16,"x_max":767,"o":"m 0 0 l 12 56 l 10 130 l 1 208 l -5 241 l -16 294 l 5 397 l -7 458 l -15 500 l 10 556 l 14 635 l 12 711 l 14 760 l 1 813 l -8 872 l 13 946 l 9 1020 l 3 1054 l 72 1072 l 146 1065 l 210 1055 l 222 1021 l 230 944 l 234 897 l 223 836 l 219 760 l 231 722 l 233 652 l 282 653 l 347 656 l 408 623 l 455 628 l 550 640 l 553 696 l 543 755 l 529 841 l 534 879 l 547 965 l 517 993 l 543 1050 l 610 1075 l 656 1051 l 755 1088 l 736 1006 l 730 950 l 728 877 l 762 810 l 730 751 l 755 694 l 732 636 l 739 566 l 753 522 l 767 450 l 753 387 l 734 328 l 764 235 l 760 175 l 739 125 l 744 67 l 762 3 l 663 12 l 609 0 l 517 5 l 515 83 l 524 120 l 542 220 l 551 261 l 519 342 l 531 392 l 547 475 l 551 540 l 488 546 l 407 524 l 338 518 l 267 524 l 199 550 l 198 463 l 229 408 l 231 347 l 212 284 l 233 188 l 231 124 l 197 65 l 222 19 l 150 10 l 77 -1 l 16 -12 l 0 0 z "},"I":{"ha":961,"x_min":198,"x_max":659,"o":"m 214 0 l 205 119 l 314 122 l 336 168 l 340 239 l 317 275 l 316 363 l 334 421 l 332 458 l 332 530 l 322 596 l 324 663 l 301 729 l 309 766 l 336 852 l 333 918 l 317 958 l 212 955 l 198 1081 l 284 1067 l 330 1058 l 379 1072 l 471 1054 l 499 1070 l 597 1059 l 644 1086 l 659 978 l 551 964 l 547 912 l 534 841 l 532 764 l 540 700 l 537 664 l 550 589 l 551 545 l 533 486 l 543 407 l 532 339 l 530 289 l 530 217 l 526 161 l 525 117 l 640 88 l 653 -5 l 572 -9 l 521 12 l 442 -12 l 416 -20 l 328 14 l 263 -5 l 201 -5 l 214 0 z "},"J":{"ha":961,"x_min":-19,"x_max":753,"o":"m 106 0 l 95 115 l -5 93 l -19 175 l 2 247 l 7 317 l 9 375 l 1 437 l 75 425 l 143 439 l 195 423 l 203 356 l 227 296 l 199 217 l 205 151 l 232 113 l 288 92 l 359 97 l 416 127 l 416 149 l 441 248 l 444 274 l 439 352 l 441 411 l 414 478 l 446 536 l 424 608 l 429 648 l 442 703 l 408 785 l 444 852 l 437 883 l 410 962 l 326 978 l 304 1077 l 385 1065 l 430 1079 l 513 1058 l 576 1083 l 642 1054 l 679 1087 l 749 1074 l 753 964 l 640 958 l 652 905 l 622 836 l 641 769 l 628 703 l 657 669 l 627 581 l 644 536 l 644 465 l 653 427 l 635 332 l 656 290 l 635 234 l 636 177 l 629 92 l 538 90 l 517 -16 l 468 19 l 397 -14 l 330 12 l 309 -16 l 231 -8 l 158 7 l 125 -15 l 106 0 z "},"K":{"ha":961,"x_min":0,"x_max":766,"o":"m 0 0 l 11 126 l 91 122 l 106 161 l 124 230 l 121 287 l 88 336 l 102 405 l 90 460 l 104 531 l 118 584 l 118 665 l 96 704 l 119 789 l 123 823 l 117 892 l 100 961 l 10 954 l 16 1061 l 58 1054 l 136 1069 l 178 1079 l 246 1060 l 307 1073 l 323 992 l 326 930 l 316 880 l 300 814 l 334 770 l 317 708 l 340 632 l 441 624 l 435 732 l 519 762 l 522 814 l 544 881 l 538 933 l 553 1001 l 523 1056 l 625 1071 l 671 1072 l 760 1067 l 762 993 l 741 958 l 731 890 l 751 828 l 734 760 l 635 731 l 647 655 l 536 652 l 525 587 l 553 482 l 552 421 l 625 444 l 640 330 l 766 337 l 749 259 l 732 196 l 734 132 l 762 53 l 735 13 l 659 -5 l 589 2 l 539 7 l 541 81 l 543 146 l 545 199 l 548 236 l 543 312 l 420 316 l 439 439 l 328 429 l 338 370 l 330 291 l 321 230 l 306 189 l 301 142 l 328 61 l 330 -9 l 257 -7 l 174 -19 l 120 16 l 66 14 l 12 -20 l 0 0 z "},"L":{"ha":961,"x_min":-14,"x_max":757,"o":"m 0 0 l 11 99 l 108 113 l 96 149 l 97 229 l 95 290 l 123 349 l 104 410 l 101 487 l 100 521 l 100 593 l 98 662 l 102 721 l 117 768 l 89 851 l 117 902 l 112 976 l 6 980 l 2 1055 l 47 1054 l 117 1088 l 194 1072 l 260 1072 l 314 1087 l 352 1079 l 431 1076 l 444 981 l 308 952 l 308 892 l 326 821 l 330 776 l 333 725 l 334 656 l 332 582 l 312 515 l 309 477 l 307 406 l 333 351 l 338 273 l 318 214 l 330 163 l 303 93 l 382 109 l 454 113 l 530 101 l 525 207 l 629 208 l 640 305 l 743 303 l 740 250 l 757 172 l 739 145 l 745 47 l 740 -4 l 681 -5 l 642 -12 l 573 16 l 511 6 l 433 -10 l 376 -14 l 330 16 l 230 -5 l 175 7 l 134 4 l 73 12 l -14 -11 l 0 0 z "},"M":{"ha":961,"x_min":-19,"x_max":871,"o":"m 0 0 l 12 66 l 3 122 l -6 204 l -19 260 l 5 308 l 18 374 l 6 444 l 7 509 l -6 580 l -3 613 l -5 675 l -18 768 l 7 803 l 14 890 l 20 925 l -17 985 l -1 1078 l 74 1061 l 153 1070 l 215 1063 l 233 966 l 311 976 l 302 836 l 380 836 l 443 865 l 531 864 l 544 957 l 632 979 l 640 1059 l 707 1055 l 787 1067 l 857 1058 l 867 998 l 835 956 l 871 862 l 839 823 l 870 755 l 840 694 l 848 640 l 870 549 l 854 484 l 855 424 l 859 371 l 852 298 l 855 237 l 841 182 l 863 135 l 870 81 l 870 7 l 802 -19 l 721 3 l 656 -7 l 652 84 l 625 125 l 635 199 l 654 256 l 655 317 l 654 376 l 625 456 l 661 503 l 653 577 l 635 644 l 550 649 l 518 534 l 473 549 l 400 549 l 320 528 l 330 640 l 199 644 l 227 570 l 212 519 l 234 442 l 202 375 l 229 309 l 229 245 l 203 201 l 205 140 l 208 52 l 208 -3 l 126 9 l 75 3 l 16 -10 l 0 0 z "},"N":{"ha":961,"x_min":-20,"x_max":767,"o":"m 0 0 l -12 78 l -6 132 l -2 191 l -2 269 l 5 329 l -14 363 l 8 446 l -7 510 l -17 547 l -10 618 l -20 675 l 14 750 l 10 800 l -1 892 l -1 931 l -6 1023 l -9 1078 l 57 1080 l 134 1080 l 203 1085 l 204 962 l 332 975 l 320 844 l 418 852 l 423 739 l 548 767 l 515 797 l 546 866 l 526 922 l 540 1000 l 540 1080 l 596 1074 l 681 1075 l 743 1056 l 734 1022 l 761 956 l 741 863 l 736 826 l 759 749 l 767 678 l 732 622 l 753 564 l 743 495 l 745 452 l 757 390 l 760 312 l 739 269 l 732 208 l 760 130 l 729 68 l 758 -17 l 661 -14 l 601 -14 l 535 1 l 546 44 l 516 119 l 553 189 l 516 248 l 524 311 l 527 382 l 528 408 l 445 425 l 435 516 l 323 531 l 334 646 l 231 631 l 218 564 l 203 500 l 212 445 l 217 378 l 227 301 l 208 262 l 203 208 l 204 140 l 224 78 l 204 -5 l 159 0 l 81 -14 l -16 -16 l 0 0 z "},"O":{"ha":961,"x_min":-17,"x_max":765,"o":"m 534 106 l 541 165 l 525 247 l 539 295 l 532 361 l 541 400 l 516 484 l 514 543 l 519 595 l 514 643 l 547 730 l 523 789 l 515 830 l 527 918 l 547 949 l 483 977 l 419 970 l 350 952 l 267 981 l 213 970 l 232 880 l 200 836 l 208 770 l 203 723 l 195 656 l 213 588 l 193 534 l 222 482 l 208 431 l 231 341 l 229 281 l 212 219 l 202 156 l 203 96 l 271 96 l 347 123 l 418 116 l 478 123 l 553 95 l 534 106 m 106 0 l 106 104 l 18 114 l -1 159 l 9 248 l -12 279 l 16 353 l 7 425 l 1 454 l 10 527 l 5 597 l -16 652 l 8 714 l 20 795 l 13 838 l 4 905 l -17 975 l 116 974 l 94 1059 l 191 1053 l 235 1069 l 288 1059 l 393 1064 l 442 1053 l 514 1082 l 577 1069 l 641 1062 l 638 974 l 730 957 l 738 920 l 757 832 l 744 777 l 741 725 l 758 676 l 736 586 l 735 547 l 765 477 l 739 401 l 764 349 l 756 286 l 760 223 l 751 178 l 737 121 l 648 104 l 646 -13 l 591 8 l 503 -14 l 422 -10 l 354 -1 l 290 1 l 239 -10 l 184 -9 l 121 12 l 106 0 z "},"P":{"ha":961,"x_min":-18,"x_max":764,"o":"m 534 641 l 547 720 l 553 764 l 543 813 l 549 889 l 524 951 l 456 943 l 391 947 l 305 977 l 309 878 l 326 830 l 323 775 l 334 725 l 302 635 l 389 640 l 464 634 l 522 654 l 534 641 m 0 0 l -6 104 l 109 104 l 100 150 l 105 233 l 118 298 l 96 349 l 122 418 l 122 490 l 95 530 l 101 585 l 105 648 l 91 707 l 119 793 l 112 852 l 109 906 l 106 966 l -11 962 l -18 1074 l 69 1073 l 132 1060 l 178 1057 l 258 1062 l 304 1074 l 392 1076 l 458 1074 l 511 1064 l 573 1076 l 648 1063 l 629 977 l 751 978 l 738 912 l 761 823 l 756 753 l 764 706 l 764 647 l 654 646 l 628 523 l 587 538 l 519 541 l 463 549 l 379 550 l 336 526 l 315 463 l 334 420 l 338 355 l 336 308 l 313 230 l 332 183 l 332 113 l 431 102 l 441 -18 l 360 19 l 302 7 l 243 13 l 179 -10 l 115 -10 l 61 14 l 4 -18 l 0 0 z "},"Q":{"ha":961,"x_min":-20,"x_max":766,"o":"m 320 106 l 327 172 l 321 254 l 318 323 l 413 332 l 435 195 l 535 230 l 522 294 l 535 326 l 526 404 l 544 477 l 522 539 l 528 574 l 530 659 l 532 722 l 526 774 l 538 834 l 545 886 l 519 974 l 490 973 l 425 942 l 347 970 l 287 975 l 217 951 l 205 898 l 213 856 l 203 796 l 222 715 l 194 656 l 197 591 l 202 534 l 224 465 l 232 425 l 217 367 l 218 269 l 217 238 l 197 180 l 220 122 l 324 102 l 320 106 m 427 -214 l 416 -155 l 425 -75 l 442 8 l 363 -14 l 311 4 l 221 -5 l 154 -1 l 88 10 l 109 89 l 8 98 l -13 169 l -3 214 l -20 276 l -15 331 l 3 416 l 14 469 l -12 546 l 1 614 l -13 651 l 13 713 l -14 790 l 0 857 l -5 881 l 19 978 l 94 943 l 125 1069 l 191 1050 l 245 1059 l 321 1061 l 389 1053 l 438 1086 l 517 1081 l 575 1069 l 627 1076 l 640 957 l 766 978 l 738 880 l 758 821 l 732 762 l 748 720 l 727 674 l 762 612 l 749 527 l 755 479 l 748 425 l 730 342 l 753 306 l 732 241 l 759 157 l 728 116 l 623 88 l 629 55 l 637 -35 l 652 -118 l 763 -102 l 757 -216 l 665 -203 l 621 -212 l 572 -230 l 502 -206 l 410 -204 l 427 -214 z "},"R":{"ha":961,"x_min":-19,"x_max":765,"o":"m 534 641 l 534 700 l 548 762 l 526 842 l 533 886 l 545 981 l 463 963 l 387 943 l 323 945 l 312 899 l 317 826 l 310 766 l 306 724 l 309 621 l 385 623 l 458 658 l 534 640 l 534 641 m 0 0 l -19 119 l 125 127 l 91 186 l 121 212 l 91 308 l 116 332 l 123 424 l 112 488 l 94 547 l 121 576 l 92 657 l 126 715 l 90 786 l 100 850 l 115 882 l 107 976 l -1 972 l -12 1072 l 83 1056 l 146 1087 l 203 1081 l 271 1069 l 327 1087 l 370 1065 l 442 1071 l 511 1061 l 562 1048 l 659 1069 l 638 966 l 753 970 l 744 914 l 749 822 l 756 749 l 729 712 l 759 627 l 643 633 l 644 565 l 633 518 l 623 427 l 747 435 l 752 380 l 765 316 l 741 231 l 738 195 l 749 118 l 743 54 l 755 3 l 693 -14 l 614 19 l 526 10 l 514 74 l 524 142 l 524 169 l 547 233 l 516 306 l 547 347 l 554 426 l 413 439 l 429 534 l 336 530 l 329 462 l 336 414 l 310 321 l 326 278 l 316 212 l 339 123 l 326 56 l 317 -7 l 264 -10 l 189 -19 l 115 -10 l 47 -12 l -3 14 l 0 0 z "},"S":{"ha":961,"x_min":-16,"x_max":759,"o":"m 106 0 l 99 117 l 18 117 l 3 191 l -8 248 l 13 320 l 66 304 l 146 321 l 223 307 l 211 246 l 202 185 l 202 127 l 286 106 l 336 87 l 404 91 l 450 103 l 549 87 l 550 187 l 528 243 l 550 318 l 542 358 l 517 424 l 441 437 l 420 524 l 367 536 l 276 535 l 224 536 l 216 626 l 96 632 l 94 759 l -5 754 l -16 807 l -3 903 l 7 958 l 90 953 l 93 1055 l 165 1061 l 256 1072 l 326 1082 l 365 1061 l 441 1048 l 505 1075 l 588 1063 l 629 1057 l 629 972 l 759 972 l 732 896 l 753 823 l 730 750 l 684 743 l 625 755 l 532 731 l 536 808 l 543 907 l 538 945 l 475 956 l 389 951 l 323 975 l 281 977 l 217 949 l 216 899 l 203 813 l 203 764 l 329 728 l 340 635 l 380 650 l 459 629 l 542 656 l 551 545 l 634 525 l 628 430 l 739 427 l 749 371 l 751 280 l 752 253 l 728 167 l 739 109 l 660 121 l 656 1 l 559 -12 l 496 15 l 456 -5 l 366 -9 l 308 -16 l 258 -16 l 184 -5 l 109 -8 l 106 0 z "},"T":{"ha":961,"x_min":-19,"x_max":875,"o":"m 214 0 l 195 95 l 301 100 l 332 149 l 305 232 l 322 291 l 317 344 l 327 408 l 331 478 l 321 529 l 339 595 l 323 639 l 302 716 l 317 783 l 305 826 l 316 916 l 308 964 l 209 958 l 224 870 l 115 858 l 120 767 l -19 757 l 20 823 l -8 862 l -16 944 l -7 991 l -4 1057 l 60 1072 l 130 1073 l 186 1081 l 226 1070 l 317 1060 l 349 1080 l 432 1067 l 504 1076 l 555 1062 l 628 1068 l 654 1070 l 716 1061 l 777 1050 l 859 1086 l 863 1008 l 863 951 l 875 873 l 861 814 l 836 745 l 739 745 l 761 839 l 649 859 l 654 944 l 540 970 l 518 916 l 523 843 l 516 796 l 547 735 l 538 638 l 536 587 l 540 516 l 522 471 l 549 400 l 515 347 l 536 295 l 534 237 l 543 174 l 519 114 l 656 100 l 634 9 l 562 6 l 539 18 l 446 -9 l 392 -3 l 342 18 l 286 1 l 231 -3 l 214 0 z "},"U":{"ha":961,"x_min":-20,"x_max":761,"o":"m 106 0 l 91 98 l -16 97 l -6 166 l 9 253 l -5 315 l 16 353 l 17 445 l -3 503 l -11 574 l 4 600 l -17 677 l -1 738 l 16 793 l -7 873 l 4 941 l -20 1021 l 10 1082 l 51 1086 l 151 1083 l 231 1063 l 215 990 l 196 960 l 201 873 l 229 808 l 220 744 l 201 673 l 227 629 l 216 540 l 217 507 l 233 413 l 230 361 l 205 286 l 212 235 l 198 169 l 224 103 l 269 96 l 351 102 l 397 87 l 471 100 l 530 108 l 552 179 l 533 235 l 519 290 l 515 359 l 541 429 l 525 497 l 515 561 l 547 610 l 539 672 l 526 766 l 538 821 l 541 870 l 544 922 l 547 995 l 520 1050 l 587 1084 l 677 1053 l 748 1086 l 745 994 l 736 923 l 747 873 l 733 806 l 728 746 l 747 689 l 754 622 l 755 554 l 728 496 l 761 444 l 741 355 l 739 307 l 758 218 l 751 178 l 760 113 l 643 105 l 647 -19 l 561 3 l 498 -1 l 454 4 l 362 1 l 325 -14 l 259 13 l 181 18 l 92 -15 l 106 0 z "},"V":{"ha":961,"x_min":-19,"x_max":871,"o":"m 320 0 l 309 105 l 207 125 l 214 195 l 108 197 l 109 317 l -12 334 l -14 364 l -7 435 l 12 513 l -5 562 l 13 637 l 7 699 l 5 739 l -18 837 l -19 871 l 10 941 l -15 987 l 3 1068 l 77 1048 l 132 1085 l 203 1053 l 203 1025 l 199 941 l 210 887 l 221 819 l 200 747 l 229 700 l 231 637 l 226 553 l 208 507 l 219 429 l 199 396 l 217 301 l 338 301 l 304 203 l 380 216 l 475 199 l 530 232 l 538 315 l 640 304 l 633 393 l 622 435 l 624 514 l 621 574 l 637 623 l 640 703 l 652 745 l 626 832 l 636 871 l 635 937 l 644 994 l 631 1053 l 696 1060 l 774 1061 l 835 1067 l 861 1015 l 871 941 l 851 898 l 866 826 l 855 768 l 846 679 l 871 633 l 836 555 l 836 488 l 842 461 l 866 397 l 837 316 l 755 338 l 762 224 l 636 208 l 661 97 l 533 113 l 530 18 l 473 0 l 395 1 l 322 3 l 320 0 z "},"W":{"ha":961,"x_min":-15,"x_max":875,"o":"m 106 0 l 125 72 l 98 140 l 94 207 l 11 204 l -7 280 l -14 343 l 14 380 l -3 456 l 1 503 l -5 597 l 1 627 l -15 695 l 7 745 l 3 842 l -4 867 l 12 943 l 13 1019 l -12 1076 l 64 1056 l 151 1065 l 233 1065 l 212 1008 l 211 945 l 229 873 l 205 814 l 227 758 l 227 695 l 205 621 l 201 553 l 209 518 l 210 461 l 209 367 l 232 324 l 313 307 l 334 372 l 332 469 l 305 545 l 404 549 l 470 549 l 553 523 l 522 482 l 533 388 l 532 323 l 625 302 l 633 388 l 649 436 l 625 514 l 623 567 l 632 616 l 635 688 l 639 736 l 642 808 l 640 880 l 629 953 l 648 991 l 631 1054 l 694 1076 l 763 1063 l 841 1066 l 850 1013 l 842 955 l 840 878 l 843 839 l 837 760 l 854 714 l 875 638 l 836 570 l 869 519 l 856 468 l 865 409 l 868 328 l 860 260 l 852 225 l 732 233 l 731 131 l 743 91 l 755 14 l 668 -1 l 616 16 l 521 -12 l 517 76 l 553 132 l 547 224 l 457 199 l 395 206 l 325 214 l 333 131 l 329 71 l 328 14 l 254 -7 l 181 14 l 121 -12 l 106 0 z "},"X":{"ha":961,"x_min":-17,"x_max":858,"o":"m 0 0 l 1 83 l 14 159 l -17 196 l 114 197 l 97 336 l 198 311 l 208 424 l 303 438 l 330 486 l 338 583 l 323 646 l 216 642 l 194 766 l 97 738 l 98 843 l -14 862 l -15 942 l -3 996 l 11 1072 l 69 1072 l 127 1062 l 201 1076 l 210 981 l 219 919 l 227 869 l 337 853 l 313 738 l 402 760 l 454 748 l 550 739 l 519 838 l 627 867 l 652 937 l 652 1006 l 648 1074 l 725 1061 l 780 1054 l 836 1059 l 835 997 l 839 941 l 854 842 l 758 865 l 751 753 l 640 731 l 629 636 l 529 640 l 526 554 l 523 488 l 533 429 l 646 439 l 659 307 l 755 302 l 758 228 l 857 213 l 858 132 l 842 74 l 839 -2 l 793 10 l 700 -9 l 633 -12 l 632 85 l 644 150 l 635 231 l 526 222 l 515 327 l 472 321 l 374 308 l 321 329 l 323 209 l 218 212 l 222 159 l 196 83 l 231 -7 l 127 -18 l 58 2 l 1 -14 l 0 0 z "},"Y":{"ha":961,"x_min":-9,"x_max":863,"o":"m 214 0 l 225 106 l 318 98 l 340 186 l 334 217 l 302 270 l 337 347 l 328 412 l 310 470 l 339 519 l 201 551 l 207 657 l 104 621 l 124 764 l -9 766 l 17 823 l 14 861 l 10 938 l 16 1002 l -7 1076 l 84 1080 l 159 1084 l 194 1070 l 230 1019 l 209 937 l 231 890 l 202 806 l 218 751 l 324 765 l 334 649 l 390 640 l 445 626 l 533 639 l 515 734 l 659 762 l 646 806 l 652 884 l 650 920 l 656 1015 l 657 1086 l 729 1054 l 768 1078 l 863 1082 l 837 994 l 846 935 l 844 880 l 840 800 l 855 758 l 738 752 l 736 644 l 644 661 l 644 522 l 543 528 l 532 471 l 530 412 l 525 342 l 532 274 l 517 224 l 541 151 l 530 127 l 654 100 l 638 17 l 588 -3 l 518 5 l 458 -10 l 406 15 l 350 16 l 256 -7 l 203 -7 l 214 0 z "},"Z":{"ha":961,"x_min":-18,"x_max":872,"o":"m 0 0 l 12 74 l 1 144 l 16 186 l -18 239 l -16 330 l 94 319 l 115 446 l 197 443 l 214 528 l 323 518 l 318 649 l 408 628 l 435 760 l 547 738 l 521 865 l 640 845 l 632 974 l 568 968 l 533 964 l 450 977 l 385 949 l 330 945 l 266 943 l 210 956 l 208 836 l 95 867 l 94 759 l -9 741 l -16 810 l 5 876 l 0 939 l -18 987 l -14 1087 l 58 1059 l 125 1055 l 180 1072 l 236 1072 l 296 1076 l 374 1057 l 435 1057 l 496 1069 l 536 1079 l 620 1074 l 656 1082 l 741 1061 l 789 1075 l 863 1057 l 840 1009 l 852 943 l 842 866 l 756 848 l 730 744 l 661 732 l 626 642 l 549 629 l 531 516 l 444 543 l 446 444 l 317 442 l 300 339 l 194 314 l 205 246 l 227 191 l 212 111 l 257 121 l 338 123 l 388 95 l 454 113 l 525 102 l 562 115 l 661 116 l 644 218 l 736 233 l 733 332 l 869 302 l 872 241 l 846 205 l 855 113 l 842 79 l 843 14 l 797 -8 l 739 -18 l 671 11 l 600 13 l 550 -3 l 481 16 l 425 -4 l 370 13 l 314 -20 l 237 5 l 201 5 l 119 17 l 68 -2 l -8 12 l 0 0 z "},"[":{"ha":961,"x_min":199,"x_max":652,"o":"m 214 0 l 208 81 l 201 145 l 210 176 l 215 241 l 231 330 l 226 380 l 215 446 l 199 498 l 233 574 l 215 638 l 199 671 l 199 746 l 227 835 l 212 862 l 233 939 l 230 989 l 202 1069 l 283 1076 l 345 1083 l 392 1056 l 450 1065 l 536 1079 l 579 1084 l 652 1057 l 645 943 l 589 966 l 481 962 l 418 954 l 446 892 l 434 837 l 442 765 l 433 709 l 443 674 l 429 605 l 429 519 l 422 464 l 440 394 l 444 343 l 442 286 l 431 210 l 432 180 l 408 119 l 512 106 l 564 123 l 625 120 l 626 -15 l 591 10 l 531 -2 l 470 0 l 380 -14 l 337 -15 l 282 0 l 225 -1 l 214 0 z "},"\\":{"ha":961,"x_min":-10,"x_max":759,"o":"m 641 0 l 648 102 l 514 119 l 550 197 l 430 199 l 417 336 l 325 313 l 306 442 l 203 433 l 213 527 l 122 532 l 117 626 l 8 635 l -10 686 l -10 766 l 3 833 l 15 882 l 4 950 l 87 947 l 89 850 l 206 844 l 229 749 l 313 760 l 317 650 l 435 650 l 443 529 l 522 515 l 551 433 l 642 431 l 638 325 l 728 301 l 741 263 l 728 193 l 751 120 l 759 82 l 747 2 l 621 -17 l 641 0 z "},"]":{"ha":961,"x_min":201,"x_max":661,"o":"m 214 0 l 215 112 l 290 89 l 373 111 l 409 124 l 409 180 l 427 235 l 434 307 l 431 340 l 431 407 l 444 465 l 417 551 l 425 613 l 414 644 l 445 736 l 433 791 l 408 846 l 427 886 l 408 970 l 356 955 l 269 945 l 201 954 l 205 1084 l 274 1072 l 334 1054 l 385 1084 l 471 1050 l 524 1086 l 586 1076 l 631 1076 l 658 1009 l 659 927 l 625 892 l 640 808 l 652 766 l 661 688 l 624 644 l 623 574 l 659 511 l 654 455 l 659 363 l 633 330 l 635 250 l 656 169 l 637 142 l 637 69 l 660 -3 l 596 -18 l 507 -8 l 468 -7 l 413 7 l 326 16 l 269 18 l 233 18 l 214 0 z "},"^":{"ha":961,"x_min":-18,"x_max":752,"o":"m 0 854 l 3 961 l 96 970 l 92 1087 l 211 1059 l 234 1161 l 315 1158 l 332 1286 l 435 1269 l 410 1176 l 516 1190 l 536 1079 l 627 1079 l 631 946 l 738 966 l 752 866 l 685 844 l 588 836 l 524 861 l 532 949 l 434 946 l 445 1055 l 321 1078 l 306 975 l 222 960 l 195 852 l 162 852 l 80 867 l -18 844 l 0 854 z "},"_":{"ha":961,"x_min":-2,"x_max":855,"o":"m 0 -214 l -2 -109 l 77 -127 l 137 -94 l 190 -94 l 228 -106 l 302 -88 l 371 -112 l 432 -100 l 475 -92 l 563 -115 l 593 -109 l 673 -90 l 730 -124 l 783 -113 l 855 -90 l 846 -211 l 808 -227 l 719 -229 l 667 -219 l 619 -227 l 534 -214 l 483 -216 l 429 -197 l 363 -226 l 303 -231 l 254 -208 l 183 -226 l 136 -233 l 64 -208 l -1 -202 l 0 -214 z "},"`":{"ha":961,"x_min":196,"x_max":547,"o":"m 320 961 l 302 1065 l 205 1075 l 218 1135 l 196 1221 l 222 1289 l 275 1299 l 350 1263 l 437 1291 l 425 1196 l 438 1131 l 422 1050 l 547 1061 l 538 972 l 475 962 l 395 979 l 313 965 l 320 961 z "},"a":{"ha":961,"x_min":-9,"x_max":749,"o":"m 106 0 l 114 113 l 19 113 l 9 170 l 5 226 l 6 315 l -9 376 l 14 429 l 94 444 l 123 528 l 185 540 l 225 532 l 302 539 l 377 546 l 412 523 l 425 623 l 363 635 l 283 652 l 248 652 l 186 635 l 123 651 l 99 728 l 155 759 l 223 760 l 286 764 l 359 753 l 408 730 l 463 739 l 538 744 l 553 652 l 624 627 l 651 574 l 648 494 l 631 458 l 654 371 l 644 295 l 622 257 l 626 157 l 623 123 l 749 90 l 734 -11 l 694 -16 l 613 3 l 522 -20 l 536 96 l 409 89 l 424 170 l 409 222 l 433 317 l 420 347 l 429 417 l 342 435 l 269 412 l 223 443 l 209 360 l 221 317 l 202 215 l 232 177 l 215 98 l 299 106 l 336 98 l 422 87 l 425 -1 l 365 -2 l 284 -15 l 250 -12 l 151 16 l 114 16 l 106 0 z "},"b":{"ha":961,"x_min":-17,"x_max":759,"o":"m 534 106 l 527 165 l 517 217 l 524 298 l 553 351 l 526 395 l 530 460 l 523 536 l 433 553 l 435 639 l 320 654 l 300 580 l 311 489 l 340 456 l 327 357 l 334 300 l 339 231 l 334 174 l 317 117 l 382 100 l 455 92 l 527 123 l 534 106 m 106 0 l 96 64 l 113 141 l 119 177 l 98 244 l 100 326 l 106 389 l 90 433 l 88 532 l 117 574 l 93 641 l 114 711 l 123 776 l 96 814 l 111 878 l 104 970 l -17 966 l 5 1058 l 52 1076 l 122 1049 l 195 1078 l 238 1068 l 330 1054 l 323 992 l 307 958 l 321 892 l 324 819 l 310 743 l 402 766 l 457 752 l 549 751 l 546 641 l 641 621 l 624 513 l 759 552 l 733 460 l 738 427 l 730 343 l 738 277 l 730 220 l 739 181 l 750 87 l 636 94 l 654 -16 l 583 -20 l 522 14 l 431 -17 l 381 -14 l 306 1 l 235 -9 l 189 1 l 116 -3 l 106 0 z "},"c":{"ha":961,"x_min":-18,"x_max":764,"o":"m 106 0 l 95 90 l -17 124 l 18 187 l 12 248 l -8 304 l 13 363 l -12 443 l -2 525 l -18 559 l -16 661 l 109 648 l 92 756 l 192 738 l 244 746 l 304 748 l 374 732 l 429 749 l 492 732 l 567 743 l 647 736 l 628 628 l 747 657 l 741 531 l 690 527 l 589 526 l 542 526 l 553 648 l 450 648 l 423 661 l 322 656 l 258 627 l 217 658 l 199 555 l 211 508 l 210 427 l 208 355 l 232 294 l 195 231 l 216 179 l 216 96 l 271 92 l 345 121 l 399 110 l 486 124 l 531 90 l 526 222 l 610 229 l 694 231 l 764 232 l 753 115 l 652 119 l 639 9 l 579 -16 l 496 1 l 427 -14 l 391 17 l 290 16 l 259 9 l 190 -18 l 94 10 l 106 0 z "},"d":{"ha":961,"x_min":-13,"x_max":745,"o":"m 106 0 l 105 113 l -7 90 l 15 155 l -9 235 l -2 289 l 1 336 l 0 431 l -13 464 l -10 530 l 89 543 l 86 626 l 194 626 l 227 749 l 278 758 l 360 762 l 410 760 l 413 815 l 418 871 l 441 974 l 302 943 l 328 1062 l 373 1055 l 435 1072 l 517 1052 l 594 1054 l 657 1083 l 640 1018 l 652 959 l 661 882 l 638 825 l 652 767 l 640 673 l 643 629 l 645 555 l 629 498 l 645 424 l 646 382 l 627 284 l 661 243 l 646 189 l 652 87 l 741 119 l 745 9 l 688 20 l 591 0 l 527 7 l 527 107 l 414 108 l 441 180 l 410 231 l 412 315 l 446 373 l 419 438 l 408 495 l 431 572 l 441 624 l 339 635 l 310 526 l 210 531 l 218 456 l 225 431 l 207 367 l 223 300 l 220 232 l 199 183 l 220 92 l 277 93 l 374 102 l 437 106 l 439 -3 l 353 -13 l 304 -18 l 241 -12 l 183 -15 l 98 7 l 106 0 z "},"e":{"ha":961,"x_min":-19,"x_max":761,"o":"m 534 534 l 529 646 l 469 646 l 388 624 l 360 624 l 268 650 l 222 651 l 222 544 l 296 528 l 329 541 l 388 533 l 476 549 l 539 532 l 534 534 m 106 0 l 96 125 l -17 98 l -2 187 l 4 235 l -14 300 l 15 380 l -3 448 l 1 492 l -19 581 l 10 631 l 119 646 l 121 759 l 157 739 l 233 747 l 295 743 l 355 762 l 444 734 l 507 762 l 590 765 l 636 753 l 648 637 l 749 661 l 749 551 l 745 501 l 761 429 l 682 411 l 626 417 l 541 411 l 496 432 l 423 415 l 336 440 l 273 418 l 212 429 l 199 382 l 200 313 l 201 241 l 218 164 l 199 92 l 294 102 l 334 100 l 399 123 l 463 109 l 548 126 l 522 198 l 603 209 l 673 233 l 760 229 l 758 111 l 635 99 l 635 -11 l 576 17 l 493 13 l 429 -14 l 370 -10 l 297 20 l 229 -1 l 191 7 l 106 5 l 106 0 z "},"f":{"ha":961,"x_min":-5,"x_max":658,"o":"m 0 0 l -5 90 l 120 117 l 110 178 l 112 242 l 100 277 l 96 332 l 113 396 l 106 491 l 110 527 l 14 542 l 7 629 l 88 629 l 110 718 l 119 756 l 121 821 l 101 915 l 90 972 l 197 949 l 226 1062 l 281 1066 l 341 1059 l 392 1080 l 466 1048 l 550 1053 l 520 950 l 638 979 l 658 880 l 654 818 l 629 766 l 524 761 l 517 844 l 421 866 l 447 945 l 316 969 l 317 881 l 322 818 l 306 772 l 319 701 l 319 638 l 448 633 l 422 541 l 326 532 l 325 472 l 319 401 l 327 340 l 309 307 l 316 248 l 334 151 l 314 90 l 436 113 l 427 -3 l 380 16 l 308 -1 l 249 -5 l 186 -9 l 110 13 l 68 4 l 6 -11 l 0 0 z "},"g":{"ha":961,"x_min":-12,"x_max":764,"o":"m 106 -320 l 97 -213 l 16 -221 l 14 -109 l 91 -120 l 136 -89 l 206 -107 l 222 -209 l 287 -205 l 374 -230 l 438 -221 l 417 -157 l 431 -71 l 412 12 l 383 3 l 309 15 l 224 -3 l 155 -7 l 122 -14 l 123 100 l -9 100 l -12 158 l -11 228 l 17 307 l 16 376 l -4 433 l 9 517 l 19 587 l 18 648 l 98 648 l 121 733 l 174 735 l 242 741 l 287 739 l 356 762 l 416 747 l 421 640 l 342 657 l 269 626 l 197 637 l 206 559 l 205 515 l 196 426 l 224 374 l 220 326 l 200 260 l 207 185 l 209 98 l 296 106 l 351 98 l 413 96 l 429 170 l 410 248 l 410 289 l 428 389 l 431 420 l 443 506 l 440 564 l 418 623 l 514 629 l 530 753 l 604 736 l 696 743 l 756 756 l 764 642 l 629 640 l 632 589 l 654 520 l 653 450 l 645 409 l 621 342 l 627 288 l 629 226 l 661 149 l 652 104 l 633 41 l 632 -11 l 653 -100 l 637 -151 l 638 -195 l 550 -226 l 517 -321 l 480 -323 l 404 -333 l 347 -310 l 279 -312 l 216 -325 l 176 -330 l 104 -321 l 106 -320 z "},"h":{"ha":961,"x_min":-17,"x_max":756,"o":"m 534 0 l 537 83 l 515 120 l 538 172 l 550 261 l 533 319 l 521 379 l 537 443 l 522 511 l 523 570 l 530 622 l 431 645 l 419 753 l 486 759 l 577 748 l 642 753 l 629 623 l 734 628 l 753 560 l 728 516 l 747 435 l 754 385 l 728 333 l 751 245 l 756 189 l 749 127 l 745 44 l 747 18 l 673 11 l 606 -2 l 521 -7 l 534 0 m 0 0 l -17 96 l 118 93 l 89 174 l 89 226 l 90 274 l 115 351 l 96 410 l 109 467 l 90 545 l 125 589 l 117 666 l 121 712 l 90 766 l 97 820 l 125 900 l 102 965 l -12 949 l 15 1076 l 60 1067 l 146 1057 l 193 1051 l 271 1074 l 337 1083 l 321 995 l 302 930 l 336 891 l 315 821 l 332 778 l 332 698 l 334 642 l 414 629 l 408 549 l 339 536 l 330 471 l 303 383 l 336 353 l 314 283 l 328 210 l 307 140 l 328 53 l 327 -12 l 238 17 l 201 -16 l 123 15 l 54 -6 l 7 -1 l 0 0 z "},"i":{"ha":961,"x_min":212,"x_max":657,"o":"m 214 0 l 212 92 l 334 100 l 331 165 l 307 223 l 332 298 l 322 390 l 336 455 l 319 491 l 309 562 l 333 650 l 212 661 l 215 762 l 291 762 l 350 743 l 404 761 l 484 739 l 553 742 l 541 694 l 522 611 l 534 551 l 553 488 l 536 442 l 544 351 l 518 286 l 518 222 l 543 154 l 524 98 l 657 100 l 644 -14 l 561 -15 l 524 1 l 476 0 l 403 -7 l 328 7 l 265 -8 l 218 -20 l 214 0 m 320 854 l 336 909 l 328 993 l 332 1051 l 409 1074 l 470 1080 l 523 1088 l 516 1011 l 525 924 l 538 871 l 465 852 l 382 834 l 305 867 l 320 854 z "},"j":{"ha":961,"x_min":91,"x_max":766,"o":"m 214 -320 l 201 -198 l 111 -229 l 91 -123 l 122 -68 l 110 -4 l 183 6 l 235 -1 l 334 -11 l 321 -71 l 309 -125 l 311 -223 l 385 -219 l 456 -220 l 535 -222 l 521 -142 l 516 -108 l 517 -41 l 532 50 l 524 110 l 523 168 l 547 227 l 520 273 l 526 329 l 524 413 l 513 453 l 538 538 l 533 564 l 525 638 l 446 628 l 418 741 l 488 733 l 572 743 l 625 732 l 695 753 l 746 755 l 732 695 l 737 609 l 731 546 l 766 492 l 734 437 l 739 372 l 741 317 l 753 247 l 760 157 l 745 106 l 730 59 l 743 -22 l 745 -73 l 760 -148 l 750 -224 l 654 -209 l 642 -323 l 567 -301 l 509 -330 l 441 -309 l 378 -338 l 328 -328 l 268 -329 l 231 -313 l 214 -320 m 534 854 l 520 915 l 536 1006 l 524 1087 l 613 1048 l 692 1078 l 749 1048 l 757 997 l 751 905 l 766 837 l 688 863 l 606 844 l 553 865 l 534 854 z "},"k":{"ha":961,"x_min":-11,"x_max":766,"o":"m 0 0 l 18 94 l 118 98 l 111 148 l 119 211 l 92 288 l 120 366 l 96 397 l 98 484 l 87 541 l 100 590 l 100 669 l 105 700 l 106 760 l 87 840 l 119 905 l 95 942 l -5 970 l -11 1060 l 53 1085 l 111 1050 l 174 1080 l 261 1056 l 318 1076 l 313 1015 l 309 922 l 328 886 l 316 795 l 312 753 l 328 687 l 323 619 l 340 534 l 433 516 l 426 637 l 551 633 l 522 743 l 614 758 l 686 745 l 727 744 l 739 644 l 634 625 l 633 520 l 543 530 l 513 471 l 526 398 l 541 323 l 659 337 l 623 222 l 741 202 l 760 125 l 766 79 l 753 -1 l 660 -14 l 609 5 l 549 6 l 524 66 l 515 139 l 540 214 l 422 228 l 417 315 l 336 305 l 302 262 l 317 202 l 339 133 l 332 76 l 323 11 l 241 -10 l 200 15 l 140 -16 l 65 12 l 16 -3 l 0 0 z "},"l":{"ha":961,"x_min":198,"x_max":656,"o":"m 214 0 l 228 100 l 321 106 l 307 160 l 317 241 l 312 281 l 334 338 l 302 404 l 301 459 l 332 526 l 324 614 l 317 665 l 304 705 l 319 796 l 328 835 l 338 905 l 321 969 l 218 956 l 198 1087 l 271 1084 l 336 1053 l 397 1057 l 456 1072 l 527 1074 l 540 996 l 536 941 l 545 889 l 537 800 l 525 735 l 521 694 l 552 629 l 547 567 l 553 503 l 516 408 l 530 359 l 518 304 l 534 222 l 532 171 l 520 126 l 627 89 l 656 8 l 573 5 l 522 -4 l 469 12 l 411 -12 l 317 18 l 256 10 l 222 -10 l 214 0 z "},"m":{"ha":961,"x_min":-20,"x_max":874,"o":"m 0 0 l -9 59 l 15 126 l -9 178 l -20 235 l 18 319 l 20 359 l -3 452 l -10 479 l -14 553 l -10 631 l 0 688 l -7 732 l 75 753 l 119 762 l 197 764 l 258 730 l 309 759 l 326 652 l 408 656 l 445 628 l 534 651 l 521 758 l 618 761 l 695 736 l 751 747 l 745 637 l 850 626 l 874 597 l 868 509 l 842 448 l 866 390 l 834 320 l 849 254 l 835 182 l 864 130 l 869 67 l 869 18 l 777 9 l 712 -15 l 625 -4 l 629 47 l 625 119 l 633 214 l 625 262 l 642 340 l 623 398 l 652 457 l 625 549 l 517 526 l 542 454 l 535 397 l 532 330 l 530 253 l 543 220 l 549 116 l 514 69 l 543 -18 l 460 16 l 397 -7 l 323 -3 l 308 52 l 311 117 l 307 220 l 320 279 l 319 347 l 317 395 l 312 469 l 322 551 l 210 545 l 225 454 l 221 414 l 218 347 l 222 253 l 222 193 l 197 117 l 224 62 l 231 12 l 130 -6 l 83 19 l -6 17 l 0 0 z "},"n":{"ha":961,"x_min":1,"x_max":767,"o":"m 106 0 l 107 73 l 125 121 l 99 212 l 97 252 l 118 321 l 120 389 l 122 448 l 99 511 l 102 570 l 91 653 l 1 644 l 5 756 l 76 732 l 129 762 l 227 738 l 206 625 l 334 627 l 302 566 l 307 515 l 313 446 l 314 389 l 313 307 l 331 239 l 302 208 l 338 145 l 301 55 l 308 -15 l 253 -19 l 193 -20 l 115 14 l 106 0 m 534 0 l 541 75 l 541 123 l 553 205 l 535 272 l 543 304 l 551 390 l 540 451 l 541 514 l 550 574 l 528 649 l 450 652 l 401 637 l 324 622 l 328 729 l 372 756 l 437 739 l 532 743 l 561 762 l 628 751 l 631 650 l 731 633 l 762 592 l 767 507 l 745 465 l 730 381 l 736 327 l 758 238 l 753 191 l 747 123 l 745 72 l 760 16 l 666 11 l 616 14 l 551 18 l 534 0 z "},"o":{"ha":961,"x_min":-18,"x_max":764,"o":"m 534 106 l 532 192 l 518 257 l 543 319 l 529 359 l 534 436 l 515 496 l 532 583 l 520 647 l 456 635 l 391 637 l 361 633 l 294 622 l 220 647 l 205 574 l 204 520 l 233 422 l 221 381 l 194 295 l 207 222 l 207 175 l 197 104 l 261 87 l 339 124 l 398 117 l 471 117 l 538 120 l 534 106 m 106 0 l 102 115 l 6 98 l 2 172 l 17 235 l -18 321 l 3 388 l -3 420 l 16 489 l 15 575 l -17 637 l 102 648 l 92 749 l 180 752 l 230 732 l 323 751 l 376 729 l 433 748 l 519 760 l 557 736 l 650 766 l 657 640 l 751 625 l 730 575 l 755 509 l 752 442 l 747 361 l 764 316 l 759 248 l 732 161 l 732 94 l 623 117 l 638 18 l 583 -1 l 528 -13 l 443 -10 l 366 0 l 325 -19 l 237 12 l 186 -8 l 105 -4 l 106 0 z "},"p":{"ha":961,"x_min":-18,"x_max":766,"o":"m 0 -320 l -15 -220 l 125 -214 l 120 -149 l 114 -72 l 87 -12 l 111 29 l 109 88 l 118 135 l 115 206 l 104 257 l 92 325 l 100 409 l 109 470 l 88 499 l 109 589 l 96 623 l -12 622 l -1 731 l 60 753 l 142 752 l 231 736 l 231 646 l 328 631 l 307 583 l 334 511 l 334 432 l 329 366 l 321 303 l 315 220 l 337 193 l 303 113 l 374 110 l 482 114 l 534 123 l 548 184 l 550 237 l 538 291 l 545 373 l 540 433 l 520 516 l 546 587 l 530 657 l 442 659 l 394 641 l 316 651 l 300 734 l 399 743 l 431 754 l 526 738 l 557 728 l 634 732 l 648 659 l 735 647 l 746 557 l 739 488 l 742 447 l 753 369 l 766 287 l 745 225 l 734 190 l 760 87 l 657 92 l 629 0 l 570 7 l 510 5 l 453 6 l 404 -5 l 321 -7 l 300 -58 l 330 -142 l 313 -224 l 425 -205 l 434 -315 l 378 -302 l 297 -334 l 232 -335 l 168 -310 l 127 -316 l 49 -337 l -18 -313 l 0 -320 z "},"q":{"ha":961,"x_min":-14,"x_max":751,"o":"m 320 -320 l 330 -214 l 420 -225 l 447 -140 l 420 -76 l 436 -1 l 382 -14 l 286 -10 l 217 11 l 170 11 l 115 -12 l 111 118 l -5 99 l -14 183 l 11 237 l 7 311 l -3 368 l 19 445 l 11 498 l -10 558 l 13 644 l 96 638 l 87 743 l 155 755 l 252 739 l 318 764 l 349 743 l 415 732 l 431 631 l 373 651 l 284 649 l 205 658 l 221 554 l 220 507 l 196 439 l 213 388 l 230 289 l 226 233 l 204 190 l 199 112 l 297 107 l 347 91 l 444 98 l 433 184 l 436 237 l 440 302 l 424 378 l 424 433 l 409 514 l 431 581 l 443 650 l 521 624 l 532 752 l 620 758 l 681 746 l 732 751 l 744 629 l 653 632 l 642 594 l 634 526 l 646 475 l 639 383 l 651 334 l 633 274 l 654 233 l 656 153 l 639 73 l 644 27 l 637 -23 l 631 -103 l 643 -134 l 645 -216 l 751 -197 l 740 -328 l 703 -334 l 622 -334 l 556 -319 l 514 -317 l 431 -307 l 397 -319 l 313 -330 l 320 -320 z "},"r":{"ha":961,"x_min":0,"x_max":756,"o":"m 0 0 l 13 98 l 104 111 l 118 192 l 115 235 l 125 291 l 88 375 l 125 439 l 94 515 l 119 589 l 109 640 l 14 623 l 6 753 l 88 766 l 125 741 l 233 764 l 229 640 l 303 631 l 307 756 l 387 733 l 441 743 l 507 757 l 582 743 l 634 742 l 622 637 l 749 648 l 746 557 l 741 498 l 756 423 l 673 430 l 587 440 l 517 429 l 551 488 l 538 570 l 529 656 l 431 657 l 418 523 l 303 526 l 313 490 l 328 401 l 302 350 l 302 281 l 310 245 l 317 149 l 321 107 l 447 109 l 429 -10 l 368 9 l 318 13 l 247 -20 l 180 9 l 111 -1 l 66 17 l 20 18 l 0 0 z "},"s":{"ha":961,"x_min":-15,"x_max":753,"o":"m 106 0 l 116 116 l 9 112 l -15 195 l 62 199 l 161 205 l 207 224 l 197 102 l 286 87 l 335 118 l 404 95 l 450 94 l 532 117 l 519 197 l 433 217 l 424 307 l 347 326 l 303 320 l 231 317 l 204 439 l 96 434 l 95 524 l -13 552 l 3 623 l 121 658 l 120 755 l 182 731 l 220 764 l 288 749 l 391 762 l 453 739 l 518 743 l 569 743 l 646 731 l 644 660 l 744 630 l 743 517 l 663 548 l 616 534 l 515 524 l 515 626 l 487 638 l 425 657 l 333 631 l 273 625 l 220 630 l 212 519 l 333 537 l 302 446 l 409 430 l 471 446 l 539 422 l 530 326 l 642 309 l 652 216 l 753 207 l 734 105 l 623 111 l 648 3 l 570 -16 l 518 -16 l 454 -4 l 357 -20 l 317 -1 l 235 -14 l 176 -18 l 95 3 l 106 0 z "},"t":{"ha":961,"x_min":3,"x_max":764,"o":"m 320 0 l 338 87 l 204 102 l 212 183 l 217 251 l 218 299 l 210 378 l 202 459 l 196 505 l 229 555 l 228 622 l 139 654 l 52 630 l 9 637 l 3 750 l 83 766 l 150 741 l 212 747 l 202 812 l 222 907 l 209 946 l 306 976 l 307 1053 l 442 1065 l 413 995 l 422 930 l 427 871 l 443 795 l 422 749 l 480 743 l 559 759 l 634 756 l 642 629 l 560 655 l 510 636 l 431 636 l 413 557 l 426 502 l 414 444 l 410 357 l 436 294 l 427 245 l 442 175 l 420 123 l 551 88 l 550 196 l 597 204 l 677 193 l 764 214 l 749 120 l 652 101 l 657 20 l 582 -1 l 528 10 l 448 -5 l 380 -14 l 314 12 l 320 0 z "},"u":{"ha":961,"x_min":-13,"x_max":733,"o":"m 106 0 l 121 115 l -2 116 l -9 159 l -4 226 l 5 309 l 14 358 l -13 432 l 13 473 l -3 566 l -8 639 l 19 690 l -6 747 l 79 755 l 136 760 l 230 728 l 210 703 l 203 627 l 232 540 l 228 471 l 200 415 l 215 361 l 207 294 l 220 236 l 233 190 l 199 113 l 294 121 l 362 109 l 433 120 l 416 0 l 355 -16 l 289 -12 l 255 -12 l 163 -5 l 102 13 l 106 0 m 534 0 l 541 107 l 426 92 l 447 182 l 426 233 l 441 313 l 445 377 l 444 414 l 435 494 l 421 574 l 433 620 l 442 668 l 418 745 l 502 745 l 552 734 l 654 738 l 623 695 l 658 603 l 631 571 l 635 473 l 629 436 l 628 378 l 661 305 l 623 242 l 627 170 l 621 98 l 733 87 l 728 -14 l 670 13 l 608 1 l 526 -16 l 534 0 z "},"v":{"ha":961,"x_min":-17,"x_max":874,"o":"m 320 0 l 323 109 l 215 124 l 205 205 l 100 216 l 90 306 l 16 306 l 4 362 l -12 454 l 14 489 l -7 584 l -17 612 l 14 674 l -15 764 l 89 734 l 142 749 l 201 751 l 210 667 l 222 607 l 194 573 l 203 513 l 218 451 l 195 386 l 218 336 l 320 303 l 324 201 l 399 206 l 465 208 l 522 206 l 539 313 l 651 316 l 623 386 l 660 448 l 626 489 l 648 578 l 654 616 l 633 683 l 638 728 l 710 766 l 772 735 l 854 753 l 863 671 l 836 631 l 874 572 l 852 486 l 836 459 l 865 370 l 856 303 l 755 325 l 753 195 l 656 229 l 623 123 l 539 124 l 515 18 l 454 14 l 410 15 l 325 -14 l 320 0 z "},"w":{"ha":961,"x_min":-20,"x_max":872,"o":"m 106 0 l 109 121 l -2 86 l -4 163 l 1 235 l 17 318 l -11 355 l 10 423 l -12 485 l 15 555 l -20 629 l -1 694 l -15 732 l 90 729 l 161 766 l 232 766 l 198 686 l 216 597 l 203 543 l 209 478 l 205 399 l 224 342 l 221 269 l 196 203 l 304 195 l 329 304 l 302 369 l 320 413 l 390 412 l 475 431 l 517 438 l 544 362 l 551 281 l 521 233 l 624 220 l 624 276 l 631 361 l 629 422 l 659 479 l 635 541 l 652 608 l 628 680 l 633 745 l 730 748 l 767 750 l 842 744 l 862 692 l 857 613 l 871 551 l 872 492 l 867 432 l 838 373 l 867 318 l 869 220 l 839 168 l 834 115 l 741 97 l 739 15 l 667 14 l 596 -1 l 524 -2 l 543 90 l 481 93 l 411 109 l 321 119 l 313 -9 l 255 18 l 184 -12 l 87 -13 l 106 0 z "},"x":{"ha":961,"x_min":-12,"x_max":844,"o":"m 0 0 l -5 109 l 110 100 l 125 210 l 227 203 l 195 319 l 332 307 l 317 439 l 233 415 l 197 547 l 105 527 l 98 661 l -12 631 l 16 745 l 54 736 l 140 750 l 228 751 l 211 640 l 340 640 l 328 542 l 408 517 l 463 529 l 554 532 l 549 637 l 622 645 l 660 744 l 732 742 l 770 746 l 834 759 l 844 659 l 761 659 l 756 549 l 661 543 l 652 410 l 526 443 l 523 300 l 625 304 l 653 205 l 737 220 l 751 102 l 836 123 l 839 -3 l 787 -7 l 728 19 l 655 14 l 659 98 l 551 109 l 524 204 l 478 215 l 375 201 l 331 217 l 303 123 l 222 123 l 195 4 l 131 7 l 59 18 l -7 9 l 0 0 z "},"y":{"ha":961,"x_min":-17,"x_max":768,"o":"m 0 -320 l -9 -195 l 69 -227 l 114 -208 l 180 -220 l 252 -203 l 313 -220 l 360 -231 l 439 -221 l 416 -115 l 548 -107 l 526 -14 l 485 2 l 408 -7 l 366 -12 l 298 1 l 210 -17 l 158 16 l 123 12 l 113 120 l -12 105 l -14 155 l 9 235 l 14 309 l 11 376 l 19 430 l -6 488 l -1 559 l -11 620 l -17 669 l -2 766 l 80 753 l 128 745 l 229 753 l 200 701 l 229 638 l 210 572 l 195 508 l 230 414 l 198 379 l 218 286 l 199 247 l 208 155 l 224 97 l 283 113 l 333 104 l 404 108 l 465 87 l 526 113 l 514 166 l 541 225 l 528 306 l 516 374 l 517 421 l 528 488 l 515 550 l 550 639 l 538 681 l 521 735 l 618 743 l 674 739 l 739 733 l 754 682 l 742 625 l 729 583 l 748 519 l 765 439 l 766 391 l 768 321 l 728 248 l 749 184 l 730 119 l 730 63 l 741 20 l 747 -57 l 760 -114 l 655 -124 l 635 -195 l 521 -197 l 549 -336 l 471 -339 l 394 -316 l 342 -307 l 255 -337 l 212 -340 l 142 -340 l 54 -332 l -14 -338 l 0 -320 z "},"z":{"ha":961,"x_min":-18,"x_max":755,"o":"m 0 0 l -12 54 l -13 125 l -12 218 l 105 215 l 120 302 l 226 308 l 208 422 l 324 407 l 301 551 l 424 539 l 410 659 l 338 653 l 298 644 l 233 655 l 204 528 l 155 540 l 64 534 l -14 525 l -1 613 l -18 686 l -15 760 l 83 760 l 138 729 l 201 749 l 235 732 l 320 756 l 367 730 l 456 732 l 488 764 l 566 749 l 606 738 l 666 735 l 730 752 l 737 633 l 654 653 l 634 543 l 526 522 l 526 423 l 429 447 l 422 308 l 325 319 l 311 205 l 199 208 l 198 106 l 296 91 l 347 109 l 392 104 l 465 99 l 514 86 l 533 229 l 625 195 l 681 214 l 755 214 l 734 134 l 754 60 l 748 5 l 697 -7 l 608 -4 l 554 -20 l 517 -4 l 444 8 l 389 20 l 307 -3 l 268 8 l 183 6 l 141 -4 l 82 0 l 10 -12 l 0 0 z "},"{":{"ha":961,"x_min":99,"x_max":759,"o":"m 427 0 l 422 107 l 339 102 l 328 176 l 305 233 l 334 282 l 315 362 l 307 431 l 328 477 l 340 536 l 242 538 l 192 535 l 102 522 l 99 659 l 184 658 l 235 627 l 305 624 l 311 696 l 310 760 l 317 821 l 323 882 l 331 963 l 410 973 l 409 1057 l 507 1087 l 538 1050 l 639 1080 l 703 1051 l 759 1085 l 751 968 l 688 947 l 590 977 l 541 966 l 553 892 l 532 823 l 547 770 l 546 695 l 524 643 l 422 642 l 437 537 l 545 534 l 513 490 l 547 419 l 532 340 l 549 309 l 549 212 l 534 166 l 543 106 l 616 102 l 657 115 l 734 94 l 739 -10 l 673 -9 l 633 -12 l 555 5 l 481 12 l 408 -3 l 427 0 z "},"|":{"ha":961,"x_min":302,"x_max":551,"o":"m 320 0 l 326 57 l 339 153 l 311 184 l 334 278 l 322 345 l 340 416 l 307 474 l 317 522 l 395 539 l 480 538 l 531 552 l 548 473 l 548 415 l 537 332 l 549 267 l 549 180 l 537 138 l 532 49 l 539 7 l 459 11 l 404 10 l 317 -17 l 320 0 m 320 641 l 335 722 l 304 780 l 329 840 l 314 897 l 304 929 l 307 1023 l 313 1057 l 407 1050 l 452 1059 l 519 1081 l 524 1027 l 530 966 l 517 901 l 551 830 l 541 761 l 517 698 l 536 621 l 479 647 l 378 646 l 302 644 l 320 641 z "},"}":{"ha":961,"x_min":97,"x_max":758,"o":"m 106 0 l 106 126 l 167 117 l 235 102 l 327 87 l 308 170 l 302 227 l 334 296 l 339 349 l 318 412 l 304 461 l 333 542 l 418 546 l 416 625 l 314 645 l 322 701 l 329 770 l 301 851 l 323 884 l 339 979 l 237 970 l 193 970 l 105 972 l 98 1067 l 163 1082 l 247 1060 l 293 1065 l 376 1078 l 416 1087 l 415 965 l 534 948 l 521 884 l 513 844 l 533 754 l 528 692 l 522 654 l 621 625 l 685 623 l 758 648 l 741 534 l 683 519 l 606 548 l 534 532 l 515 462 l 528 399 l 515 360 l 516 307 l 523 222 l 540 155 l 548 112 l 414 125 l 409 -5 l 383 13 l 296 9 l 246 -6 l 172 -3 l 97 -20 l 106 0 z "},"~":{"ha":961,"x_min":-14,"x_max":734,"o":"m 0 854 l -8 969 l 125 962 l 106 1056 l 191 1064 l 237 1074 l 285 1068 l 367 1074 l 425 1060 l 425 957 l 522 977 l 534 1061 l 623 1054 l 696 1080 l 727 1048 l 734 947 l 635 972 l 622 846 l 584 839 l 496 838 l 450 845 l 401 848 l 317 866 l 339 954 l 198 949 l 226 848 l 129 854 l 65 868 l -14 836 l 0 854 z "},"":{"ha":961,"x_min":0,"x_max":0,"o":""},"":{"ha":961,"x_min":197,"x_max":640,"o":"m 320 0 l 328 99 l 208 91 l 207 153 l 204 234 l 231 319 l 197 376 l 213 440 l 319 408 l 321 504 l 307 567 l 334 636 l 321 694 l 333 739 l 380 745 l 448 747 l 517 730 l 517 669 l 527 609 l 551 536 l 526 499 l 535 408 l 629 422 l 626 368 l 629 302 l 625 250 l 623 178 l 640 104 l 533 103 l 538 16 l 451 1 l 377 -9 l 309 1 l 320 0 m 320 854 l 300 909 l 338 983 l 323 1054 l 406 1078 l 467 1070 l 536 1076 l 524 983 l 525 929 l 537 847 l 460 866 l 408 846 l 337 846 l 320 854 z "},"":{"ha":961,"x_min":-16,"x_max":867,"o":"m 320 0 l 326 83 l 315 154 l 322 216 l 231 205 l 180 228 l 116 224 l 114 304 l -7 323 l -13 392 l -14 469 l 14 523 l -12 576 l -10 665 l -16 724 l 20 779 l 8 840 l 109 854 l 108 955 l 166 945 l 234 980 l 306 944 l 332 1015 l 321 1118 l 304 1185 l 397 1164 l 469 1158 l 541 1165 l 535 1100 l 539 1046 l 530 968 l 596 966 l 688 959 l 743 957 l 729 854 l 867 840 l 836 758 l 782 739 l 721 741 l 623 763 l 649 860 l 583 844 l 503 863 l 452 842 l 412 863 l 338 873 l 262 870 l 201 872 l 200 779 l 208 736 l 227 662 l 227 576 l 210 522 l 212 469 l 220 405 l 196 338 l 277 303 l 353 317 l 386 313 l 445 326 l 532 313 l 564 322 l 657 307 l 656 417 l 725 424 l 765 413 l 844 430 l 852 316 l 760 335 l 741 202 l 668 208 l 589 206 l 522 220 l 548 142 l 519 75 l 526 -7 l 445 -17 l 398 16 l 318 4 l 320 0 z "},"":{"ha":961,"x_min":-9,"x_max":767,"o":"m 0 0 l -8 51 l 12 131 l -9 208 l 97 229 l 116 256 l 125 353 l 115 398 l 120 450 l 108 524 l 95 585 l 120 622 l 3 635 l 6 741 l 97 750 l 123 798 l 100 874 l 94 921 l 93 1015 l 92 1069 l 209 1069 l 213 1154 l 281 1177 l 333 1194 l 425 1179 l 467 1190 l 519 1190 l 538 1069 l 653 1072 l 656 985 l 627 943 l 653 854 l 535 840 l 515 965 l 408 972 l 409 1073 l 323 1073 l 311 1003 l 314 931 l 308 880 l 302 803 l 330 750 l 433 764 l 416 636 l 323 642 l 319 589 l 318 527 l 321 455 l 323 364 l 306 300 l 320 244 l 326 174 l 317 101 l 389 90 l 445 96 l 547 102 l 545 212 l 591 216 l 669 233 l 767 231 l 734 103 l 649 113 l 659 -10 l 583 -12 l 515 1 l 453 -9 l 395 -8 l 336 18 l 275 -12 l 178 17 l 128 -9 l 75 -13 l 3 -2 l 0 0 z "},"":{"ha":961,"x_min":-16,"x_max":762,"o":"m 534 214 l 516 257 l 549 353 l 533 392 l 533 468 l 536 511 l 532 595 l 549 634 l 450 652 l 396 659 l 361 643 l 259 646 l 226 647 l 207 574 l 214 533 l 194 469 l 202 406 l 225 347 l 194 265 l 218 228 l 292 200 l 359 231 l 420 218 l 463 233 l 519 199 l 534 214 m 0 0 l 9 94 l 102 114 l 111 198 l -16 210 l 7 266 l 17 320 l 9 410 l -14 473 l -7 530 l -1 566 l -1 637 l 93 638 l 100 733 l 18 768 l -5 865 l 73 864 l 141 846 l 204 863 l 208 763 l 277 741 l 349 765 l 411 760 l 467 764 l 525 755 l 533 857 l 585 851 l 679 872 l 762 854 l 735 762 l 648 731 l 645 630 l 745 660 l 753 595 l 762 511 l 743 451 l 734 397 l 753 355 l 750 272 l 762 216 l 623 199 l 654 126 l 745 109 l 750 -7 l 693 -2 l 612 -3 l 553 7 l 552 120 l 472 99 l 395 92 l 343 115 l 259 117 l 230 87 l 216 -1 l 149 -18 l 55 -14 l -1 -10 l 0 0 z "},"":{"ha":961,"x_min":-18,"x_max":873,"o":"m 320 0 l 332 58 l 325 136 l 319 183 l 333 258 l 328 326 l 269 308 l 197 338 l 113 318 l 44 319 l 4 339 l 20 422 l 81 417 l 119 444 l 209 425 l 255 448 l 302 420 l 319 528 l 251 540 l 197 534 l 132 522 l 83 542 l -13 543 l -18 652 l 81 629 l 129 656 l 190 648 l 241 632 l 300 647 l 317 733 l 207 767 l 218 846 l 120 863 l 119 946 l 4 975 l 1 1069 l 83 1087 l 123 1054 l 198 1048 l 195 961 l 311 964 l 302 858 l 391 838 l 469 854 l 534 871 l 530 960 l 659 972 l 636 1055 l 708 1088 l 785 1054 l 844 1065 l 835 975 l 747 964 l 732 874 l 647 852 l 645 736 l 513 754 l 545 634 l 585 628 l 646 659 l 716 652 l 785 646 l 869 642 l 834 541 l 805 549 l 712 528 l 653 518 l 587 547 l 526 550 l 528 432 l 614 410 l 644 443 l 727 438 l 791 417 l 873 428 l 841 317 l 796 310 l 716 326 l 649 326 l 614 327 l 549 311 l 550 238 l 540 186 l 538 137 l 530 83 l 536 14 l 481 3 l 372 -5 l 329 -6 l 320 0 z "},"":{"ha":961,"x_min":300,"x_max":553,"o":"m 320 0 l 340 81 l 315 127 l 338 209 l 323 263 l 334 315 l 300 385 l 334 449 l 323 519 l 406 513 l 459 522 l 545 544 l 533 487 l 528 414 l 515 330 l 528 268 l 515 220 l 538 117 l 551 71 l 543 -2 l 463 1 l 397 9 l 321 7 l 320 0 m 320 641 l 333 704 l 328 771 l 336 817 l 324 881 l 331 966 l 330 998 l 307 1058 l 382 1068 l 452 1087 l 532 1067 l 538 1000 l 522 958 l 519 871 l 531 806 l 551 745 l 553 709 l 520 653 l 460 631 l 395 643 l 313 635 l 320 641 z "},"":{"ha":961,"x_min":-11,"x_max":764,"o":"m 427 320 l 439 425 l 549 422 l 520 481 l 549 572 l 519 635 l 425 650 l 408 737 l 333 734 l 303 633 l 227 643 l 227 578 l 215 483 l 212 422 l 325 422 l 313 326 l 433 303 l 427 320 m 106 -106 l 102 -18 l -11 16 l -7 118 l 57 125 l 152 92 l 197 117 l 218 -19 l 273 5 l 350 -11 l 416 10 l 456 14 l 533 5 l 536 115 l 428 111 l 421 232 l 367 206 l 279 216 l 217 221 l 211 307 l 99 326 l 88 439 l 16 442 l 20 488 l 1 576 l -1 629 l 119 643 l 110 766 l 198 750 l 218 842 l 125 869 l 110 951 l 14 956 l 12 1079 l 96 1076 l 125 1173 l 181 1165 l 235 1179 l 326 1171 l 372 1190 l 420 1173 l 493 1172 l 555 1155 l 642 1156 l 652 1084 l 729 1051 l 739 942 l 687 969 l 588 954 l 517 950 l 519 1050 l 461 1061 l 412 1053 l 334 1081 l 297 1086 l 201 1057 l 214 977 l 328 980 l 304 847 l 378 850 l 475 844 l 537 857 l 531 737 l 639 763 l 650 652 l 764 642 l 752 553 l 747 511 l 749 416 l 647 430 l 623 304 l 517 306 l 545 210 l 638 226 l 627 120 l 749 119 l 750 16 l 629 10 l 652 -94 l 592 -96 l 488 -123 l 427 -125 l 378 -119 l 304 -111 l 250 -121 l 176 -92 l 121 -93 l 106 -106 z "},"":{"ha":961,"x_min":-7,"x_max":758,"o":"m 0 1068 l 14 1186 l 76 1163 l 159 1187 l 231 1158 l 210 1066 l 144 1081 l 59 1072 l -7 1053 l 0 1068 m 534 1068 l 526 1184 l 597 1165 l 659 1162 l 753 1194 l 758 1084 l 686 1053 l 603 1075 l 540 1052 l 534 1068 z "},"":{"ha":961,"x_min":-18,"x_max":766,"o":"m 106 0 l 126 116 l 188 90 l 222 119 l 311 117 l 365 120 l 425 109 l 491 87 l 574 119 l 638 111 l 656 16 l 559 -14 l 512 -14 l 459 5 l 393 -14 l 287 14 l 227 -18 l 182 20 l 100 0 l 106 0 m 320 214 l 338 320 l 411 327 l 464 340 l 547 317 l 544 227 l 457 216 l 410 215 l 306 206 l 320 214 m 214 320 l 199 366 l 199 450 l 202 492 l 231 575 l 202 611 l 222 668 l 197 766 l 337 751 l 301 685 l 313 637 l 310 555 l 305 496 l 311 451 l 318 374 l 314 307 l 212 319 l 214 320 m 320 747 l 306 841 l 379 861 l 465 867 l 521 844 l 527 736 l 444 749 l 410 745 l 321 732 l 320 747 m 0 106 l 20 158 l -1 220 l -7 288 l 4 363 l -18 404 l 14 458 l 12 534 l -9 612 l 0 646 l -3 705 l 9 791 l -11 838 l 16 906 l 3 947 l 123 968 l 90 901 l 120 830 l 117 777 l 104 726 l 120 639 l 117 580 l 92 523 l 97 492 l 89 392 l 120 340 l 124 301 l 100 217 l 115 187 l 115 123 l -16 116 l 0 106 m 641 106 l 633 158 l 646 246 l 653 304 l 623 361 l 624 421 l 637 455 l 637 538 l 640 613 l 644 651 l 632 721 l 622 795 l 635 854 l 650 890 l 630 941 l 763 957 l 732 887 l 742 828 l 731 760 l 746 707 l 761 667 l 745 591 l 766 525 l 734 457 l 750 425 l 739 370 l 745 281 l 739 248 l 764 156 l 728 113 l 638 102 l 641 106 m 106 961 l 119 1064 l 174 1072 l 260 1049 l 309 1060 l 379 1071 l 420 1060 l 509 1057 l 561 1085 l 646 1082 l 644 963 l 583 956 l 493 952 l 424 981 l 363 965 l 290 962 l 220 968 l 159 944 l 118 951 l 106 961 z "},"":{"ha":961,"x_min":102,"x_max":760,"o":"m 106 534 l 124 640 l 153 650 l 231 656 l 280 631 l 351 661 l 437 654 l 492 659 l 546 660 l 639 646 l 701 642 l 733 641 l 753 516 l 690 529 l 627 515 l 570 536 l 507 538 l 435 547 l 372 516 l 287 517 l 253 543 l 151 549 l 102 535 l 106 534 m 427 854 l 448 926 l 443 979 l 407 1055 l 318 1068 l 321 1013 l 336 937 l 309 841 l 415 847 l 427 854 m 214 747 l 199 869 l 103 841 l 110 936 l 114 1004 l 114 1053 l 205 1085 l 207 1177 l 291 1162 l 331 1173 l 386 1193 l 456 1191 l 511 1172 l 581 1173 l 632 1155 l 621 1099 l 634 1065 l 640 998 l 635 926 l 647 846 l 730 859 l 760 757 l 665 737 l 605 730 l 529 751 l 475 755 l 420 768 l 359 729 l 269 735 l 224 745 l 214 747 z "},"":{"ha":961,"x_min":-5,"x_max":752,"o":"m 214 214 l 220 311 l 88 309 l 123 414 l 9 426 l -5 515 l 117 550 l 90 642 l 224 644 l 195 738 l 296 762 l 363 736 l 440 766 l 447 646 l 311 632 l 334 526 l 195 552 l 208 414 l 306 423 l 330 329 l 444 312 l 431 205 l 358 212 l 304 225 l 199 203 l 214 214 m 534 214 l 522 328 l 430 330 l 432 416 l 340 446 l 326 533 l 444 541 l 446 657 l 537 623 l 526 747 l 622 737 l 684 730 l 743 729 l 752 646 l 639 631 l 660 529 l 540 520 l 524 421 l 625 446 l 652 316 l 741 311 l 749 207 l 678 224 l 599 227 l 547 219 l 534 214 z "},"":{"ha":961,"x_min":-2,"x_max":766,"o":"m 534 106 l 551 155 l 544 238 l 543 283 l 545 340 l 541 408 l 539 492 l 529 552 l 465 546 l 395 525 l 342 523 l 250 520 l 208 530 l 118 518 l 76 527 l 12 537 l -2 644 l 51 634 l 136 630 l 196 633 l 230 633 l 310 627 l 357 649 l 435 654 l 512 638 l 554 647 l 617 645 l 684 646 l 730 650 l 743 590 l 762 517 l 732 431 l 746 378 l 752 295 l 766 240 l 754 170 l 739 112 l 666 106 l 609 123 l 541 126 l 534 106 z "},"":{"ha":961,"x_min":-2,"x_max":760,"o":"m 0 427 l 0 524 l 58 546 l 142 534 l 203 536 l 262 535 l 325 551 l 356 541 l 424 543 l 485 530 l 547 522 l 603 543 l 687 541 l 731 532 l 760 417 l 692 429 l 615 408 l 553 422 l 490 416 l 416 443 l 371 420 l 313 410 l 250 432 l 178 418 l 142 422 l 47 429 l -2 443 l 0 427 z "},"":{"ha":961,"x_min":-20,"x_max":766,"o":"m 106 106 l 104 214 l 170 231 l 226 231 l 307 212 l 380 229 l 453 203 l 509 225 l 570 215 l 622 233 l 624 88 l 559 105 l 489 108 l 430 126 l 363 99 l 292 104 l 241 125 l 174 118 l 99 106 l 106 106 m 427 320 l 428 377 l 410 450 l 433 540 l 538 536 l 538 460 l 535 393 l 519 320 l 444 317 l 427 320 m 427 641 l 439 755 l 534 742 l 530 652 l 410 634 l 427 641 m 214 320 l 208 387 l 194 448 l 206 541 l 206 586 l 214 637 l 233 732 l 215 807 l 200 857 l 276 842 l 340 844 l 418 856 l 410 762 l 338 757 l 321 661 l 411 659 l 425 547 l 309 515 l 302 444 l 328 408 l 323 322 l 222 324 l 214 320 m 0 214 l -16 281 l 19 333 l -20 401 l 6 471 l -20 532 l -11 591 l 7 644 l -5 707 l -7 772 l -6 825 l -6 916 l -5 947 l 102 950 l 97 909 l 96 820 l 88 774 l 123 708 l 103 661 l 114 581 l 87 532 l 115 449 l 105 404 l 122 344 l 90 272 l 108 230 l 20 224 l 0 214 m 641 214 l 655 267 l 652 319 l 627 392 l 638 449 l 640 510 l 647 587 l 633 663 l 625 713 l 650 777 l 660 842 l 627 882 l 633 974 l 764 943 l 743 897 l 745 844 l 754 758 l 728 706 l 755 655 l 732 595 l 744 509 l 749 456 l 766 387 l 762 351 l 729 271 l 759 210 l 638 195 l 641 214 m 106 961 l 123 1051 l 188 1048 l 259 1071 l 321 1050 l 387 1061 l 451 1055 l 488 1054 l 581 1083 l 644 1053 l 627 943 l 579 943 l 517 941 l 444 959 l 355 960 l 304 971 l 243 951 l 192 975 l 124 954 l 106 961 z "},"":{"ha":961,"x_min":-7,"x_max":871,"o":"m 0 1068 l -7 1190 l 54 1182 l 140 1173 l 181 1170 l 262 1169 l 306 1177 l 359 1171 l 425 1187 l 469 1164 l 567 1174 l 591 1193 l 676 1170 l 726 1160 l 806 1175 l 871 1166 l 843 1059 l 786 1061 l 713 1078 l 677 1083 l 619 1065 l 568 1064 l 481 1064 l 434 1066 l 377 1073 l 288 1072 l 260 1083 l 174 1076 l 109 1050 l 51 1078 l 18 1049 l 0 1068 z "},"":{"ha":961,"x_min":91,"x_max":650,"o":"m 427 854 l 441 923 l 412 1009 l 416 1082 l 313 1066 l 312 999 l 313 927 l 314 843 l 424 836 l 427 854 m 214 747 l 214 852 l 106 840 l 91 920 l 92 993 l 125 1058 l 228 1084 l 227 1171 l 294 1190 l 337 1175 l 420 1165 l 466 1157 l 551 1155 l 545 1072 l 650 1057 l 631 998 l 642 945 l 631 861 l 540 850 l 533 750 l 472 736 l 396 739 l 344 753 l 292 752 l 195 767 l 214 747 z "},"":{"ha":961,"x_min":0,"x_max":872,"o":"m 0 0 l 9 122 l 56 102 l 112 98 l 198 108 l 245 98 l 298 107 l 347 112 l 429 115 l 502 106 l 536 121 l 615 117 l 662 100 l 747 115 l 812 106 l 840 109 l 872 -7 l 796 -18 l 732 -5 l 659 -1 l 606 19 l 548 -18 l 473 11 l 445 1 l 374 1 l 312 4 l 252 -3 l 201 -9 l 129 11 l 81 -2 l 3 -18 l 0 0 m 320 320 l 317 412 l 317 468 l 304 542 l 258 544 l 185 522 l 88 524 l 91 642 l 159 653 l 241 654 l 319 648 l 332 720 l 328 776 l 336 873 l 391 846 l 456 864 l 541 846 l 540 781 l 540 718 l 519 648 l 603 642 l 664 651 l 755 627 l 747 530 l 686 546 l 606 549 l 542 528 l 543 471 l 527 380 l 515 319 l 469 328 l 382 334 l 310 326 l 320 320 z "},"":{"ha":961,"x_min":-18,"x_max":554,"o":"m 0 534 l 6 625 l -18 694 l 17 764 l 116 728 l 96 875 l 210 851 l 198 964 l 324 956 l 339 1071 l 209 1074 l 214 968 l 149 951 l 84 943 l -1 967 l 3 1061 l 93 1084 l 100 1172 l 162 1158 l 227 1179 l 298 1158 l 358 1176 l 433 1180 l 410 1054 l 549 1069 l 517 964 l 443 958 l 437 869 l 318 869 l 334 749 l 212 756 l 216 650 l 265 631 l 362 629 l 423 639 l 431 729 l 529 764 l 520 679 l 515 599 l 554 526 l 471 542 l 392 517 l 347 539 l 268 537 l 191 551 l 142 535 l 64 528 l -15 549 l 0 534 z "},"":{"ha":961,"x_min":-18,"x_max":550,"o":"m 0 534 l -14 635 l 67 637 l 133 636 l 201 648 l 271 622 l 308 661 l 322 732 l 300 779 l 318 863 l 233 838 l 163 836 l 108 852 l 104 974 l 159 950 l 249 981 l 328 971 l 333 1058 l 241 1079 l 192 1053 l 111 1052 l 52 1069 l -14 1062 l -3 1190 l 73 1194 l 104 1185 l 165 1158 l 264 1168 l 322 1158 l 351 1162 l 426 1174 l 409 1084 l 521 1065 l 550 954 l 420 970 l 441 867 l 539 838 l 530 793 l 541 726 l 523 631 l 429 650 l 437 534 l 374 530 l 319 519 l 241 528 l 171 519 l 130 547 l 70 523 l -18 519 l 0 534 z "},"":{"ha":961,"x_min":199,"x_max":646,"o":"m 214 854 l 199 958 l 309 952 l 333 1068 l 441 1072 l 416 1176 l 496 1166 l 578 1165 l 621 1174 l 646 1088 l 537 1083 l 531 977 l 418 952 l 422 844 l 353 852 l 283 840 l 208 848 l 214 854 z "},"":{"ha":961,"x_min":-17,"x_max":763,"o":"m 0 -106 l -17 14 l 124 -12 l 117 46 l 115 130 l 99 168 l 96 232 l 125 326 l 104 355 l 111 434 l 101 469 l 120 530 l 96 591 l 92 668 l 102 719 l 108 798 l 109 859 l 197 842 l 253 869 l 315 857 l 332 790 l 300 705 l 332 665 l 316 583 l 326 505 l 315 449 l 326 371 l 313 336 l 397 334 l 472 338 l 530 319 l 530 389 l 545 460 l 550 522 l 529 577 l 536 656 l 520 728 l 531 790 l 550 866 l 609 846 l 694 854 l 742 851 l 733 806 l 747 727 l 741 645 l 734 592 l 737 521 l 763 467 l 751 382 l 757 315 l 639 304 l 646 227 l 574 214 l 513 230 l 444 223 l 386 214 l 309 224 l 335 139 l 322 54 l 310 -1 l 219 16 l 205 -105 l 154 -123 l 52 -122 l -16 -95 l 0 -106 z "},"":{"ha":961,"x_min":-18,"x_max":875,"o":"m 320 641 l 304 705 l 302 778 l 301 848 l 328 910 l 340 981 l 199 971 l 210 906 l 228 835 l 229 768 l 218 710 l 222 635 l 319 643 l 320 641 m 320 0 l 327 58 l 336 140 l 308 182 l 300 251 l 316 324 l 317 385 l 324 457 l 326 532 l 242 517 l 197 539 l 116 534 l 117 648 l -12 623 l -18 704 l -7 759 l -9 817 l 8 909 l -3 956 l 87 949 l 105 1076 l 183 1061 l 246 1087 l 289 1061 l 355 1065 l 430 1081 l 496 1080 l 532 1061 l 600 1048 l 667 1050 l 740 1050 l 805 1048 l 835 1077 l 857 1004 l 850 961 l 850 860 l 842 798 l 852 766 l 863 693 l 866 624 l 872 582 l 852 494 l 867 433 l 875 382 l 864 323 l 835 262 l 854 191 l 842 120 l 842 67 l 840 -18 l 791 15 l 714 13 l 640 12 l 658 49 l 631 142 l 637 199 l 631 246 l 625 338 l 649 366 l 635 456 l 633 532 l 661 593 l 626 651 l 650 725 l 652 756 l 629 842 l 635 884 l 659 976 l 516 975 l 547 886 l 551 831 l 520 758 l 522 721 l 529 648 l 537 570 l 550 522 l 521 437 l 527 386 l 538 304 l 553 254 l 529 173 l 524 109 l 530 68 l 527 -6 l 454 -16 l 390 -1 l 304 9 l 320 0 z "},"":{"ha":961,"x_min":311,"x_max":536,"o":"m 320 320 l 311 412 l 378 429 l 471 439 l 534 416 l 536 334 l 479 340 l 402 308 l 333 327 l 320 320 z "},"":{"ha":961,"x_min":106,"x_max":652,"o":"m 106 -214 l 117 -119 l 153 -92 l 237 -125 l 315 -102 l 373 -114 l 447 -96 l 447 -1 l 311 1 l 309 97 l 409 125 l 450 125 l 535 106 l 534 -16 l 645 -20 l 652 -94 l 543 -116 l 524 -209 l 472 -213 l 399 -231 l 368 -227 l 290 -203 l 230 -231 l 157 -216 l 121 -215 l 106 -214 z "},"":{"ha":961,"x_min":100,"x_max":539,"o":"m 106 534 l 118 640 l 231 624 l 228 695 l 225 768 l 201 828 l 231 883 l 219 968 l 100 953 l 120 1088 l 223 1051 l 233 1193 l 290 1156 l 346 1177 l 441 1175 l 444 1123 l 423 1053 l 447 975 l 410 890 l 422 829 l 422 764 l 422 710 l 408 638 l 530 644 l 539 548 l 460 534 l 413 543 l 353 550 l 274 536 l 241 533 l 161 538 l 104 541 l 106 534 z "},"":{"ha":961,"x_min":100,"x_max":661,"o":"m 106 534 l 104 637 l 160 660 l 251 627 l 300 650 l 374 641 l 422 635 l 511 623 l 592 644 l 649 646 l 632 524 l 557 546 l 503 534 l 446 545 l 368 524 l 288 523 l 222 523 l 173 550 l 124 531 l 106 534 m 427 854 l 408 937 l 447 983 l 422 1070 l 321 1065 l 337 989 l 334 917 l 325 837 l 422 844 l 427 854 m 214 747 l 198 867 l 110 868 l 100 920 l 101 996 l 101 1057 l 225 1059 l 202 1173 l 264 1168 l 336 1174 l 403 1161 l 458 1172 l 530 1168 l 543 1078 l 642 1073 l 640 983 l 661 920 l 659 850 l 520 845 l 534 753 l 471 752 l 401 755 l 338 764 l 266 766 l 196 730 l 214 747 z "},"":{"ha":961,"x_min":-7,"x_max":755,"o":"m 0 214 l 12 302 l 107 336 l 96 439 l 216 429 l 207 553 l 93 551 l 105 647 l 18 639 l -7 741 l 86 753 l 140 753 l 229 732 l 222 654 l 319 652 l 306 552 l 408 549 l 444 422 l 336 444 l 332 339 l 198 316 l 216 227 l 151 234 l 80 229 l -7 201 l 0 214 m 320 214 l 325 329 l 416 309 l 423 445 l 542 420 l 529 515 l 423 545 l 436 645 l 334 658 l 332 747 l 371 733 l 450 765 l 534 734 l 545 631 l 659 661 l 640 547 l 747 524 l 755 430 l 644 432 l 651 336 l 536 318 l 515 229 l 452 206 l 397 224 l 320 205 l 320 214 z "},"":{"ha":961,"x_min":-19,"x_max":765,"o":"m 534 -214 l 517 -139 l 515 -54 l 546 -8 l 469 -17 l 419 -5 l 336 -2 l 296 -11 l 199 -15 l 231 94 l 339 123 l 336 210 l 418 218 l 440 88 l 553 92 l 541 230 l 419 233 l 446 302 l 553 301 l 553 422 l 623 414 l 665 425 l 739 423 l 744 357 l 734 290 l 739 217 l 741 173 l 734 94 l 728 56 l 745 -27 l 739 -86 l 752 -161 l 760 -199 l 661 -218 l 610 -209 l 520 -231 l 534 -214 m 0 106 l -9 176 l 14 267 l 12 308 l 94 309 l 119 408 l 203 436 l 205 530 l 302 531 l 309 624 l 412 656 l 434 764 l 524 747 l 551 864 l 652 845 l 640 950 l 760 941 l 765 903 l 735 816 l 758 753 l 646 747 l 644 647 l 543 660 l 527 543 l 408 517 l 428 416 l 325 436 l 313 315 l 212 309 l 223 206 l 115 215 l 123 121 l -5 105 l 0 106 m 0 641 l 12 692 l -7 781 l 14 859 l -19 903 l -10 966 l -7 1048 l 5 1095 l 1 1184 l 89 1194 l 130 1164 l 208 1168 l 198 1107 l 221 1029 l 200 961 l 234 923 l 210 833 l 234 793 l 223 709 l 212 650 l 156 657 l 85 621 l -17 659 l 0 641 z "},"":{"ha":961,"x_min":-16,"x_max":859,"o":"m 320 -214 l 307 -91 l 413 -102 l 435 -18 l 541 16 l 537 111 l 626 90 l 640 231 l 514 205 l 541 89 l 460 92 l 408 90 l 321 90 l 334 232 l 426 220 l 438 331 l 493 339 l 568 313 l 616 326 l 677 340 l 743 313 l 751 208 l 852 212 l 838 123 l 751 96 l 751 5 l 622 -12 l 629 -90 l 705 -105 l 803 -124 l 850 -91 l 859 -215 l 803 -228 l 704 -220 l 671 -219 l 597 -222 l 509 -220 l 464 -224 l 368 -205 l 332 -216 l 320 -214 m 0 106 l 10 176 l -12 236 l 12 313 l 122 338 l 96 418 l 220 444 l 196 534 l 311 548 l 328 661 l 419 633 l 419 766 l 551 739 l 537 869 l 631 844 l 656 964 l 733 973 l 766 892 l 758 826 l 743 730 l 627 746 l 660 654 l 530 648 l 515 519 l 445 540 l 416 415 l 326 444 l 307 314 l 207 314 l 210 195 l 88 229 l 88 105 l 18 91 l 0 106 m 0 641 l -14 699 l -9 777 l -2 846 l 1 918 l 9 988 l 5 1022 l 14 1128 l -16 1172 l 56 1179 l 161 1164 l 205 1154 l 217 1112 l 201 1024 l 228 991 l 218 905 l 207 838 l 224 777 l 216 714 l 222 656 l 156 659 l 59 628 l -6 661 l 0 641 z "},"":{"ha":961,"x_min":-15,"x_max":766,"o":"m 534 -214 l 517 -125 l 533 -63 l 541 -10 l 450 13 l 398 -16 l 348 -14 l 293 -3 l 201 5 l 218 94 l 328 115 l 335 214 l 413 200 l 442 97 l 519 90 l 542 228 l 429 195 l 422 321 l 519 335 l 538 417 l 593 431 l 656 429 l 758 410 l 730 368 l 741 305 l 738 219 l 754 182 l 766 100 l 746 52 l 756 -41 l 761 -99 l 728 -130 l 762 -233 l 671 -194 l 600 -224 l 526 -196 l 534 -214 m 0 106 l 14 193 l -15 258 l -5 309 l 118 317 l 102 410 l 220 417 l 202 531 l 304 532 l 325 635 l 408 656 l 429 728 l 532 763 l 545 842 l 649 840 l 651 942 l 748 972 l 766 887 l 749 833 l 741 744 l 646 757 l 628 634 l 515 631 l 538 528 l 445 528 l 429 429 l 326 424 l 309 317 l 231 301 l 215 201 l 90 215 l 94 102 l 7 102 l 0 106 m 0 641 l -7 743 l 52 757 l 151 743 l 222 750 l 208 847 l 111 854 l 99 944 l 217 975 l 232 1051 l 140 1076 l 53 1051 l 10 1049 l -14 1160 l 57 1167 l 141 1167 l 199 1178 l 259 1166 l 319 1187 l 333 1080 l 437 1053 l 420 952 l 325 979 l 307 840 l 435 862 l 420 738 l 309 747 l 321 644 l 273 648 l 191 642 l 113 633 l 47 652 l 16 633 l 0 641 z "},"":{"ha":961,"x_min":-12,"x_max":760,"o":"m 106 0 l 89 90 l 13 94 l -7 157 l 14 245 l -8 317 l -6 355 l -12 443 l 106 445 l 124 543 l 194 526 l 212 600 l 228 690 l 195 734 l 277 728 l 364 751 l 420 751 l 447 663 l 446 610 l 411 552 l 331 553 l 310 422 l 199 441 l 227 369 l 220 311 l 227 237 l 222 159 l 228 122 l 279 115 l 332 104 l 414 109 l 477 108 l 534 117 l 523 170 l 549 254 l 529 319 l 616 318 l 694 303 l 739 321 l 754 254 l 747 180 l 760 95 l 632 125 l 623 -3 l 574 -2 l 498 20 l 428 10 l 364 -11 l 302 -13 l 243 5 l 176 -13 l 111 -20 l 106 0 m 214 854 l 220 946 l 231 1015 l 204 1048 l 290 1084 l 367 1077 l 429 1071 l 438 1016 l 435 913 l 439 854 l 376 872 l 291 835 l 196 846 l 214 854 z "},"":{"ha":961,"x_min":-14,"x_max":765,"o":"m 534 534 l 537 602 l 533 688 l 515 730 l 431 758 l 435 859 l 320 846 l 316 749 l 230 747 l 227 693 l 210 623 l 202 526 l 285 527 l 360 529 l 391 546 l 450 533 l 550 519 l 534 534 m 0 0 l -14 51 l -10 133 l -4 195 l -8 258 l 9 308 l 12 387 l -14 418 l 20 493 l 0 579 l 1 642 l 7 693 l -14 761 l 92 762 l 96 854 l 203 871 l 229 947 l 329 959 l 338 1082 l 435 1053 l 411 978 l 520 968 l 541 862 l 623 842 l 648 740 l 734 760 l 765 697 l 739 623 l 752 566 l 727 509 l 748 429 l 741 383 l 745 317 l 744 234 l 744 204 l 730 106 l 751 52 l 764 16 l 690 -5 l 606 -14 l 553 -18 l 545 64 l 527 139 l 519 195 l 545 248 l 541 290 l 517 348 l 525 448 l 460 438 l 425 426 l 333 416 l 285 440 l 218 425 l 208 372 l 222 320 l 199 258 l 202 174 l 223 122 l 202 50 l 212 -10 l 150 -3 l 86 -16 l 9 12 l 0 0 m 534 1068 l 520 1173 l 418 1181 l 429 1294 l 517 1274 l 577 1280 l 636 1272 l 643 1182 l 747 1173 l 747 1082 l 657 1068 l 587 1050 l 551 1050 l 534 1068 z "},"":{"ha":961,"x_min":-18,"x_max":767,"o":"m 534 534 l 530 593 l 538 688 l 547 732 l 412 732 l 409 854 l 332 845 l 336 752 l 220 737 l 207 684 l 207 595 l 231 551 l 268 550 l 328 528 l 397 521 l 458 545 l 534 518 l 534 534 m 0 0 l -10 71 l -13 114 l -6 190 l 5 267 l -18 297 l -9 375 l -8 440 l -7 495 l 14 572 l -14 641 l 3 684 l 10 743 l 116 739 l 93 862 l 204 850 l 229 963 l 308 956 l 309 1058 l 434 1055 l 426 966 l 528 946 l 538 845 l 644 857 l 649 755 l 747 759 l 764 696 l 767 623 l 751 557 l 765 482 l 732 426 l 759 388 l 751 327 l 751 250 l 764 173 l 754 132 l 749 81 l 730 12 l 689 -14 l 587 -2 l 527 -9 l 539 54 l 547 104 l 526 181 l 516 264 l 531 287 l 549 350 l 549 414 l 456 410 l 416 414 l 349 418 l 285 412 l 220 410 l 212 353 l 206 321 l 218 241 l 216 196 l 217 129 l 214 80 l 201 13 l 137 0 l 90 18 l -1 -9 l 0 0 m 0 1068 l -14 1176 l 117 1172 l 86 1299 l 165 1291 l 253 1284 l 313 1284 l 329 1190 l 224 1192 l 219 1078 l 140 1063 l 79 1081 l 13 1076 l 0 1068 z "},"":{"ha":961,"x_min":-18,"x_max":766,"o":"m 534 534 l 543 598 l 530 683 l 523 739 l 414 757 l 441 848 l 315 865 l 330 730 l 213 754 l 229 668 l 227 602 l 200 526 l 260 545 l 323 548 l 422 531 l 465 529 l 549 524 l 534 534 m 0 0 l 5 76 l 14 134 l -17 176 l 3 246 l 2 295 l 11 361 l -3 438 l 13 480 l -3 571 l -9 603 l -18 682 l -2 755 l 99 741 l 109 867 l 197 859 l 196 966 l 304 954 l 309 1058 l 420 1072 l 429 946 l 536 959 l 533 846 l 640 873 l 651 759 l 757 748 l 749 670 l 758 636 l 745 541 l 745 517 l 762 448 l 739 372 l 732 316 l 766 229 l 757 176 l 758 137 l 734 64 l 753 -9 l 692 -20 l 600 3 l 518 6 l 548 55 l 525 142 l 539 197 l 546 259 l 553 312 l 516 349 l 532 427 l 450 447 l 403 413 l 340 409 l 271 409 l 232 418 l 195 368 l 195 317 l 219 236 l 194 179 l 206 107 l 230 49 l 196 -3 l 146 -8 l 88 -1 l -16 9 l 0 0 m 0 1068 l -15 1194 l 125 1172 l 100 1273 l 162 1284 l 257 1265 l 309 1295 l 378 1276 l 456 1276 l 520 1289 l 589 1286 l 629 1299 l 647 1185 l 747 1162 l 733 1059 l 692 1072 l 619 1057 l 549 1080 l 536 1175 l 450 1195 l 411 1193 l 340 1167 l 295 1181 l 222 1158 l 196 1086 l 141 1087 l 65 1082 l -16 1087 l 0 1068 z "},"":{"ha":961,"x_min":-15,"x_max":765,"o":"m 534 427 l 533 481 l 527 565 l 518 649 l 448 638 l 439 746 l 311 746 l 324 648 l 209 625 l 195 584 l 231 513 l 208 409 l 265 412 l 324 412 l 394 409 l 466 427 l 521 431 l 534 427 m 0 0 l -12 83 l -15 145 l -5 185 l 16 258 l -7 332 l 18 374 l -13 442 l 12 515 l 6 568 l -5 640 l 104 632 l 106 732 l 197 764 l 221 852 l 311 872 l 304 954 l 422 970 l 422 850 l 519 869 l 545 749 l 643 761 l 644 661 l 755 652 l 736 575 l 743 519 l 758 451 l 765 383 l 749 334 l 734 265 l 749 186 l 748 123 l 730 79 l 741 17 l 682 -19 l 619 16 l 527 -6 l 529 75 l 547 116 l 545 180 l 518 238 l 514 336 l 458 307 l 426 326 l 356 307 l 262 314 l 214 324 l 229 275 l 228 175 l 201 134 l 212 73 l 205 18 l 155 18 l 73 -16 l -5 -18 l 0 0 m 0 1068 l -4 1182 l 106 1186 l 87 1267 l 182 1261 l 254 1294 l 295 1270 l 363 1263 l 420 1291 l 427 1186 l 541 1191 l 547 1274 l 606 1302 l 673 1276 l 727 1280 l 745 1184 l 622 1172 l 652 1059 l 592 1056 l 519 1052 l 454 1067 l 388 1080 l 330 1057 l 329 1171 l 222 1190 l 222 1080 l 136 1069 l 90 1079 l -3 1051 l 0 1068 z "},"":{"ha":961,"x_min":-17,"x_max":767,"o":"m 534 427 l 540 498 l 522 559 l 529 622 l 429 652 l 425 761 l 314 728 l 303 654 l 232 644 l 224 564 l 231 503 l 228 427 l 277 444 l 329 441 l 392 416 l 451 420 l 548 440 l 534 427 m 0 0 l 1 68 l -11 139 l -4 201 l 9 246 l -15 309 l -1 371 l -17 461 l 16 533 l 9 563 l 4 655 l 121 650 l 105 736 l 227 755 l 195 854 l 313 859 l 321 970 l 443 970 l 427 860 l 525 871 l 531 754 l 660 734 l 637 648 l 741 656 l 753 561 l 767 526 l 762 457 l 745 405 l 749 300 l 762 238 l 742 210 l 760 136 l 734 83 l 765 19 l 690 5 l 610 -11 l 534 -2 l 524 55 l 545 136 l 522 184 l 535 271 l 528 332 l 465 301 l 390 321 l 343 301 l 290 319 l 195 314 l 207 240 l 216 186 l 197 117 l 224 73 l 227 3 l 157 11 l 79 -16 l 12 5 l 0 0 m 0 1068 l 19 1187 l 84 1194 l 159 1174 l 208 1188 l 197 1086 l 140 1078 l 66 1069 l 1 1074 l 0 1068 m 534 1068 l 533 1182 l 604 1172 l 659 1168 l 734 1194 l 730 1061 l 675 1062 l 589 1052 l 521 1087 l 534 1068 z "},"":{"ha":961,"x_min":-18,"x_max":766,"o":"m 534 427 l 535 498 l 546 578 l 514 629 l 428 632 l 427 743 l 306 737 l 326 641 l 226 656 l 218 579 l 226 490 l 230 412 l 281 433 l 331 416 l 395 433 l 480 432 l 520 422 l 534 427 m 0 0 l 8 76 l 14 111 l -7 176 l -15 265 l -18 312 l 7 376 l 19 460 l -5 507 l 16 595 l -6 649 l 120 627 l 87 733 l 197 748 l 201 863 l 261 871 l 344 863 l 385 861 l 463 860 l 542 848 l 553 753 l 640 748 l 621 632 l 766 643 l 741 575 l 736 512 l 730 435 l 744 366 l 730 302 l 732 265 l 743 185 l 763 113 l 753 80 l 758 -5 l 684 8 l 601 17 l 529 7 l 519 60 l 523 119 l 533 210 l 522 264 l 528 332 l 483 331 l 407 309 l 351 304 l 282 334 l 227 334 l 200 250 l 205 176 l 197 136 l 206 52 l 229 10 l 130 4 l 58 3 l -5 -18 l 0 0 m 427 1068 l 438 1192 l 307 1190 l 331 1080 l 433 1059 l 427 1068 m 214 961 l 204 1052 l 115 1053 l 111 1166 l 220 1169 l 203 1284 l 292 1286 l 355 1289 l 414 1293 l 487 1289 l 546 1278 l 536 1161 l 644 1192 l 630 1068 l 545 1080 l 544 975 l 468 945 l 388 979 l 326 947 l 258 975 l 232 964 l 214 961 z "},"":{"ha":961,"x_min":-20,"x_max":762,"o":"m 427 641 l 436 711 l 418 783 l 436 850 l 422 901 l 430 958 l 304 949 l 302 862 l 233 874 l 220 783 l 205 711 l 207 648 l 277 635 l 359 659 l 433 639 l 427 641 m 0 0 l -3 71 l 16 136 l 0 178 l 19 243 l -14 297 l 15 371 l -15 433 l 4 477 l -14 530 l 8 627 l -20 675 l -6 718 l -5 789 l -10 864 l 118 842 l 106 952 l 202 964 l 220 1055 l 290 1067 l 363 1056 l 410 1055 l 490 1063 l 537 1083 l 602 1086 l 667 1069 l 727 1049 l 753 961 l 629 944 l 641 900 l 635 838 l 659 777 l 638 692 l 646 635 l 747 631 l 762 534 l 644 552 l 638 465 l 644 395 l 652 353 l 639 306 l 627 245 l 624 162 l 626 117 l 753 120 l 731 -15 l 694 -16 l 623 -6 l 564 14 l 496 1 l 431 -2 l 431 47 l 409 146 l 410 214 l 407 274 l 444 317 l 422 414 l 407 458 l 416 536 l 349 546 l 304 515 l 208 532 l 218 480 l 214 420 l 198 314 l 231 284 l 203 209 l 233 129 l 228 47 l 229 -7 l 151 4 l 55 7 l 3 7 l 0 0 z "},"":{"ha":961,"x_min":-18,"x_max":765,"o":"m 106 -214 l 100 -119 l 175 -87 l 224 -125 l 309 -106 l 340 -115 l 393 -119 l 486 -115 l 515 -98 l 518 11 l 439 8 l 418 125 l 340 123 l 273 116 l 209 90 l 196 216 l 91 212 l 111 322 l 14 323 l 10 395 l -18 441 l -1 532 l -8 575 l 16 671 l -8 702 l -1 796 l 3 863 l 88 874 l 102 943 l 202 958 l 223 1087 l 288 1079 l 342 1062 l 378 1079 l 437 1086 l 503 1048 l 562 1056 l 646 1071 l 646 962 l 742 957 l 741 881 l 731 831 l 764 757 l 627 749 l 659 842 l 545 842 l 535 971 l 470 953 l 385 971 l 322 963 l 323 851 l 212 835 l 212 801 l 233 724 l 204 653 l 201 574 l 195 536 l 229 454 l 205 380 l 224 328 l 315 304 l 326 203 l 393 216 l 451 196 l 549 200 l 552 302 l 621 337 l 624 437 l 734 427 l 753 344 l 749 267 l 751 216 l 658 212 l 640 150 l 623 85 l 630 -4 l 765 15 l 736 -123 l 645 -117 l 632 -201 l 574 -223 l 519 -197 l 449 -231 l 374 -231 l 316 -201 l 238 -224 l 185 -197 l 88 -201 l 106 -214 z "},"":{"ha":961,"x_min":-6,"x_max":766,"o":"m 0 0 l 18 116 l 100 111 l 116 153 l 98 231 l 102 298 l 121 368 l 109 408 l 87 473 l 126 558 l 102 585 l 93 651 l 111 742 l 90 791 l 90 871 l -6 846 l -6 945 l 67 966 l 131 979 l 199 973 l 265 970 l 291 966 l 375 972 l 427 970 l 513 945 l 564 941 l 638 972 l 702 978 l 747 968 l 762 895 l 766 845 l 753 756 l 750 705 l 728 629 l 640 652 l 653 731 l 526 760 l 538 853 l 446 866 l 399 850 l 319 865 l 305 802 l 305 746 l 319 646 l 321 588 l 302 543 l 419 551 l 411 629 l 515 659 l 543 585 l 535 516 l 524 466 l 517 374 l 534 329 l 413 302 l 436 437 l 335 435 l 339 364 l 334 313 l 317 251 l 317 155 l 313 109 l 374 115 l 448 111 l 528 100 l 549 213 l 638 205 l 654 334 l 728 322 l 752 243 l 730 181 l 741 142 l 740 52 l 728 6 l 683 16 l 619 -13 l 545 7 l 511 -7 l 420 18 l 366 -8 l 311 -1 l 233 -18 l 187 -13 l 106 -18 l 52 -16 l -6 12 l 0 0 m 320 1068 l 301 1166 l 217 1173 l 208 1283 l 292 1294 l 345 1271 l 408 1280 l 442 1164 l 522 1176 l 551 1085 l 445 1083 l 395 1048 l 324 1054 l 320 1068 z "},"":{"ha":961,"x_min":-20,"x_max":766,"o":"m 0 0 l 16 125 l 112 102 l 90 159 l 111 242 l 126 309 l 105 382 l 119 441 l 121 500 l 91 543 l 124 637 l 94 667 l 113 762 l 16 736 l -20 856 l 47 856 l 106 859 l 186 865 l 239 851 l 302 836 l 390 838 l 442 849 l 480 854 l 572 841 l 606 849 l 705 859 l 762 854 l 763 777 l 766 698 l 731 657 l 684 629 l 618 644 l 543 636 l 553 730 l 468 739 l 399 755 l 308 745 l 322 673 l 318 612 l 327 532 l 378 546 l 445 543 l 515 538 l 559 517 l 634 529 l 639 425 l 588 425 l 522 428 l 444 435 l 397 440 l 320 441 l 325 351 l 302 292 l 340 238 l 332 186 l 306 110 l 378 96 l 472 93 l 543 104 l 515 204 l 609 223 l 682 220 l 762 209 l 735 150 l 742 84 l 741 -5 l 690 4 l 625 -2 l 560 -3 l 518 15 l 425 -11 l 359 -8 l 318 -16 l 233 18 l 176 12 l 125 10 l 45 1 l -14 14 l 0 0 m 106 961 l 111 1086 l 224 1060 l 212 1164 l 320 1172 l 334 1289 l 380 1273 l 449 1288 l 532 1293 l 551 1168 l 445 1165 l 424 1086 l 318 1069 l 334 949 l 245 953 l 184 947 l 94 967 l 106 961 z "},"":{"ha":961,"x_min":-9,"x_max":763,"o":"m 0 0 l 12 111 l 100 106 l 89 173 l 92 218 l 86 308 l 118 352 l 93 400 l 87 468 l 94 545 l 87 589 l 108 666 l 106 739 l 104 802 l 122 859 l 7 846 l 12 947 l 46 964 l 106 951 l 170 968 l 263 945 l 330 966 l 375 960 l 422 974 l 481 955 l 548 977 l 610 951 l 694 961 l 754 975 l 763 886 l 747 823 l 732 778 l 760 718 l 741 646 l 635 644 l 657 743 l 515 736 l 538 839 l 447 836 l 385 847 l 334 873 l 311 810 l 320 711 l 305 645 l 312 598 l 306 517 l 446 544 l 423 634 l 544 644 l 524 569 l 553 504 l 535 462 l 547 401 l 549 302 l 425 320 l 423 408 l 311 411 l 329 351 l 313 280 l 321 231 l 317 183 l 306 103 l 387 105 l 463 96 l 516 113 l 544 222 l 656 198 l 640 311 l 733 335 l 759 273 l 756 181 l 753 134 l 734 55 l 763 -3 l 678 -14 l 610 11 l 574 -13 l 513 20 l 418 9 l 393 8 l 326 14 l 254 5 l 182 9 l 132 -15 l 73 -7 l -9 11 l 0 0 m 106 1068 l 102 1175 l 225 1194 l 195 1277 l 264 1275 l 338 1285 l 419 1289 l 458 1284 l 526 1270 l 539 1185 l 655 1158 l 624 1055 l 583 1069 l 479 1076 l 439 1086 l 414 1189 l 315 1168 l 311 1067 l 237 1088 l 167 1078 l 124 1056 l 106 1068 z "},"":{"ha":961,"x_min":-18,"x_max":766,"o":"m 0 0 l 11 102 l 120 117 l 123 155 l 109 218 l 126 298 l 114 375 l 104 404 l 97 481 l 113 542 l 121 604 l 111 665 l 94 711 l 100 780 l 114 869 l 13 836 l 7 979 l 78 958 l 106 975 l 170 970 l 254 963 l 303 956 l 378 943 l 433 971 l 513 955 l 557 960 l 623 962 l 673 959 l 758 977 l 766 904 l 753 846 l 756 767 l 762 692 l 749 645 l 654 656 l 650 741 l 541 758 l 515 873 l 454 844 l 384 845 l 328 853 l 328 807 l 334 714 l 332 671 l 310 604 l 328 545 l 448 529 l 431 639 l 553 626 l 545 581 l 518 530 l 536 450 l 547 397 l 551 309 l 441 320 l 414 425 l 328 445 l 306 345 l 325 306 l 338 233 l 332 176 l 318 98 l 377 91 l 477 127 l 536 115 l 551 195 l 635 207 l 625 307 l 737 318 l 728 271 l 728 174 l 762 123 l 765 62 l 760 17 l 705 -9 l 608 -9 l 564 17 l 494 16 l 419 11 l 385 -3 l 299 -1 l 253 1 l 186 -1 l 131 3 l 47 20 l 5 2 l 0 0 m 0 1068 l -18 1164 l 90 1181 l 143 1174 l 229 1177 l 223 1069 l 143 1055 l 84 1053 l 18 1058 l 0 1068 m 534 1068 l 526 1166 l 599 1174 l 675 1182 l 753 1174 l 730 1085 l 669 1069 l 614 1065 l 524 1082 l 534 1068 z "},"":{"ha":961,"x_min":204,"x_max":656,"o":"m 214 0 l 221 109 l 336 95 l 323 149 l 336 245 l 304 275 l 303 359 l 330 424 l 334 492 l 335 551 l 315 597 l 300 653 l 311 721 l 306 789 l 337 837 l 204 852 l 229 949 l 263 965 l 350 958 l 385 970 l 465 966 l 536 969 l 583 955 l 648 958 l 625 874 l 526 846 l 530 792 l 532 727 l 551 654 l 524 621 l 519 555 l 517 474 l 536 438 l 534 346 l 545 314 l 538 213 l 527 173 l 535 104 l 642 115 l 656 -15 l 561 -15 l 527 -3 l 471 19 l 399 9 l 330 -7 l 274 -6 l 208 5 l 214 0 m 320 1068 l 319 1159 l 224 1175 l 229 1279 l 281 1267 l 336 1300 l 416 1278 l 438 1169 l 525 1166 l 543 1050 l 448 1067 l 399 1073 l 331 1053 l 320 1068 z "},"":{"ha":961,"x_min":194,"x_max":651,"o":"m 214 0 l 194 120 l 322 119 l 321 150 l 333 248 l 332 288 l 309 371 l 309 408 l 312 478 l 325 527 l 340 607 l 302 680 l 336 716 l 323 779 l 313 838 l 212 859 l 199 970 l 277 953 l 349 967 l 397 951 l 458 958 l 517 958 l 595 950 l 621 942 l 651 869 l 543 869 l 537 791 l 527 717 l 524 679 l 548 589 l 543 527 l 542 469 l 538 438 l 553 346 l 543 302 l 518 235 l 520 160 l 549 94 l 621 108 l 627 -14 l 593 12 l 524 -14 l 447 2 l 378 -18 l 317 20 l 293 -18 l 222 -4 l 214 0 m 320 1068 l 323 1173 l 436 1173 l 412 1282 l 485 1294 l 574 1289 l 635 1265 l 640 1167 l 522 1183 l 520 1058 l 460 1048 l 398 1076 l 317 1048 l 320 1068 z "},"":{"ha":961,"x_min":99,"x_max":766,"o":"m 214 0 l 201 96 l 328 90 l 315 151 l 300 245 l 336 294 l 328 342 l 333 420 l 309 485 l 329 537 l 317 618 l 330 648 l 312 732 l 302 773 l 309 863 l 201 862 l 231 941 l 266 965 l 332 970 l 400 966 l 462 949 l 535 968 l 583 961 l 659 960 l 635 865 l 544 859 l 534 806 l 523 718 l 529 679 l 527 602 l 538 545 l 538 467 l 546 423 l 529 345 l 522 313 l 519 211 l 543 154 l 531 105 l 628 97 l 638 -18 l 571 10 l 519 3 l 454 17 l 394 -2 l 351 -20 l 260 -2 l 225 -1 l 214 0 m 106 1068 l 99 1182 l 210 1187 l 197 1274 l 290 1277 l 339 1266 l 414 1270 l 471 1282 l 504 1289 l 568 1293 l 659 1262 l 636 1178 l 764 1166 l 766 1088 l 673 1078 l 586 1063 l 545 1087 l 547 1176 l 458 1171 l 393 1165 l 339 1187 l 321 1068 l 229 1084 l 196 1071 l 119 1063 l 106 1068 z "},"":{"ha":961,"x_min":106,"x_max":744,"o":"m 214 0 l 203 114 l 326 122 l 309 151 l 315 231 l 316 302 l 300 353 l 307 418 l 315 493 l 323 548 l 325 596 l 313 671 l 334 731 l 323 787 l 304 859 l 203 859 l 208 955 l 277 963 l 351 964 l 396 965 l 442 965 l 515 946 l 595 958 l 631 957 l 625 844 l 519 857 l 525 774 l 541 709 l 538 659 l 529 608 l 536 547 l 537 490 l 545 401 l 520 366 l 535 284 l 515 212 l 517 189 l 539 104 l 643 123 l 639 10 l 572 16 l 498 1 l 473 -7 l 389 -7 l 324 -14 l 280 7 l 197 -16 l 214 0 m 106 1068 l 106 1162 l 188 1169 l 235 1171 l 328 1194 l 318 1056 l 235 1066 l 189 1069 l 120 1052 l 106 1068 m 534 1068 l 534 1171 l 589 1187 l 688 1171 l 732 1180 l 744 1072 l 668 1077 l 587 1080 l 536 1055 l 534 1068 z "},"":{"ha":961,"x_min":-16,"x_max":764,"o":"m 427 106 l 446 211 l 547 212 l 538 264 l 543 348 l 541 395 l 548 460 l 537 549 l 545 578 l 542 654 l 531 725 l 519 803 l 515 848 l 440 871 l 422 975 l 315 974 l 311 911 l 321 853 l 310 751 l 326 702 l 313 627 l 418 636 l 429 553 l 333 538 l 332 477 l 333 418 l 338 358 l 326 306 l 340 240 l 332 173 l 328 123 l 422 94 l 427 106 m 0 0 l 9 87 l 96 112 l 92 154 l 105 218 l 104 281 l 98 330 l 102 420 l 97 477 l 108 545 l -12 543 l -16 651 l 87 642 l 108 692 l 95 758 l 96 837 l 123 881 l 113 963 l 7 949 l -7 1059 l 56 1058 l 125 1075 l 195 1075 l 260 1083 l 343 1061 l 416 1059 l 475 1088 l 519 1061 l 551 949 l 643 968 l 637 848 l 764 838 l 758 783 l 734 711 l 728 673 l 745 589 l 735 548 l 745 487 l 751 389 l 729 333 l 732 292 l 730 225 l 650 197 l 626 105 l 520 92 l 521 -11 l 459 8 l 389 18 l 347 -6 l 271 -3 l 215 1 l 151 -5 l 71 20 l 5 0 l 0 0 z "},"":{"ha":961,"x_min":-20,"x_max":766,"o":"m 0 0 l 7 47 l -20 118 l -9 174 l 5 272 l -14 331 l 14 392 l -1 433 l 16 527 l -7 568 l 5 625 l -20 694 l 4 786 l -2 845 l 18 890 l 8 955 l 90 974 l 155 969 l 215 956 l 200 847 l 310 838 l 319 766 l 443 761 l 434 646 l 528 635 l 530 692 l 522 787 l 524 846 l 517 881 l 532 946 l 606 949 l 690 951 l 758 947 l 755 882 l 753 844 l 755 779 l 729 717 l 755 652 l 751 566 l 749 526 l 752 450 l 730 391 l 766 309 l 747 256 l 736 185 l 734 116 l 742 64 l 743 5 l 686 9 l 609 7 l 520 16 l 548 48 l 528 119 l 525 191 l 520 259 l 514 320 l 445 339 l 422 411 l 324 411 l 330 528 l 214 547 l 208 479 l 196 385 l 222 319 l 224 272 l 206 214 l 222 139 l 220 80 l 224 12 l 135 -3 l 72 19 l 18 -16 l 0 0 m 0 1068 l 16 1165 l 119 1157 l 111 1269 l 153 1267 l 243 1294 l 292 1298 l 380 1276 l 414 1263 l 408 1190 l 521 1164 l 542 1272 l 591 1300 l 663 1278 l 742 1268 l 741 1192 l 633 1183 l 633 1084 l 576 1061 l 505 1067 l 447 1057 l 397 1059 l 337 1074 l 302 1192 l 205 1165 l 195 1065 l 123 1077 l 62 1067 l -3 1057 l 0 1068 z "},"":{"ha":961,"x_min":-17,"x_max":765,"o":"m 534 106 l 545 157 l 535 229 l 520 287 l 553 341 l 526 408 l 515 488 l 542 535 l 516 612 l 522 658 l 534 724 l 526 811 l 534 851 l 472 836 l 395 842 l 338 849 l 281 874 l 195 836 l 213 777 l 203 732 l 194 679 l 205 608 l 217 532 l 222 483 l 233 407 l 212 361 l 195 292 l 210 251 l 205 178 l 220 108 l 288 119 l 356 104 l 416 100 l 477 119 l 529 96 l 534 106 m 106 0 l 112 99 l -3 115 l 20 151 l 14 216 l 16 289 l -5 345 l -2 405 l 17 482 l 11 561 l -10 591 l 4 667 l 20 742 l -16 797 l -17 871 l 117 844 l 123 979 l 161 971 l 229 968 l 299 973 l 394 971 l 448 958 l 504 968 l 568 964 l 625 957 l 646 841 l 764 842 l 730 791 l 765 734 l 745 656 l 760 589 l 748 562 l 741 484 l 749 414 l 749 337 l 749 307 l 760 235 l 740 176 l 740 98 l 645 105 l 626 17 l 593 -4 l 522 -16 l 456 18 l 358 12 l 287 18 l 226 16 l 178 2 l 102 7 l 106 0 m 320 1068 l 302 1162 l 213 1190 l 202 1262 l 286 1272 l 365 1286 l 421 1276 l 444 1167 l 514 1161 l 539 1080 l 472 1077 l 382 1058 l 322 1053 l 320 1068 z "},"":{"ha":961,"x_min":-20,"x_max":762,"o":"m 534 106 l 538 186 l 528 250 l 548 292 l 530 370 l 551 418 l 520 495 l 518 530 l 513 611 l 539 687 l 545 747 l 526 795 l 526 850 l 456 871 l 394 859 l 348 861 l 290 853 l 231 863 l 224 796 l 210 713 l 202 684 l 199 589 l 226 538 l 208 463 l 215 425 l 219 340 l 230 297 l 197 232 l 199 189 l 231 115 l 297 124 l 353 101 l 386 122 l 465 96 l 540 119 l 534 106 m 106 0 l 116 112 l -14 121 l -3 155 l 3 228 l -8 284 l 20 355 l -20 421 l -17 488 l 13 540 l -16 604 l -18 671 l 11 732 l 6 789 l 12 858 l 92 869 l 102 949 l 174 955 l 224 971 l 299 949 l 383 968 l 445 955 l 519 954 l 589 960 l 648 947 l 633 850 l 741 857 l 745 784 l 740 748 l 751 680 l 739 622 l 736 536 l 743 464 l 756 409 l 749 373 l 731 285 l 750 229 l 736 178 l 762 115 l 623 96 l 624 4 l 584 -1 l 511 -16 l 454 -20 l 370 -9 l 292 -3 l 229 -4 l 170 13 l 87 -5 l 106 0 m 214 1068 l 220 1172 l 314 1185 l 336 1292 l 385 1291 l 457 1291 l 541 1268 l 525 1185 l 438 1168 l 428 1074 l 338 1052 l 292 1062 l 229 1063 l 214 1068 z "},"":{"ha":961,"x_min":-19,"x_max":766,"o":"m 534 106 l 520 152 l 547 240 l 523 308 l 545 364 l 549 427 l 516 496 l 535 538 l 530 592 l 534 673 l 522 730 l 553 783 l 520 845 l 463 862 l 405 863 l 331 846 l 281 861 l 227 853 l 227 801 l 194 728 l 199 660 l 201 623 l 222 524 l 222 477 l 199 400 l 212 359 l 232 296 l 207 230 l 225 188 l 198 102 l 262 98 l 345 96 l 401 99 l 471 94 l 536 100 l 534 106 m 106 0 l 122 125 l 4 91 l 9 180 l 12 214 l 14 290 l 16 349 l -9 425 l -19 479 l -5 540 l -14 612 l -12 665 l 14 721 l -1 772 l -13 837 l 125 865 l 119 971 l 183 948 l 248 968 l 323 975 l 370 945 l 425 958 l 494 966 l 566 973 l 661 958 l 656 860 l 761 847 l 730 789 l 766 723 l 751 680 l 765 601 l 734 549 l 766 471 l 736 410 l 728 345 l 742 302 l 734 224 l 750 184 l 741 94 l 627 123 l 659 12 l 571 -20 l 503 -3 l 443 9 l 368 -10 l 297 -9 l 245 -6 l 167 -16 l 121 -7 l 106 0 m 106 1068 l 120 1192 l 201 1180 l 197 1294 l 267 1266 l 360 1284 l 425 1299 l 479 1292 l 537 1266 l 527 1187 l 641 1163 l 652 1082 l 567 1086 l 506 1064 l 417 1077 l 410 1172 l 338 1176 l 332 1050 l 262 1066 l 172 1065 l 96 1087 l 106 1068 z "},"":{"ha":961,"x_min":-20,"x_max":767,"o":"m 534 106 l 547 176 l 536 229 l 524 274 l 515 339 l 545 430 l 545 482 l 518 562 l 519 608 l 546 673 l 547 745 l 519 802 l 519 861 l 454 838 l 410 869 l 346 868 l 275 859 l 216 873 l 218 810 l 199 722 l 196 670 l 218 587 l 231 560 l 201 475 l 231 412 l 207 370 l 212 309 l 222 214 l 233 175 l 217 121 l 267 115 l 350 94 l 407 119 l 458 101 l 544 100 l 534 106 m 106 0 l 93 90 l 16 107 l 2 152 l 5 234 l -20 278 l 13 365 l 12 409 l -11 480 l -14 538 l -4 608 l 13 671 l -3 730 l 9 793 l 12 861 l 117 850 l 111 947 l 168 975 l 231 945 l 290 974 l 381 952 l 451 949 l 500 950 l 574 963 l 631 942 l 626 857 l 767 860 l 733 808 l 766 728 l 728 680 l 728 594 l 760 557 l 759 486 l 729 431 l 748 364 l 745 298 l 760 234 l 766 172 l 749 112 l 641 116 l 650 3 l 578 -7 l 519 -9 l 450 12 l 378 -7 l 296 16 l 241 14 l 189 -18 l 86 3 l 106 0 m 0 1068 l 12 1164 l 106 1183 l 113 1270 l 186 1284 l 230 1263 l 280 1294 l 369 1273 l 439 1292 l 439 1169 l 532 1154 l 533 1293 l 593 1285 l 669 1285 l 736 1262 l 736 1180 l 659 1177 l 641 1058 l 578 1080 l 516 1078 l 456 1051 l 368 1061 l 338 1079 l 323 1158 l 222 1194 l 203 1059 l 125 1070 l 56 1075 l 5 1064 l 0 1068 z "},"":{"ha":961,"x_min":-19,"x_max":761,"o":"m 534 106 l 532 171 l 532 223 l 547 301 l 528 363 l 526 433 l 536 490 l 545 552 l 518 608 l 533 650 l 551 740 l 543 790 l 543 841 l 477 857 l 397 866 l 328 863 l 288 856 l 201 850 l 199 792 l 214 736 l 233 680 l 220 587 l 234 541 l 218 467 l 197 404 l 200 368 l 199 277 l 205 251 l 199 151 l 205 108 l 272 115 l 354 110 l 405 104 l 459 109 l 545 108 l 534 106 m 106 0 l 121 106 l 7 104 l -10 174 l 12 212 l -9 290 l 1 360 l -19 437 l -6 473 l -12 557 l -11 621 l -7 670 l 20 729 l -14 785 l 11 843 l 113 854 l 99 962 l 163 959 l 229 968 l 291 955 l 373 972 l 448 951 l 503 955 l 566 977 l 653 943 l 632 854 l 743 861 l 747 806 l 744 728 l 728 666 l 753 610 l 760 541 l 739 488 l 761 407 l 748 350 l 747 309 l 730 213 l 751 182 l 754 104 l 638 123 l 631 -14 l 556 14 l 527 -20 l 449 -2 l 372 -16 l 287 13 l 222 -18 l 166 8 l 116 -3 l 106 0 m 0 1068 l 2 1192 l 69 1190 l 122 1185 l 197 1172 l 213 1077 l 139 1076 l 59 1052 l -19 1072 l 0 1068 m 534 1068 l 547 1163 l 602 1162 l 662 1171 l 744 1158 l 749 1076 l 659 1074 l 587 1061 l 523 1059 l 534 1068 z "},"":{"ha":961,"x_min":-16,"x_max":764,"o":"m 0 106 l -16 196 l 124 210 l 104 320 l 219 327 l 219 409 l 220 460 l 219 537 l 125 534 l 116 633 l -14 627 l -7 755 l 57 736 l 153 759 l 225 728 l 201 635 l 336 621 l 340 536 l 446 540 l 446 638 l 527 644 l 518 762 l 606 758 l 658 741 l 746 735 l 753 631 l 646 641 l 659 515 l 515 530 l 540 450 l 525 396 l 522 329 l 636 318 l 641 224 l 746 196 l 764 121 l 669 96 l 616 100 l 519 100 l 516 202 l 424 197 l 415 322 l 315 318 l 305 204 l 195 225 l 231 104 l 151 105 l 86 97 l 14 112 l 0 106 z "},"":{"ha":961,"x_min":-16,"x_max":763,"o":"m 320 320 l 328 375 l 321 451 l 302 522 l 313 578 l 309 625 l 325 689 l 321 729 l 417 760 l 443 673 l 444 642 l 414 584 l 428 509 l 412 438 l 416 372 l 413 329 l 300 330 l 320 320 m 534 106 l 529 171 l 519 228 l 527 313 l 534 372 l 551 408 l 520 489 l 539 554 l 552 602 l 551 680 l 547 747 l 433 756 l 428 812 l 429 886 l 409 956 l 351 970 l 268 945 l 201 971 l 211 890 l 233 833 l 220 764 l 194 720 l 234 648 l 227 562 l 195 526 l 206 431 l 222 378 l 214 338 l 321 321 l 310 236 l 315 188 l 305 121 l 405 96 l 465 88 l 534 115 l 534 106 m 106 -106 l 107 -22 l 126 35 l 106 109 l -5 111 l 12 170 l -1 216 l 15 281 l -12 345 l 16 393 l 3 490 l -16 549 l 1 579 l -9 659 l 3 728 l 5 787 l 0 827 l 12 907 l -6 974 l 90 974 l 108 1055 l 171 1053 l 245 1061 l 275 1072 l 369 1053 l 401 1057 l 463 1064 l 545 1087 l 544 1185 l 660 1164 l 627 1105 l 635 1036 l 645 947 l 762 969 l 730 895 l 743 857 l 761 760 l 747 703 l 743 661 l 747 614 l 753 543 l 741 481 l 754 393 l 754 349 l 743 296 l 753 214 l 763 165 l 749 117 l 621 111 l 626 3 l 600 -8 l 524 3 l 461 2 l 378 15 l 338 6 l 256 12 l 194 -17 l 199 -104 l 104 -86 l 106 -106 z "},"":{"ha":961,"x_min":-16,"x_max":766,"o":"m 106 0 l 86 113 l 12 104 l 20 164 l 8 236 l 6 304 l 19 338 l -11 425 l 3 487 l 19 543 l -13 600 l -16 652 l 2 700 l 9 792 l 13 846 l 19 909 l 9 968 l 81 955 l 136 956 l 194 949 l 234 899 l 195 853 l 224 768 l 199 732 l 221 655 l 204 611 l 193 550 l 227 487 l 197 424 l 204 342 l 227 295 l 210 215 l 203 171 l 222 114 l 277 105 l 361 104 l 416 98 l 481 90 l 540 117 l 513 150 l 547 239 l 521 308 l 534 355 l 539 395 l 528 484 l 518 543 l 549 607 l 526 661 l 521 712 l 529 766 l 540 829 l 532 882 l 530 969 l 614 957 l 656 956 l 743 968 l 766 899 l 733 825 l 732 787 l 734 737 l 732 645 l 748 581 l 761 539 l 759 487 l 741 429 l 732 367 l 740 271 l 737 244 l 729 165 l 749 126 l 628 102 l 622 14 l 581 1 l 503 -14 l 437 14 l 372 -7 l 315 -3 l 242 20 l 174 -11 l 98 -4 l 106 0 m 320 1068 l 300 1162 l 196 1161 l 194 1289 l 286 1285 l 343 1278 l 434 1279 l 431 1184 l 515 1179 l 551 1087 l 480 1050 l 405 1053 l 330 1078 l 320 1068 z "},"":{"ha":961,"x_min":-20,"x_max":762,"o":"m 106 0 l 121 122 l -20 86 l 17 164 l 2 242 l 20 281 l -17 361 l -9 424 l 5 485 l 16 542 l -8 606 l 5 637 l 8 736 l -4 758 l 1 833 l 20 902 l 1 975 l 89 950 l 142 958 l 230 964 l 213 902 l 220 842 l 228 795 l 220 721 l 204 638 l 224 594 l 212 530 l 224 474 l 221 424 l 199 333 l 224 307 l 212 234 l 221 149 l 227 96 l 275 123 l 342 121 l 402 122 l 484 105 l 547 94 l 546 186 l 529 240 l 553 275 l 549 337 l 533 399 l 549 488 l 548 539 l 553 577 l 549 659 l 525 728 l 553 793 l 553 837 l 541 919 l 548 943 l 586 964 l 667 964 l 741 958 l 737 892 l 735 827 l 734 769 l 740 718 l 745 672 l 755 592 l 740 534 l 762 464 l 756 405 l 738 340 l 728 290 l 747 221 l 753 157 l 732 114 l 627 108 l 657 -14 l 568 15 l 512 -5 l 447 -4 l 387 14 l 323 -3 l 234 -9 l 180 -5 l 92 -11 l 106 0 m 214 1068 l 220 1191 l 308 1177 l 315 1297 l 372 1301 l 477 1280 l 538 1291 l 526 1189 l 416 1156 l 428 1073 l 376 1065 l 282 1070 l 216 1087 l 214 1068 z "},"":{"ha":961,"x_min":-20,"x_max":765,"o":"m 106 0 l 125 127 l -16 94 l 9 153 l -4 233 l -20 292 l 10 343 l 1 425 l -6 479 l 19 540 l 1 604 l -7 666 l -18 720 l 14 783 l 3 836 l -3 887 l -13 960 l 79 981 l 151 954 l 232 971 l 210 891 l 195 832 l 213 759 l 222 699 l 218 665 l 216 604 l 208 513 l 214 487 l 198 429 l 220 364 l 199 289 l 205 214 l 205 171 l 208 116 l 277 86 l 346 109 l 423 115 l 460 92 l 531 104 l 517 170 l 551 218 l 539 285 l 522 366 l 517 400 l 523 490 l 539 519 l 516 612 l 535 665 l 538 701 l 536 776 l 524 846 l 544 891 l 545 943 l 602 972 l 665 959 l 745 973 l 750 914 l 743 833 l 755 796 l 765 708 l 736 676 l 755 585 l 734 522 l 743 476 l 760 415 l 735 340 l 744 269 l 734 211 l 759 151 l 752 87 l 659 90 l 639 8 l 582 17 l 503 -13 l 457 16 l 384 15 l 323 -7 l 222 18 l 189 18 l 120 11 l 106 0 m 106 1068 l 112 1162 l 211 1162 l 227 1291 l 276 1280 l 355 1275 l 393 1280 l 461 1284 l 534 1282 l 538 1173 l 637 1169 l 644 1072 l 552 1059 l 488 1075 l 415 1077 l 410 1191 l 330 1187 l 334 1077 l 256 1055 l 195 1082 l 87 1065 l 106 1068 z "},"":{"ha":961,"x_min":-17,"x_max":766,"o":"m 106 0 l 120 120 l 12 113 l -3 155 l 13 245 l 1 273 l -1 342 l 13 394 l -16 456 l -17 532 l 16 579 l -9 637 l 6 718 l -9 786 l 5 821 l 9 895 l 20 955 l 80 957 l 134 942 l 197 962 l 209 920 l 228 823 l 195 769 l 211 715 l 231 654 l 210 609 l 202 534 l 210 470 l 233 403 l 224 340 l 208 294 l 220 234 l 207 186 l 211 105 l 296 125 l 342 96 l 423 96 l 486 109 l 541 106 l 539 152 l 529 241 l 522 291 l 533 339 l 554 404 l 547 482 l 519 519 l 516 593 l 545 635 l 544 715 l 554 762 l 521 846 l 532 884 l 514 965 l 585 981 l 668 943 l 736 962 l 730 882 l 747 858 l 740 776 l 732 701 l 734 676 l 739 610 l 742 521 l 752 454 l 758 409 l 745 332 l 758 285 l 740 213 l 766 161 l 753 115 l 627 86 l 643 -7 l 570 -3 l 498 -12 l 445 -7 l 366 -7 l 315 3 l 228 1 l 157 -10 l 98 0 l 106 0 m 0 1068 l 5 1190 l 83 1182 l 153 1160 l 228 1173 l 230 1056 l 132 1074 l 79 1057 l -3 1061 l 0 1068 m 534 1068 l 534 1182 l 612 1194 l 678 1190 l 757 1185 l 765 1065 l 687 1082 l 599 1049 l 530 1057 l 534 1068 z "},"":{"ha":961,"x_min":-20,"x_max":869,"o":"m 214 0 l 210 92 l 307 90 l 318 183 l 319 222 l 327 281 l 309 347 l 329 415 l 310 472 l 316 549 l 224 540 l 218 661 l 86 629 l 91 760 l -19 739 l 2 825 l -16 867 l -20 922 l 9 1023 l -1 1070 l 56 1059 l 161 1053 l 201 1058 l 203 1016 l 231 956 l 225 876 l 222 802 l 213 749 l 311 756 l 313 641 l 410 658 l 458 653 l 517 654 l 554 760 l 642 755 l 648 827 l 628 890 l 631 945 l 644 985 l 644 1068 l 730 1082 l 770 1068 l 861 1069 l 844 996 l 846 939 l 850 881 l 861 810 l 869 730 l 749 735 l 760 623 l 655 631 l 630 538 l 539 547 l 542 460 l 514 406 l 529 340 l 524 299 l 550 216 l 547 178 l 520 121 l 631 119 l 659 10 l 567 -7 l 505 4 l 448 18 l 402 12 l 350 -5 l 279 -7 l 234 -16 l 214 0 m 320 1068 l 315 1176 l 410 1172 l 427 1282 l 492 1268 l 550 1272 l 637 1262 l 654 1186 l 553 1164 l 529 1080 l 469 1068 l 405 1061 l 318 1076 l 320 1068 z "},"":{"ha":961,"x_min":-9,"x_max":768,"o":"m 534 320 l 531 379 l 546 437 l 534 505 l 526 574 l 516 637 l 530 671 l 519 751 l 454 762 l 387 762 l 330 764 l 305 688 l 328 621 l 336 548 l 308 513 l 329 424 l 338 371 l 339 334 l 411 308 l 479 326 l 517 301 l 534 320 m 0 0 l -7 109 l 113 125 l 116 180 l 111 237 l 113 292 l 87 363 l 95 413 l 98 455 l 104 532 l 87 591 l 122 656 l 90 721 l 118 767 l 114 841 l 94 920 l 106 953 l 1 971 l 1 1053 l 41 1061 l 121 1080 l 174 1057 l 251 1074 l 304 1088 l 349 1058 l 437 1050 l 419 961 l 329 952 l 331 870 l 371 844 l 439 863 l 526 866 l 561 839 l 652 866 l 651 746 l 768 736 l 747 677 l 743 616 l 767 547 l 753 487 l 767 424 l 741 377 l 740 327 l 656 338 l 634 208 l 566 231 l 496 220 l 458 200 l 368 200 l 300 210 l 302 106 l 447 105 l 439 3 l 349 -3 l 300 -6 l 254 18 l 180 10 l 125 1 l 53 -9 l -9 18 l 0 0 z "},"":{"ha":961,"x_min":-20,"x_max":763,"o":"m 0 0 l 11 64 l 15 139 l 4 211 l 20 243 l -14 313 l 17 398 l -10 442 l 2 531 l -15 562 l -20 655 l -10 703 l 20 771 l -6 844 l 0 910 l 3 951 l 92 964 l 106 1083 l 177 1073 l 215 1086 l 271 1079 l 351 1070 l 392 1074 l 458 1082 l 536 1067 l 542 968 l 654 945 l 623 916 l 660 844 l 630 777 l 661 687 l 640 633 l 554 626 l 534 522 l 630 543 l 632 427 l 751 439 l 763 345 l 748 311 l 750 232 l 732 182 l 738 87 l 652 94 l 633 -14 l 570 -2 l 483 -8 l 436 -2 l 421 113 l 538 116 l 529 170 l 539 246 l 532 288 l 538 382 l 537 413 l 427 437 l 424 524 l 328 530 l 304 626 l 408 639 l 427 722 l 437 760 l 429 831 l 410 901 l 432 954 l 336 960 l 269 969 l 231 977 l 201 892 l 207 814 l 210 761 l 224 695 l 219 624 l 233 594 l 196 500 l 212 456 l 199 398 l 195 335 l 216 245 l 207 192 l 221 144 l 217 56 l 206 -16 l 157 -1 l 54 13 l -7 -1 l 0 0 z "},"":{"ha":961,"x_min":-16,"x_max":762,"o":"m 106 0 l 116 94 l 16 110 l -16 165 l 18 245 l -1 298 l 11 347 l 14 412 l 90 437 l 119 547 l 168 537 l 215 538 l 317 519 l 347 517 l 409 534 l 435 625 l 357 654 l 295 642 l 229 634 l 185 629 l 121 628 l 96 746 l 162 737 l 216 755 l 304 742 l 349 752 l 399 755 l 456 743 l 553 755 l 519 627 l 653 631 l 647 574 l 645 506 l 654 434 l 629 375 l 655 299 l 631 239 l 652 183 l 642 94 l 762 87 l 751 -19 l 661 -15 l 589 -20 l 532 14 l 550 114 l 430 87 l 418 168 l 433 247 l 422 306 l 447 370 l 427 431 l 342 411 l 264 439 l 234 410 l 203 355 l 213 294 l 225 255 l 194 153 l 218 96 l 291 94 l 342 116 l 413 106 l 422 -15 l 354 2 l 295 5 l 226 14 l 187 -4 l 119 6 l 106 0 m 320 854 l 307 946 l 210 957 l 206 1064 l 118 1069 l 98 1171 l 195 1164 l 258 1168 l 310 1167 l 321 1060 l 411 1073 l 439 977 l 528 979 l 537 853 l 473 843 l 409 841 l 338 861 l 320 854 z "},"":{"ha":961,"x_min":-20,"x_max":760,"o":"m 106 0 l 92 105 l -20 118 l -7 180 l -1 216 l -15 292 l -18 369 l -3 441 l 122 438 l 126 547 l 158 535 l 254 538 l 301 547 l 349 520 l 446 529 l 444 643 l 370 642 l 304 648 l 229 641 l 178 657 l 100 624 l 116 757 l 157 745 l 224 751 l 277 757 l 367 751 l 421 749 l 460 755 l 542 753 l 538 647 l 657 623 l 656 579 l 627 497 l 643 441 l 641 389 l 640 326 l 627 237 l 650 172 l 653 124 l 728 119 l 760 -17 l 690 14 l 608 -14 l 533 12 l 538 109 l 438 117 l 416 157 l 435 248 l 430 300 l 413 368 l 410 429 l 362 420 l 296 430 l 193 419 l 218 366 l 219 285 l 214 228 l 220 178 l 196 125 l 291 90 l 338 102 l 435 94 l 408 9 l 344 -18 l 286 9 l 252 5 l 157 -15 l 123 16 l 106 0 m 106 854 l 87 967 l 227 978 l 194 1048 l 309 1078 l 300 1181 l 393 1160 l 447 1185 l 526 1160 l 553 1072 l 435 1071 l 447 978 l 310 964 l 308 867 l 258 875 l 176 857 l 117 869 l 106 854 z "},"":{"ha":961,"x_min":-17,"x_max":762,"o":"m 106 0 l 118 104 l 5 123 l 20 151 l 3 217 l -17 313 l 18 351 l -14 426 l 120 444 l 97 526 l 170 532 l 226 518 l 302 517 l 381 531 l 430 518 l 414 652 l 361 659 l 319 637 l 225 652 l 189 640 l 99 660 l 107 745 l 169 753 l 214 736 l 284 757 l 364 736 l 427 741 l 478 760 l 514 753 l 542 659 l 655 632 l 621 555 l 621 494 l 645 446 l 649 389 l 659 308 l 653 250 l 627 174 l 634 97 l 751 96 l 762 -4 l 683 14 l 591 -1 l 525 8 l 525 117 l 441 97 l 415 178 l 416 240 l 419 279 l 431 378 l 420 431 l 353 422 l 272 412 l 228 444 l 219 371 l 214 317 l 196 218 l 224 161 l 223 95 l 266 110 l 374 101 l 438 88 l 428 -1 l 369 -19 l 317 -5 l 254 1 l 181 -18 l 104 -1 l 106 0 m 106 854 l 102 949 l 214 944 l 233 1068 l 317 1085 l 317 1169 l 412 1160 l 423 1074 l 521 1066 l 527 970 l 655 963 l 622 860 l 572 871 l 490 854 l 439 862 l 442 958 l 324 954 l 307 854 l 231 839 l 167 841 l 105 868 l 106 854 z "},"":{"ha":961,"x_min":-14,"x_max":766,"o":"m 106 0 l 97 96 l 14 125 l -12 186 l 3 231 l 1 303 l 2 373 l -11 410 l 120 410 l 109 519 l 155 517 l 249 543 l 279 541 l 382 550 l 426 545 l 427 623 l 353 646 l 304 624 l 214 649 l 168 658 l 111 653 l 104 730 l 161 734 l 243 754 l 303 744 l 359 741 l 394 730 l 459 762 l 526 743 l 517 652 l 649 641 l 628 572 l 657 498 l 637 449 l 650 359 l 648 311 l 627 221 l 650 181 l 650 92 l 766 91 l 747 -16 l 673 5 l 616 8 l 535 9 l 541 105 l 430 119 l 439 165 l 447 237 l 412 279 l 414 356 l 412 431 l 371 436 l 292 436 l 227 422 l 202 363 l 229 281 l 204 231 l 205 188 l 210 114 l 265 126 l 368 92 l 418 93 l 439 -18 l 378 -3 l 283 -14 l 229 2 l 169 -16 l 92 19 l 106 0 m 0 854 l -14 966 l 125 960 l 104 1082 l 160 1050 l 219 1077 l 300 1069 l 349 1061 l 443 1061 l 444 969 l 546 956 l 545 1048 l 588 1053 l 681 1057 l 733 1064 l 763 955 l 659 980 l 623 861 l 564 864 l 530 848 l 464 858 l 386 861 l 312 840 l 310 968 l 223 953 l 227 861 l 146 850 l 87 845 l -14 854 l 0 854 z "},"":{"ha":961,"x_min":-20,"x_max":760,"o":"m 106 0 l 123 121 l 1 98 l 7 177 l -20 224 l -3 315 l -10 355 l -6 446 l 87 446 l 111 550 l 168 552 l 254 529 l 296 529 l 374 541 l 438 538 l 417 642 l 379 635 l 312 658 l 224 623 l 155 621 l 99 627 l 121 750 l 177 758 l 223 732 l 273 745 l 366 743 l 414 745 l 477 758 l 519 764 l 538 642 l 635 650 l 622 559 l 637 506 l 647 433 l 654 392 l 640 290 l 629 222 l 637 155 l 621 87 l 754 90 l 760 -10 l 673 -13 l 590 3 l 534 12 l 524 94 l 436 95 l 409 189 l 426 218 l 409 296 l 419 351 l 432 432 l 341 413 l 272 414 l 223 444 l 202 364 l 233 307 l 203 232 l 231 168 l 207 115 l 304 90 l 357 102 l 446 120 l 423 13 l 374 -16 l 298 10 l 220 15 l 178 -17 l 105 -12 l 106 0 m 0 961 l -14 1074 l 90 1080 l 132 1088 l 195 1064 l 218 981 l 144 964 l 57 964 l -2 979 l 0 961 m 427 961 l 444 1071 l 511 1076 l 578 1063 l 629 1067 l 648 978 l 554 971 l 515 975 l 441 974 l 427 961 z "},"":{"ha":961,"x_min":-5,"x_max":766,"o":"m 106 0 l 95 106 l 12 111 l 12 176 l 5 230 l 3 311 l 17 345 l -5 422 l 99 420 l 114 544 l 156 520 l 218 551 l 283 522 l 375 524 l 435 532 l 445 650 l 373 632 l 311 648 l 233 635 l 166 622 l 111 639 l 124 753 l 161 750 l 230 751 l 271 760 l 348 761 l 412 763 l 468 741 l 546 764 l 528 661 l 654 649 l 630 594 l 645 509 l 644 422 l 649 361 l 630 294 l 652 222 l 655 163 l 644 125 l 766 98 l 730 7 l 695 5 l 621 3 l 523 12 l 539 123 l 414 99 l 412 168 l 408 229 l 444 285 l 430 357 l 439 424 l 352 427 l 267 421 l 223 416 l 228 352 l 225 311 l 233 247 l 210 183 l 227 92 l 269 121 l 336 92 l 418 97 l 429 7 l 355 16 l 288 -5 l 255 -9 l 174 1 l 115 12 l 106 0 m 427 961 l 420 1053 l 312 1051 l 301 960 l 443 978 l 427 961 m 214 854 l 205 972 l 92 942 l 104 1075 l 201 1072 l 208 1163 l 297 1187 l 352 1183 l 419 1158 l 453 1158 l 530 1169 l 528 1055 l 652 1058 l 643 971 l 535 951 l 532 836 l 488 868 l 408 867 l 356 867 l 271 848 l 214 850 l 214 854 z "},"":{"ha":961,"x_min":-16,"x_max":871,"o":"m 320 106 l 305 173 l 339 263 l 334 334 l 202 333 l 197 264 l 218 162 l 195 92 l 339 107 l 320 106 m 641 427 l 648 493 l 648 551 l 622 634 l 530 626 l 529 583 l 534 500 l 538 428 l 653 410 l 641 427 m 106 0 l 120 110 l -16 92 l -3 184 l 12 245 l 15 337 l 115 336 l 88 422 l 176 431 l 260 437 l 313 435 l 306 514 l 216 548 l 211 633 l 101 646 l 125 757 l 184 762 l 268 743 l 325 743 l 330 654 l 433 642 l 410 730 l 476 767 l 546 766 l 606 766 l 695 736 l 737 742 l 758 654 l 848 636 l 849 568 l 871 488 l 859 435 l 743 425 l 731 301 l 694 308 l 604 308 l 544 313 l 528 230 l 640 218 l 629 93 l 728 104 l 798 123 l 858 90 l 848 8 l 794 1 l 742 -13 l 682 3 l 589 -12 l 519 12 l 546 102 l 440 87 l 441 12 l 373 -7 l 297 2 l 243 14 l 185 -3 l 90 -10 l 106 0 z "},"":{"ha":961,"x_min":87,"x_max":764,"o":"m 214 -106 l 195 1 l 286 13 l 359 9 l 422 1 l 479 17 l 539 7 l 524 98 l 439 103 l 435 194 l 349 206 l 292 222 l 199 212 l 199 335 l 89 330 l 117 372 l 89 425 l 106 499 l 99 561 l 87 609 l 111 667 l 111 762 l 203 747 l 205 837 l 256 840 l 332 838 l 405 848 l 447 848 l 505 875 l 566 848 l 623 840 l 659 747 l 764 766 l 741 645 l 669 647 l 613 631 l 550 621 l 530 761 l 462 764 l 401 762 l 315 737 l 326 688 l 324 621 l 315 549 l 335 513 l 313 426 l 318 399 l 302 338 l 389 315 l 475 332 l 514 308 l 537 437 l 612 446 l 692 418 l 737 434 l 746 306 l 661 315 l 625 260 l 656 178 l 640 113 l 729 119 l 748 20 l 634 13 l 629 -100 l 572 -119 l 504 -112 l 473 -102 l 409 -117 l 340 -97 l 291 -111 l 224 -106 l 214 -106 z "},"":{"ha":961,"x_min":-20,"x_max":764,"o":"m 534 534 l 548 642 l 487 646 l 407 623 l 349 652 l 274 651 l 207 652 l 216 530 l 259 530 l 322 547 l 425 541 l 471 524 l 541 530 l 534 534 m 106 0 l 86 111 l -11 109 l -5 189 l 1 258 l 14 318 l -20 372 l 7 427 l -1 492 l 5 568 l -18 644 l 101 642 l 95 739 l 182 761 l 243 747 l 300 733 l 375 766 l 437 763 l 519 731 l 562 736 l 633 749 l 656 654 l 760 652 l 742 574 l 764 494 l 731 429 l 677 429 l 629 410 l 559 441 l 460 414 l 398 439 l 359 421 l 292 430 l 223 417 l 208 360 l 208 301 l 199 240 l 231 182 l 222 121 l 274 107 l 325 100 l 397 111 l 463 107 l 517 108 l 551 214 l 591 213 l 671 195 l 740 227 l 731 104 l 630 87 l 651 -20 l 585 3 l 503 2 l 441 16 l 389 -3 l 315 6 l 228 4 l 163 16 l 108 5 l 106 0 m 320 854 l 338 979 l 198 959 l 231 1074 l 121 1053 l 97 1162 l 172 1181 l 258 1182 l 323 1185 l 321 1077 l 433 1069 l 437 962 l 522 964 l 517 855 l 477 865 l 391 835 l 321 854 l 320 854 z "},"":{"ha":961,"x_min":-16,"x_max":766,"o":"m 534 534 l 534 622 l 454 657 l 411 644 l 358 636 l 259 650 l 226 633 l 213 549 l 267 550 l 346 516 l 418 540 l 454 524 l 532 545 l 534 534 m 106 0 l 109 94 l 15 97 l -14 180 l 3 222 l 13 296 l 18 390 l -16 439 l 5 508 l -16 570 l 16 630 l 102 637 l 123 734 l 158 741 l 223 766 l 317 759 l 357 728 l 421 745 l 503 747 l 589 758 l 652 757 l 661 645 l 766 637 l 759 572 l 764 504 l 764 438 l 675 419 l 627 416 l 548 433 l 467 444 l 431 422 l 340 448 l 275 431 l 213 434 l 226 374 l 222 290 l 232 228 l 199 184 l 222 101 l 278 100 l 338 98 l 425 90 l 463 96 l 542 104 l 548 227 l 620 226 l 658 222 l 728 231 l 743 96 l 660 126 l 654 -11 l 571 -1 l 517 -19 l 437 -9 l 359 1 l 317 -5 l 244 -5 l 188 -9 l 89 7 l 106 0 m 214 854 l 213 955 l 316 968 l 317 1078 l 427 1079 l 427 1184 l 518 1157 l 571 1159 l 636 1194 l 629 1073 l 536 1067 l 553 980 l 422 964 l 427 853 l 363 845 l 268 870 l 202 842 l 214 854 z "},"":{"ha":961,"x_min":-16,"x_max":759,"o":"m 534 534 l 519 634 l 469 638 l 387 623 l 344 627 l 258 652 l 224 647 l 204 531 l 288 515 l 353 524 l 409 542 l 453 537 l 548 517 l 534 534 m 106 0 l 94 107 l 7 115 l -9 158 l 5 228 l -14 287 l -15 389 l 16 451 l 14 505 l -6 574 l -16 658 l 96 661 l 105 739 l 170 730 l 252 730 l 326 746 l 367 754 l 457 750 l 503 761 l 555 762 l 642 731 l 644 624 l 738 625 l 739 570 l 734 480 l 759 433 l 670 416 l 621 427 l 540 431 l 499 441 l 431 427 l 363 431 l 292 433 l 201 443 l 208 352 l 196 305 l 206 220 l 193 169 l 214 113 l 278 111 l 352 102 l 392 124 l 454 101 l 541 98 l 530 217 l 614 214 l 679 199 l 734 219 l 748 101 l 627 121 l 661 13 l 555 7 l 517 -1 l 441 -13 l 365 1 l 323 -17 l 260 10 l 186 -5 l 104 -1 l 106 0 m 106 854 l 105 958 l 199 980 l 218 1059 l 339 1076 l 307 1190 l 411 1157 l 425 1088 l 528 1048 l 541 971 l 654 948 l 651 853 l 581 873 l 509 855 l 430 845 l 434 943 l 332 946 l 313 855 l 234 844 l 196 850 l 97 842 l 106 854 z "},"":{"ha":961,"x_min":-20,"x_max":762,"o":"m 534 534 l 524 631 l 465 656 l 392 661 l 339 644 l 288 636 l 229 632 l 229 541 l 258 546 l 345 522 l 406 515 l 454 526 l 532 527 l 534 534 m 106 0 l 106 124 l -7 119 l 9 163 l -7 224 l 12 304 l 0 386 l -19 450 l 16 515 l -20 584 l -1 647 l 111 634 l 117 734 l 180 732 l 223 730 l 293 747 l 374 745 l 431 753 l 525 730 l 570 749 l 653 738 l 631 647 l 762 654 l 738 558 l 736 517 l 740 433 l 678 410 l 600 410 l 548 433 l 482 440 l 427 417 l 336 417 l 294 418 l 233 418 l 213 354 l 231 316 l 199 254 l 197 184 l 199 119 l 282 111 l 349 100 l 405 108 l 488 97 l 524 118 l 541 202 l 612 217 l 680 210 l 741 205 l 732 87 l 621 92 l 650 2 l 589 -5 l 510 16 l 453 4 l 368 -1 l 301 -11 l 232 -9 l 170 2 l 102 13 l 106 0 m 0 961 l -11 1065 l 64 1057 l 144 1061 l 214 1056 l 197 963 l 152 952 l 82 948 l 10 980 l 0 961 m 534 961 l 524 1084 l 588 1053 l 694 1054 l 756 1069 l 740 964 l 692 964 l 585 960 l 534 951 l 534 961 z "},"":{"ha":961,"x_min":96,"x_max":652,"o":"m 214 0 l 229 91 l 313 105 l 330 177 l 337 232 l 322 289 l 337 357 l 326 420 l 336 507 l 329 585 l 319 626 l 195 637 l 227 747 l 291 737 l 326 744 l 395 756 l 460 728 l 538 734 l 530 669 l 547 625 l 536 543 l 526 472 l 541 440 l 518 378 l 544 279 l 526 229 l 526 183 l 541 123 l 637 121 l 652 -18 l 572 -2 l 499 -5 l 474 -3 l 385 -17 l 316 14 l 270 -7 l 208 -7 l 214 0 m 320 854 l 319 975 l 225 955 l 220 1078 l 96 1060 l 117 1161 l 194 1174 l 249 1190 l 327 1156 l 323 1086 l 433 1076 l 423 951 l 553 969 l 521 851 l 457 859 l 374 843 l 323 836 l 320 854 z "},"":{"ha":961,"x_min":208,"x_max":647,"o":"m 214 0 l 226 87 l 332 121 l 333 159 l 323 221 l 307 323 l 317 387 l 307 426 l 337 498 l 306 555 l 303 645 l 210 648 l 208 768 l 275 766 l 340 759 l 408 747 l 479 750 l 531 737 l 515 665 l 519 612 l 522 568 l 526 487 l 545 407 l 527 354 l 548 311 l 553 237 l 528 190 l 518 117 l 625 100 l 638 5 l 566 -11 l 520 19 l 463 -18 l 382 -5 l 341 16 l 262 -14 l 229 -14 l 214 0 m 214 854 l 209 968 l 326 960 l 330 1065 l 423 1077 l 408 1192 l 517 1158 l 574 1162 l 647 1183 l 629 1068 l 554 1055 l 544 948 l 420 964 l 413 848 l 356 869 l 289 843 l 219 853 l 214 854 z "},"":{"ha":961,"x_min":106,"x_max":761,"o":"m 214 0 l 201 123 l 319 95 l 305 171 l 332 221 l 336 317 l 308 378 l 301 435 l 326 526 l 312 587 l 314 629 l 232 633 l 202 730 l 269 742 l 334 762 l 386 755 l 480 728 l 514 743 l 536 684 l 525 632 l 536 560 l 537 500 l 519 429 l 535 355 l 513 313 l 545 254 l 528 167 l 551 92 l 659 104 l 656 9 l 582 -17 l 502 -3 l 473 -16 l 406 3 l 353 -14 l 254 7 l 211 -6 l 214 0 m 106 854 l 116 972 l 220 958 l 205 1075 l 300 1050 l 310 1177 l 410 1162 l 464 1161 l 532 1171 l 546 1084 l 637 1057 l 643 980 l 761 972 l 754 838 l 671 844 l 590 868 l 535 872 l 532 977 l 456 943 l 395 975 l 307 947 l 333 842 l 262 851 l 182 854 l 123 862 l 106 854 z "},"":{"ha":961,"x_min":106,"x_max":748,"o":"m 214 0 l 210 105 l 340 101 l 306 172 l 333 223 l 330 317 l 320 368 l 322 450 l 307 527 l 315 566 l 326 651 l 218 652 l 204 752 l 265 759 l 342 740 l 386 766 l 484 762 l 540 736 l 515 703 l 539 629 l 523 575 l 529 490 l 541 424 l 519 364 l 515 281 l 543 229 l 545 158 l 541 94 l 636 121 l 642 -5 l 568 3 l 528 19 l 439 -4 l 416 -15 l 322 19 l 288 -9 l 227 -7 l 214 0 m 106 961 l 109 1063 l 161 1082 l 263 1087 l 340 1073 l 309 963 l 257 960 l 163 954 l 121 947 l 106 961 m 534 961 l 538 1051 l 585 1059 l 682 1073 l 748 1077 l 742 951 l 686 965 l 606 949 l 536 975 l 534 961 z "},"":{"ha":961,"x_min":87,"x_max":766,"o":"m 534 106 l 544 175 l 541 222 l 540 289 l 524 370 l 517 414 l 520 456 l 524 522 l 458 543 l 397 525 l 330 548 l 330 480 l 325 397 l 314 363 l 337 294 l 326 222 l 331 154 l 340 120 l 377 92 l 465 92 l 526 104 l 534 106 m 214 747 l 199 844 l 330 871 l 320 745 l 227 754 l 214 747 m 214 0 l 210 104 l 127 94 l 90 171 l 125 242 l 125 279 l 112 332 l 87 397 l 125 489 l 121 528 l 194 546 l 216 649 l 292 625 l 348 642 l 414 633 l 458 631 l 531 621 l 525 735 l 415 752 l 436 848 l 318 873 l 332 945 l 218 960 l 219 1076 l 265 1069 l 351 1048 l 429 1061 l 436 964 l 514 945 l 534 857 l 629 872 l 657 754 l 753 753 l 730 678 l 748 630 l 753 565 l 738 492 l 766 410 l 739 374 l 745 310 l 729 229 l 736 176 l 760 90 l 627 117 l 623 -3 l 562 5 l 503 18 l 477 -12 l 387 -2 l 323 16 l 290 11 l 195 -15 l 214 0 m 534 961 l 548 1066 l 623 1050 l 622 954 l 529 973 l 534 961 z "},"":{"ha":961,"x_min":-19,"x_max":764,"o":"m 106 0 l 104 73 l 108 119 l 113 208 l 126 237 l 109 336 l 95 372 l 91 464 l 86 499 l 99 562 l 109 658 l -18 625 l -19 749 l 90 751 l 135 729 l 227 760 l 214 654 l 336 654 l 340 562 l 329 530 l 314 458 l 319 376 l 317 335 l 325 262 l 319 189 l 305 121 l 323 71 l 322 9 l 260 8 l 183 6 l 103 -10 l 106 0 m 534 0 l 535 58 l 550 134 l 530 200 l 545 259 l 530 336 l 531 399 l 551 444 l 540 508 l 549 579 l 553 642 l 455 644 l 382 644 l 328 658 l 318 764 l 370 741 l 452 728 l 524 749 l 581 750 l 628 743 l 648 623 l 764 648 l 745 561 l 741 522 l 743 456 l 764 382 l 730 330 l 758 251 l 732 181 l 747 125 l 740 53 l 732 -14 l 680 12 l 625 -8 l 543 7 l 534 0 m 0 854 l 12 972 l 124 951 l 95 1081 l 178 1080 l 233 1081 l 307 1081 l 363 1063 l 425 1083 l 433 942 l 522 956 l 549 1061 l 610 1059 l 671 1072 l 758 1059 l 739 941 l 638 968 l 621 863 l 572 874 l 494 838 l 442 873 l 377 839 l 304 836 l 309 979 l 223 962 l 210 868 l 123 869 l 71 843 l 7 850 l 0 854 z "},"":{"ha":961,"x_min":-18,"x_max":758,"o":"m 534 106 l 516 193 l 550 231 l 542 302 l 551 391 l 552 456 l 527 496 l 551 585 l 546 629 l 456 657 l 416 649 l 338 625 l 283 654 l 226 660 l 224 587 l 222 487 l 227 441 l 220 380 l 209 315 l 231 245 l 208 171 l 233 123 l 284 90 l 331 105 l 401 121 l 473 103 l 522 101 l 534 106 m 106 0 l 96 98 l 15 112 l 14 173 l 20 235 l 11 289 l -5 368 l 13 451 l -18 516 l 1 567 l 20 656 l 117 635 l 118 762 l 153 736 l 238 762 l 304 760 l 381 758 l 445 734 l 494 746 l 586 743 l 657 764 l 648 625 l 757 625 l 750 569 l 744 511 l 758 437 l 732 377 l 736 313 l 751 220 l 734 175 l 743 120 l 655 90 l 654 7 l 563 -20 l 502 -1 l 431 2 l 361 20 l 294 -7 l 233 12 l 159 -1 l 101 10 l 106 0 m 320 854 l 332 954 l 194 962 l 217 1052 l 111 1052 l 99 1165 l 185 1156 l 237 1163 l 336 1160 l 321 1063 l 417 1065 l 410 973 l 517 950 l 546 846 l 467 873 l 378 836 l 316 866 l 320 854 z "},"":{"ha":961,"x_min":-19,"x_max":763,"o":"m 534 106 l 530 187 l 515 233 l 528 326 l 545 390 l 552 446 l 545 505 l 524 555 l 537 635 l 484 631 l 413 655 l 338 653 l 271 640 l 231 659 l 195 590 l 211 518 l 215 438 l 207 359 l 214 299 l 205 238 l 219 165 l 205 102 l 263 109 l 359 99 l 395 111 l 456 89 l 534 120 l 534 106 m 106 0 l 114 94 l -9 116 l 5 182 l -14 240 l -19 304 l -7 378 l 18 454 l 16 504 l 0 577 l -10 636 l 98 642 l 99 755 l 174 756 l 245 743 l 299 751 l 381 733 l 444 747 l 513 732 l 587 741 l 641 741 l 637 648 l 762 635 l 747 593 l 749 498 l 739 433 l 734 368 l 758 312 l 763 250 l 749 186 l 732 101 l 658 90 l 626 -9 l 557 -16 l 522 19 l 427 -19 l 379 5 l 295 18 l 249 16 l 191 16 l 125 -16 l 106 0 m 106 854 l 97 964 l 217 965 l 205 1069 l 317 1057 l 332 1158 l 395 1165 l 457 1160 l 547 1164 l 533 1063 l 439 1076 l 412 956 l 307 951 l 316 863 l 231 859 l 161 855 l 111 869 l 106 854 z "},"":{"ha":961,"x_min":-19,"x_max":755,"o":"m 534 106 l 529 157 l 517 246 l 522 308 l 536 367 l 530 456 l 531 490 l 547 586 l 545 655 l 461 641 l 420 659 l 360 637 l 288 652 l 203 634 l 216 594 l 214 487 l 195 424 l 226 377 l 229 295 l 218 234 l 231 193 l 225 109 l 281 123 l 330 106 l 387 106 l 464 113 l 553 104 l 534 106 m 106 0 l 113 107 l -19 102 l -11 154 l -2 250 l 1 288 l 12 356 l 20 446 l 6 491 l -1 558 l -10 648 l 109 631 l 109 767 l 165 728 l 245 735 l 319 764 l 380 734 l 420 747 l 517 764 l 562 764 l 637 755 l 630 645 l 745 646 l 755 583 l 754 501 l 745 433 l 736 377 l 754 290 l 739 250 l 749 181 l 754 115 l 660 93 l 657 -14 l 579 5 l 511 14 l 428 -16 l 384 14 l 309 -12 l 245 -5 l 191 -9 l 115 -16 l 106 0 m 106 854 l 125 978 l 216 963 l 208 1050 l 314 1079 l 312 1160 l 420 1171 l 430 1060 l 523 1075 l 549 960 l 633 957 l 646 857 l 559 849 l 486 862 l 446 854 l 410 966 l 302 967 l 315 844 l 232 837 l 161 838 l 119 865 l 106 854 z "},"":{"ha":961,"x_min":-17,"x_max":758,"o":"m 534 106 l 538 170 l 542 233 l 536 290 l 544 357 l 548 425 l 545 501 l 517 557 l 523 642 l 473 633 l 391 653 l 347 660 l 281 642 l 219 661 l 218 564 l 223 487 l 203 446 l 206 393 l 195 292 l 199 228 l 195 193 l 215 125 l 288 94 l 345 106 l 409 119 l 488 115 l 549 121 l 534 106 m 106 0 l 109 104 l 5 98 l 3 168 l 18 258 l -8 308 l 11 371 l -17 448 l 1 493 l 14 562 l -10 621 l 111 657 l 90 728 l 163 746 l 247 761 l 302 727 l 389 760 l 458 729 l 490 758 l 587 762 l 659 751 l 627 632 l 730 634 l 740 589 l 745 504 l 746 445 l 728 357 l 749 293 l 755 248 l 752 177 l 744 101 l 648 113 l 659 -1 l 564 11 l 503 14 l 450 -1 l 377 -7 l 324 14 l 233 7 l 161 -14 l 88 3 l 106 0 m 0 854 l -16 972 l 109 949 l 112 1064 l 172 1072 l 233 1063 l 290 1062 l 357 1070 l 442 1063 l 416 957 l 535 969 l 532 1070 l 615 1083 l 677 1072 l 738 1048 l 758 967 l 648 978 l 623 835 l 581 856 l 530 862 l 447 869 l 397 841 l 311 869 l 334 981 l 214 966 l 227 864 l 162 856 l 90 869 l -3 863 l 0 854 z "},"":{"ha":961,"x_min":-18,"x_max":765,"o":"m 534 106 l 520 192 l 518 259 l 541 322 l 542 372 l 515 442 l 530 503 l 524 574 l 535 629 l 451 633 l 421 628 l 334 647 l 285 621 l 207 637 l 224 585 l 231 511 l 217 456 l 205 359 l 220 302 l 216 249 l 212 183 l 231 104 l 288 99 l 330 116 l 415 90 l 479 87 l 520 113 l 534 106 m 106 0 l 113 113 l -7 127 l -7 193 l -2 258 l 16 300 l -9 359 l 7 433 l -9 497 l 9 573 l -4 626 l 125 651 l 126 764 l 161 753 l 224 749 l 318 743 l 382 762 l 444 749 l 500 755 l 581 765 l 625 760 l 627 622 l 749 658 l 743 577 l 755 515 l 737 456 l 765 374 l 749 302 l 764 259 l 743 191 l 758 98 l 636 104 l 645 1 l 578 -13 l 515 14 l 438 5 l 369 -10 l 317 -16 l 240 -12 l 181 15 l 102 20 l 106 0 m 0 961 l -18 1049 l 73 1067 l 144 1054 l 233 1066 l 225 970 l 152 971 l 91 947 l 0 962 l 0 961 m 534 961 l 514 1085 l 600 1084 l 659 1063 l 743 1059 l 748 956 l 666 972 l 594 945 l 523 965 l 534 961 z "},"":{"ha":961,"x_min":90,"x_max":749,"o":"m 320 106 l 330 176 l 330 241 l 338 333 l 373 320 l 444 319 l 523 338 l 528 241 l 536 192 l 548 106 l 459 123 l 381 99 l 333 90 l 320 106 m 106 427 l 91 515 l 189 552 l 250 515 l 305 519 l 377 519 l 410 549 l 473 514 l 559 527 l 629 518 l 679 536 l 747 540 l 749 436 l 701 408 l 634 431 l 572 431 l 507 408 l 444 435 l 375 438 l 309 424 l 241 421 l 172 422 l 90 437 l 106 427 m 320 641 l 322 703 l 323 780 l 307 874 l 388 872 l 471 869 l 538 852 l 551 766 l 545 708 l 529 627 l 456 644 l 378 636 l 300 656 l 320 641 z "},"":{"ha":961,"x_min":-18,"x_max":767,"o":"m 534 106 l 529 183 l 542 220 l 549 315 l 529 349 l 524 410 l 428 420 l 423 331 l 321 303 l 323 213 l 216 214 l 202 110 l 270 100 l 326 125 l 405 104 l 481 107 l 546 113 l 534 106 m 320 427 l 317 542 l 441 538 l 431 657 l 360 660 l 281 652 l 212 652 l 205 575 l 195 506 l 233 446 l 328 432 l 320 427 m 106 0 l 125 123 l 3 90 l 18 184 l -18 235 l 2 323 l -1 357 l 16 443 l 5 526 l -8 591 l -4 649 l 102 645 l 125 754 l 173 730 l 227 728 l 289 755 l 389 748 l 427 760 l 518 728 l 593 741 l 639 744 l 661 654 l 742 654 l 732 581 l 734 512 l 741 458 l 747 376 l 767 317 l 732 222 l 744 156 l 739 91 l 631 123 l 636 -12 l 575 -2 l 490 -13 l 444 -8 l 374 6 l 303 17 l 251 -16 l 179 -10 l 90 -18 l 106 0 z "},"":{"ha":961,"x_min":-13,"x_max":755,"o":"m 106 0 l 121 98 l 2 101 l -12 163 l 4 220 l -8 317 l 10 366 l -10 441 l -13 503 l 4 551 l 12 608 l -5 669 l 5 742 l 88 736 l 125 766 l 206 746 l 216 665 l 224 631 l 208 561 l 205 482 l 216 418 l 198 361 l 232 306 l 195 237 l 220 174 l 222 113 l 269 104 l 351 101 l 437 87 l 423 -12 l 371 20 l 289 -7 l 224 -4 l 181 4 l 115 1 l 106 0 m 534 0 l 550 106 l 434 86 l 432 182 l 418 230 l 445 279 l 439 380 l 444 431 l 422 506 l 437 545 l 421 606 l 427 692 l 409 746 l 515 760 l 564 732 l 633 740 l 638 696 l 655 632 l 627 574 l 635 490 l 629 418 l 639 349 l 622 299 l 624 216 l 659 154 l 660 90 l 743 111 l 755 -20 l 680 -9 l 623 9 l 540 -4 l 534 0 m 320 854 l 329 979 l 208 981 l 204 1084 l 119 1050 l 115 1175 l 166 1179 l 247 1185 l 317 1155 l 336 1053 l 412 1066 l 442 942 l 530 950 l 519 867 l 477 837 l 385 870 l 318 857 l 320 854 z "},"":{"ha":961,"x_min":-20,"x_max":753,"o":"m 106 0 l 126 121 l -6 94 l 4 165 l 17 221 l 9 290 l 13 355 l -20 429 l 0 486 l 10 556 l -6 634 l 0 668 l -1 730 l 87 733 l 138 728 l 209 764 l 215 665 l 231 635 l 208 543 l 215 502 l 205 427 l 207 364 l 216 317 l 216 220 l 208 175 l 230 95 l 267 125 l 343 100 l 414 103 l 436 2 l 370 -16 l 302 -5 l 224 1 l 159 -9 l 98 -4 l 106 0 m 534 0 l 516 105 l 418 101 l 416 170 l 407 245 l 439 280 l 431 382 l 420 431 l 433 471 l 429 557 l 432 623 l 414 700 l 421 759 l 508 759 l 568 760 l 627 751 l 626 701 l 638 633 l 651 542 l 653 501 l 652 431 l 646 372 l 635 311 l 652 237 l 648 188 l 642 109 l 745 92 l 753 0 l 658 -7 l 625 0 l 538 11 l 534 0 m 106 854 l 125 977 l 230 962 l 202 1052 l 306 1072 l 314 1166 l 391 1155 l 456 1173 l 526 1180 l 547 1059 l 433 1059 l 418 942 l 334 972 l 309 836 l 245 859 l 186 867 l 112 858 l 106 854 z "},"":{"ha":961,"x_min":-17,"x_max":750,"o":"m 106 0 l 109 111 l 5 111 l -11 165 l -3 227 l 14 301 l 13 351 l -3 429 l 7 477 l 14 551 l -17 610 l -9 686 l 1 739 l 84 754 l 125 731 l 216 764 l 232 682 l 221 623 l 208 544 l 217 500 l 194 420 l 199 357 l 213 319 l 222 220 l 200 159 l 231 125 l 288 120 l 346 114 l 437 117 l 412 15 l 377 -20 l 298 16 l 239 15 l 185 -18 l 95 -18 l 106 0 m 534 0 l 541 92 l 446 115 l 439 186 l 415 252 l 417 288 l 410 374 l 446 424 l 438 492 l 418 566 l 417 610 l 433 687 l 424 734 l 507 760 l 555 741 l 635 755 l 634 686 l 627 616 l 654 561 l 627 503 l 651 412 l 639 377 l 627 280 l 647 241 l 632 170 l 646 92 l 742 94 l 750 -14 l 679 -17 l 614 1 l 538 5 l 534 0 m 0 854 l -9 962 l 121 968 l 125 1063 l 218 1071 l 209 1160 l 301 1173 l 374 1188 l 439 1164 l 425 1084 l 546 1074 l 551 941 l 659 979 l 661 846 l 554 869 l 492 869 l 430 858 l 426 942 l 376 947 l 280 966 l 233 942 l 209 847 l 142 848 l 77 872 l 13 871 l 0 854 z "},"":{"ha":961,"x_min":-20,"x_max":758,"o":"m 106 0 l 111 120 l -19 104 l -20 172 l -7 223 l 8 286 l 16 357 l 5 431 l -13 482 l 2 538 l 18 611 l 16 696 l -18 756 l 87 736 l 138 766 l 225 762 l 218 689 l 199 620 l 222 540 l 197 498 l 211 437 l 205 356 l 226 318 l 231 227 l 197 187 l 232 125 l 304 92 l 348 102 l 427 106 l 422 -18 l 361 -17 l 313 -12 l 220 -12 l 186 -2 l 111 -1 l 106 0 m 534 0 l 536 104 l 435 105 l 414 180 l 435 250 l 442 302 l 427 376 l 441 421 l 422 482 l 435 565 l 427 615 l 411 684 l 432 732 l 502 745 l 583 748 l 637 748 l 643 702 l 626 625 l 622 555 l 640 500 l 644 439 l 635 376 l 626 299 l 631 229 l 640 154 l 637 94 l 758 111 l 732 7 l 690 -11 l 587 19 l 539 7 l 534 0 m 0 961 l -18 1088 l 64 1078 l 155 1050 l 233 1053 l 199 944 l 136 949 l 76 957 l -12 968 l 0 961 m 427 961 l 444 1065 l 503 1069 l 553 1084 l 644 1064 l 633 981 l 554 945 l 505 945 l 412 980 l 427 961 z "},"":{"ha":961,"x_min":-18,"x_max":766,"o":"m 0 -320 l -18 -210 l 75 -208 l 139 -221 l 186 -206 l 260 -194 l 286 -229 l 351 -211 l 429 -229 l 422 -106 l 520 -120 l 541 -20 l 483 -7 l 399 -7 l 347 -11 l 307 -19 l 221 10 l 157 -3 l 126 -18 l 125 125 l -7 118 l -12 152 l 7 229 l 3 298 l -2 375 l 19 443 l 2 484 l -7 557 l 3 638 l -11 663 l 13 752 l 83 764 l 155 751 l 210 767 l 220 669 l 227 620 l 208 541 l 211 479 l 205 418 l 197 353 l 223 315 l 224 227 l 201 189 l 217 102 l 294 93 l 345 114 l 401 87 l 467 116 l 542 94 l 515 159 l 547 239 l 538 292 l 525 368 l 538 441 l 514 509 l 551 568 l 547 626 l 541 698 l 537 751 l 592 743 l 661 762 l 735 747 l 736 698 l 740 623 l 753 562 l 741 500 l 747 460 l 756 388 l 737 311 l 749 273 l 766 180 l 756 120 l 751 80 l 743 -1 l 736 -44 l 734 -115 l 628 -119 l 654 -198 l 533 -194 l 520 -305 l 478 -326 l 399 -327 l 341 -333 l 281 -311 l 217 -330 l 150 -326 l 56 -302 l -7 -309 l 0 -320 m 214 854 l 213 950 l 312 978 l 327 1076 l 442 1078 l 427 1170 l 517 1188 l 562 1167 l 622 1185 l 655 1052 l 522 1052 l 531 943 l 446 966 l 428 873 l 340 874 l 269 863 l 231 862 l 214 854 z "},"":{"ha":961,"x_min":-20,"x_max":761,"o":"m 534 106 l 533 168 l 541 248 l 532 310 l 550 364 l 514 456 l 552 512 l 551 557 l 521 651 l 446 623 l 378 631 l 334 659 l 313 567 l 332 522 l 313 452 l 330 392 l 340 302 l 302 257 l 321 159 l 307 104 l 377 100 l 454 98 l 547 125 l 534 106 m 0 -320 l 3 -220 l 96 -217 l 96 -145 l 118 -80 l 86 -10 l 104 45 l 87 100 l 107 143 l 101 201 l 94 274 l 98 361 l 113 403 l 106 452 l 118 519 l 100 582 l 105 672 l 105 724 l 87 764 l 111 842 l 95 917 l 90 969 l -15 970 l -20 1049 l 62 1086 l 120 1048 l 195 1087 l 264 1077 l 323 1055 l 302 994 l 311 936 l 331 888 l 321 802 l 338 751 l 394 747 l 429 756 l 511 751 l 566 751 l 641 766 l 624 625 l 754 635 l 761 572 l 743 513 l 744 444 l 756 363 l 749 323 l 739 254 l 753 190 l 744 115 l 633 121 l 652 1 l 591 17 l 500 16 l 456 6 l 401 -16 l 304 18 l 319 -87 l 313 -136 l 310 -211 l 408 -231 l 414 -338 l 374 -302 l 323 -312 l 249 -309 l 178 -313 l 140 -332 l 76 -319 l 20 -328 l 0 -320 z "},"":{"ha":961,"x_min":-20,"x_max":767,"o":"m 0 -320 l -19 -219 l 68 -213 l 103 -208 l 183 -199 l 264 -227 l 290 -209 l 386 -199 l 437 -197 l 443 -111 l 525 -91 l 532 18 l 486 10 l 405 17 l 339 16 l 309 3 l 243 -11 l 156 -19 l 105 1 l 118 87 l -14 96 l -18 152 l 6 253 l 9 302 l -13 380 l 1 424 l -18 507 l -3 555 l -19 615 l -16 687 l 1 762 l 67 753 l 138 730 l 229 738 l 208 690 l 209 623 l 218 565 l 208 495 l 206 444 l 230 368 l 219 286 l 217 245 l 228 182 l 223 92 l 273 101 l 330 97 l 401 115 l 477 111 l 518 103 l 547 185 l 542 238 l 528 304 l 545 345 l 526 410 l 538 488 l 522 572 l 546 630 l 526 677 l 534 767 l 605 749 l 684 746 l 728 764 l 735 696 l 753 618 l 727 545 l 759 484 l 762 445 l 745 372 l 736 306 l 734 246 l 729 182 l 750 125 l 767 58 l 759 22 l 764 -39 l 732 -113 l 630 -98 l 645 -197 l 535 -201 l 531 -321 l 472 -308 l 387 -326 l 321 -318 l 277 -317 l 180 -338 l 150 -301 l 51 -334 l -8 -337 l 0 -320 m 0 961 l -20 1068 l 83 1067 l 163 1070 l 208 1050 l 227 951 l 158 943 l 88 961 l -3 969 l 0 961 m 534 961 l 516 1080 l 591 1082 l 663 1054 l 751 1068 l 755 981 l 669 979 l 600 960 l 551 948 l 534 961 z "},"":{"ha":961,"x_min":-18,"x_max":767,"o":"m 534 534 l 522 616 l 552 695 l 541 732 l 413 732 l 441 850 l 321 855 l 337 729 l 206 747 l 231 665 l 224 624 l 203 540 l 281 552 l 338 527 l 425 553 l 468 540 l 524 553 l 534 534 m 0 0 l -3 67 l 6 138 l 17 185 l 11 263 l -16 313 l 20 391 l -14 429 l -18 490 l -7 557 l 12 623 l 14 703 l 6 755 l 119 753 l 96 852 l 232 869 l 209 974 l 306 942 l 302 1049 l 437 1061 l 439 960 l 518 954 l 534 844 l 631 870 l 656 746 l 767 766 l 758 692 l 751 629 l 767 557 l 730 501 l 736 454 l 748 393 l 755 292 l 736 232 l 732 168 l 735 108 l 767 47 l 758 2 l 660 18 l 621 16 l 526 -12 l 517 62 l 514 108 l 552 201 l 515 252 l 550 325 l 547 373 l 548 429 l 486 439 l 393 408 l 344 434 l 271 441 l 214 442 l 215 351 l 216 316 l 225 233 l 199 191 l 208 139 l 222 79 l 216 10 l 145 -17 l 74 16 l 9 -16 l 0 0 m 106 1175 l 113 1291 l 189 1270 l 221 1274 l 323 1269 l 363 1272 l 450 1288 l 505 1265 l 574 1301 l 646 1277 l 642 1194 l 557 1161 l 515 1176 l 421 1179 l 378 1192 l 319 1172 l 237 1162 l 180 1168 l 122 1166 l 106 1175 z "},"":{"ha":961,"x_min":-18,"x_max":759,"o":"m 106 0 l 97 106 l -3 96 l -16 182 l -7 228 l -18 308 l -11 351 l -12 428 l 116 408 l 87 529 l 178 545 l 254 543 l 296 536 l 381 552 l 415 524 l 436 656 l 359 659 l 318 632 l 222 656 l 191 636 l 97 648 l 102 744 l 185 747 l 222 746 l 288 755 l 353 764 l 398 763 l 456 765 l 542 736 l 547 656 l 621 623 l 643 574 l 631 527 l 650 444 l 625 378 l 628 318 l 651 235 l 624 181 l 642 96 l 759 113 l 753 9 l 676 -12 l 598 3 l 516 11 l 523 87 l 440 122 l 437 178 l 409 216 l 428 285 l 434 361 l 437 416 l 370 418 l 278 446 l 204 418 l 222 357 l 212 290 l 214 250 l 205 186 l 203 123 l 292 102 l 345 126 l 439 115 l 446 10 l 345 16 l 299 -17 l 233 -18 l 173 -17 l 97 18 l 106 0 m 106 961 l 117 1087 l 178 1050 l 260 1049 l 296 1053 l 373 1075 l 453 1076 l 515 1063 l 581 1074 l 624 1050 l 630 954 l 555 947 l 507 949 l 456 953 l 364 972 l 316 974 l 249 955 l 159 971 l 98 981 l 106 961 z "},"":{"ha":961,"x_min":-18,"x_max":767,"o":"m 534 427 l 538 518 l 515 572 l 529 646 l 429 645 l 418 762 l 334 768 l 321 624 l 195 654 l 199 563 l 206 509 l 214 418 l 291 410 l 332 429 l 407 441 l 484 433 l 515 418 l 534 427 m 0 0 l 5 54 l 12 138 l -9 177 l -2 264 l -5 326 l -18 388 l 3 460 l 11 511 l -12 597 l -2 660 l 113 633 l 102 755 l 229 757 l 195 851 l 320 867 l 306 951 l 442 952 l 427 852 l 532 854 l 516 735 l 626 744 l 626 629 l 747 656 l 743 581 l 767 506 l 764 466 l 757 394 l 758 315 l 734 249 l 752 199 l 728 123 l 743 61 l 766 -20 l 662 -19 l 607 17 l 530 1 l 532 56 l 513 121 l 547 208 l 533 271 l 551 338 l 479 315 l 407 326 l 330 307 l 275 323 l 221 335 l 218 251 l 196 188 l 205 136 l 227 68 l 214 1 l 127 -11 l 55 13 l 3 -18 l 0 0 m 106 1068 l 105 1166 l -15 1193 l -5 1294 l 90 1289 l 125 1268 l 218 1267 l 224 1165 l 286 1193 l 352 1182 l 387 1194 l 452 1154 l 537 1190 l 531 1276 l 595 1262 l 677 1297 l 761 1266 l 747 1172 l 660 1184 l 635 1060 l 582 1086 l 515 1057 l 433 1074 l 355 1067 l 292 1070 l 229 1055 l 181 1055 l 93 1050 l 106 1068 z "},"":{"ha":961,"x_min":-18,"x_max":765,"o":"m 106 0 l 107 95 l 13 100 l -1 182 l -18 246 l 9 317 l -6 368 l -16 417 l 116 417 l 89 547 l 151 544 l 226 518 l 318 543 l 361 549 l 409 537 l 446 621 l 359 636 l 311 648 l 232 632 l 189 642 l 114 633 l 99 754 l 175 730 l 220 755 l 274 762 l 339 757 l 426 748 l 488 732 l 553 766 l 523 654 l 644 642 l 631 587 l 630 522 l 643 459 l 631 392 l 635 304 l 633 241 l 646 192 l 640 120 l 754 102 l 765 9 l 669 7 l 602 -12 l 519 -2 l 526 107 l 408 126 l 423 172 l 431 254 l 408 311 l 408 359 l 432 447 l 336 441 l 285 409 l 224 416 l 234 380 l 194 314 l 209 250 l 218 163 l 199 103 l 286 87 l 374 93 l 425 109 l 424 -16 l 361 -16 l 311 19 l 231 -20 l 154 18 l 111 -10 l 106 0 z "},"":{"ha":961,"x_min":-20,"x_max":766,"o":"m 320 -320 l 328 -201 l 226 -213 l 224 -117 l 324 -96 l 316 9 l 385 20 l 473 7 l 517 16 l 541 -125 l 412 -110 l 439 -210 l 507 -196 l 553 -216 l 638 -215 l 685 -222 l 745 -221 l 730 -336 l 704 -319 l 628 -315 l 553 -303 l 515 -335 l 454 -312 l 372 -325 l 315 -329 l 320 -320 m 534 534 l 517 612 l 541 661 l 554 736 l 426 741 l 431 866 l 301 836 l 304 743 l 209 762 l 217 688 l 206 610 l 214 545 l 267 525 l 323 527 l 395 517 l 489 549 l 533 538 l 534 534 m 0 0 l 3 45 l 15 137 l 10 176 l -8 245 l 8 329 l 16 385 l -9 437 l 11 510 l 20 578 l -14 635 l -20 677 l -1 768 l 105 766 l 88 853 l 211 848 l 196 956 l 309 965 l 315 1062 l 410 1073 l 408 951 l 552 949 l 551 844 l 648 868 l 642 739 l 760 736 l 755 696 l 754 633 l 743 553 l 736 480 l 751 448 l 747 393 l 737 304 l 766 230 l 765 176 l 736 121 l 759 56 l 741 -3 l 677 10 l 598 -1 l 514 3 l 527 62 l 521 135 l 531 186 l 548 254 l 518 289 l 525 373 l 525 439 l 479 418 l 406 429 l 337 433 l 292 429 l 205 414 l 218 374 l 197 295 l 216 239 l 203 168 l 220 114 l 233 79 l 215 -16 l 138 12 l 85 18 l 1 -5 l 0 0 z "},"":{"ha":961,"x_min":-7,"x_max":757,"o":"m 320 -320 l 309 -205 l 224 -223 l 205 -98 l 320 -113 l 330 9 l 259 -6 l 172 4 l 90 -7 l 120 104 l 6 106 l 7 163 l -7 246 l -1 302 l 18 353 l 14 441 l 119 441 l 86 537 l 151 531 l 240 536 l 286 547 l 347 543 l 446 545 l 442 625 l 382 631 l 281 642 l 227 640 l 152 652 l 114 646 l 87 734 l 149 730 l 222 747 l 295 753 l 355 736 l 426 731 l 475 747 l 523 735 l 526 625 l 628 637 l 631 579 l 632 525 l 633 432 l 650 391 l 627 299 l 637 237 l 631 191 l 652 96 l 741 125 l 748 -19 l 667 -11 l 587 11 l 549 -9 l 539 97 l 410 103 l 418 166 l 426 251 l 430 316 l 447 358 l 446 444 l 346 443 l 301 439 l 213 441 l 222 345 l 218 310 l 194 250 l 217 159 l 233 89 l 272 94 l 348 104 l 422 90 l 428 -20 l 519 -15 l 529 -107 l 439 -114 l 435 -208 l 484 -196 l 562 -234 l 614 -203 l 703 -201 l 755 -202 l 757 -309 l 679 -315 l 625 -309 l 580 -308 l 491 -307 l 441 -324 l 396 -310 l 329 -303 l 320 -320 z "},"":{"ha":961,"x_min":-20,"x_max":764,"o":"m 214 0 l 207 105 l 113 107 l 87 213 l -15 206 l -14 299 l 12 347 l -12 398 l -20 473 l -9 564 l 3 629 l 20 694 l -15 733 l 100 734 l 125 860 l 222 843 l 212 952 l 258 957 l 350 954 l 402 981 l 448 949 l 534 950 l 598 969 l 644 965 l 646 836 l 740 840 l 758 772 l 745 707 l 764 648 l 652 656 l 646 764 l 553 734 l 528 859 l 454 855 l 406 873 l 329 867 l 301 739 l 212 730 l 206 661 l 226 600 l 213 532 l 215 461 l 215 430 l 205 353 l 230 270 l 216 195 l 322 205 l 307 107 l 382 117 l 467 111 l 536 111 l 514 226 l 644 216 l 637 315 l 752 336 l 733 260 l 737 159 l 753 115 l 654 126 l 642 -18 l 586 -18 l 530 -8 l 445 9 l 389 -5 l 345 16 l 289 -10 l 232 -7 l 214 0 m 320 1068 l 332 1193 l 439 1176 l 422 1289 l 515 1292 l 565 1286 l 637 1292 l 636 1155 l 549 1174 l 543 1055 l 460 1081 l 395 1052 l 307 1050 l 320 1068 z "},"":{"ha":961,"x_min":-20,"x_max":766,"o":"m 106 0 l 123 124 l -16 114 l 9 176 l -2 221 l 14 304 l -6 353 l -20 426 l 0 524 l 12 593 l -12 644 l 108 640 l 93 740 l 190 757 l 233 749 l 292 744 l 372 729 l 422 752 l 509 733 l 556 742 l 648 753 l 642 641 l 756 631 l 766 541 l 696 538 l 594 526 l 542 523 l 551 628 l 471 633 l 414 646 l 329 648 l 282 661 l 204 636 l 206 594 l 232 517 l 220 426 l 218 389 l 220 314 l 200 259 l 232 185 l 202 124 l 260 98 l 349 123 l 400 126 l 489 94 l 523 123 l 539 199 l 595 198 l 661 220 l 762 222 l 730 98 l 635 87 l 637 -1 l 581 1 l 515 -12 l 450 5 l 368 18 l 295 8 l 250 -16 l 183 -7 l 123 3 l 106 0 m 214 854 l 199 971 l 304 949 l 311 1081 l 441 1061 l 422 1183 l 494 1158 l 553 1186 l 644 1194 l 638 1083 l 518 1066 l 516 943 l 441 964 l 409 852 l 348 867 l 304 847 l 232 834 l 214 854 z "},"":{"ha":961,"x_min":-20,"x_max":765,"o":"m 214 0 l 218 107 l 119 109 l 87 223 l 0 227 l 20 298 l -15 357 l 9 430 l 15 496 l -1 552 l -20 618 l 9 681 l -3 754 l 110 753 l 105 850 l 233 864 l 233 979 l 269 969 l 345 951 l 409 949 l 455 956 l 519 964 l 576 956 l 631 958 l 636 859 l 756 869 l 759 800 l 751 698 l 730 659 l 633 642 l 629 751 l 543 728 l 524 863 l 469 875 l 394 867 l 337 841 l 312 737 l 198 768 l 233 677 l 220 600 l 211 546 l 222 495 l 216 399 l 214 358 l 196 265 l 202 214 l 309 219 l 309 96 l 378 111 l 454 95 l 551 92 l 545 203 l 661 215 l 647 326 l 748 330 l 765 248 l 753 183 l 747 126 l 631 100 l 636 13 l 599 8 l 535 -13 l 440 -18 l 395 -15 l 338 12 l 277 -7 l 197 1 l 214 0 m 214 1068 l 227 1184 l 330 1164 l 317 1270 l 380 1289 l 433 1281 l 528 1272 l 582 1294 l 646 1263 l 625 1171 l 753 1162 l 744 1058 l 695 1082 l 607 1052 l 530 1060 l 526 1173 l 416 1183 l 425 1071 l 337 1059 l 277 1065 l 225 1084 l 214 1068 z "},"":{"ha":961,"x_min":-19,"x_max":767,"o":"m 106 0 l 99 122 l -5 100 l -9 155 l -15 227 l 7 300 l -14 392 l -3 444 l -19 505 l 3 562 l -18 626 l 123 659 l 92 760 l 159 741 l 245 748 l 313 740 l 380 747 l 445 729 l 509 761 l 555 749 l 623 729 l 624 659 l 767 631 l 728 522 l 659 538 l 609 519 l 518 521 l 525 629 l 471 635 l 402 631 l 343 647 l 273 659 l 222 659 l 199 555 l 198 510 l 196 435 l 214 370 l 205 301 l 225 233 l 231 167 l 223 108 l 292 98 l 339 94 l 420 119 l 485 96 l 546 98 l 519 207 l 623 218 l 677 202 l 730 215 l 734 97 l 625 114 l 630 -5 l 571 -7 l 508 -12 l 433 -7 l 371 16 l 306 6 l 229 17 l 178 3 l 101 14 l 106 0 m 106 854 l 121 980 l 194 945 l 206 1076 l 314 1072 l 326 1190 l 446 1178 l 422 1081 l 551 1068 l 535 949 l 638 979 l 661 859 l 564 861 l 507 871 l 443 872 l 410 957 l 302 978 l 309 855 l 231 852 l 158 867 l 98 866 l 106 854 z "},"":{"ha":961,"x_min":-17,"x_max":766,"o":"m 214 0 l 194 90 l 91 90 l 113 204 l 18 223 l 9 262 l -17 343 l -13 431 l -2 471 l 10 544 l -14 624 l -12 675 l 7 751 l 106 759 l 104 863 l 197 863 l 201 979 l 275 974 l 334 950 l 387 969 l 458 958 l 505 964 l 570 958 l 649 943 l 641 857 l 766 841 l 730 793 l 752 718 l 761 638 l 633 633 l 645 732 l 517 737 l 543 859 l 458 851 l 378 850 l 338 871 l 323 741 l 193 732 l 195 690 l 229 633 l 195 557 l 216 492 l 229 406 l 210 355 l 230 277 l 210 206 l 313 229 l 304 106 l 382 115 l 444 119 l 541 120 l 519 228 l 656 220 l 640 328 l 762 338 l 752 260 l 742 178 l 766 109 l 628 111 l 627 -20 l 600 16 l 519 4 l 460 -17 l 410 6 l 319 3 l 283 7 l 220 10 l 214 0 m 320 1068 l 330 1145 l 337 1228 l 332 1301 l 383 1284 l 454 1294 l 537 1297 l 534 1210 l 546 1153 l 517 1060 l 443 1075 l 385 1075 l 326 1076 l 320 1068 z "},"":{"ha":961,"x_min":-18,"x_max":752,"o":"m 106 0 l 100 90 l -16 87 l 16 163 l -14 228 l -16 311 l -18 360 l -9 433 l -6 490 l 12 572 l 3 634 l 110 627 l 122 766 l 188 745 l 248 763 l 315 755 l 359 751 l 437 739 l 494 732 l 592 748 l 636 735 l 631 625 l 741 650 l 734 541 l 664 545 l 612 528 l 513 543 l 540 656 l 484 661 l 413 637 l 342 628 l 273 640 l 230 646 l 204 593 l 224 509 l 207 423 l 231 379 l 220 318 l 220 237 l 227 181 l 208 124 l 292 95 l 333 98 l 393 107 l 465 116 l 527 102 l 541 214 l 597 212 l 659 211 l 752 231 l 737 92 l 643 93 l 646 -7 l 566 -6 l 513 -2 l 446 6 l 378 9 l 323 19 l 248 10 l 179 9 l 104 19 l 106 0 m 320 854 l 302 934 l 312 989 l 311 1081 l 375 1074 l 474 1056 l 543 1064 l 517 1005 l 537 944 l 544 863 l 473 850 l 410 855 l 300 843 l 320 854 z "},"":{"ha":961,"x_min":-17,"x_max":765,"o":"m 214 0 l 227 114 l 93 94 l 110 221 l -7 208 l 8 294 l -14 341 l -10 406 l 6 493 l 3 562 l -17 596 l 1 671 l -12 734 l 90 765 l 94 846 l 203 871 l 229 954 l 265 964 l 336 943 l 399 954 l 460 960 l 523 957 l 595 977 l 627 955 l 650 847 l 742 845 l 728 775 l 743 694 l 734 640 l 659 630 l 660 750 l 551 730 l 550 875 l 454 836 l 385 845 l 307 842 l 338 758 l 218 736 l 227 682 l 232 595 l 217 547 l 194 494 l 233 424 l 207 367 l 212 273 l 211 233 l 334 194 l 321 123 l 409 125 l 467 110 l 551 91 l 515 214 l 645 220 l 627 308 l 734 312 l 754 234 l 758 182 l 765 95 l 628 102 l 659 3 l 570 -20 l 508 7 l 452 16 l 399 -18 l 323 17 l 268 16 l 212 -7 l 214 0 m 214 1068 l 226 1158 l 122 1171 l 94 1281 l 194 1286 l 242 1263 l 304 1292 l 304 1160 l 399 1180 l 481 1155 l 519 1187 l 536 1263 l 621 1294 l 679 1289 l 731 1280 l 736 1188 l 653 1155 l 627 1069 l 579 1058 l 506 1060 l 467 1061 l 417 1081 l 345 1048 l 294 1069 l 203 1061 l 214 1068 z "},"":{"ha":961,"x_min":-16,"x_max":767,"o":"m 106 0 l 87 93 l 16 122 l -16 189 l 2 254 l -16 315 l -2 357 l 1 437 l 7 515 l 12 593 l -7 631 l 90 625 l 91 756 l 184 734 l 220 740 l 309 747 l 373 753 l 456 748 l 511 738 l 562 735 l 629 743 l 655 648 l 737 630 l 767 545 l 677 524 l 605 522 l 541 530 l 534 637 l 466 636 l 418 641 l 346 642 l 274 631 l 223 630 l 205 564 l 218 524 l 219 426 l 218 369 l 210 319 l 227 227 l 231 162 l 220 90 l 258 119 l 361 114 l 404 87 l 476 103 l 524 119 l 534 212 l 608 201 l 662 199 l 730 201 l 751 114 l 648 87 l 626 -20 l 572 16 l 517 -14 l 427 -11 l 355 15 l 295 15 l 223 15 l 174 10 l 116 -9 l 106 0 m 214 854 l 205 972 l 122 969 l 114 1084 l 184 1081 l 231 1079 l 319 1063 l 311 954 l 410 981 l 435 1069 l 516 1059 l 553 1067 l 642 1080 l 655 949 l 514 968 l 549 862 l 460 868 l 391 866 l 334 870 l 292 836 l 233 838 l 214 854 z "},"":{"ha":961,"x_min":-3,"x_max":766,"o":"m 427 106 l 409 199 l 533 220 l 543 286 l 533 342 l 550 427 l 534 484 l 538 554 l 543 610 l 548 672 l 519 759 l 413 727 l 434 849 l 302 867 l 323 792 l 331 729 l 322 656 l 339 590 l 303 528 l 301 490 l 304 425 l 333 362 l 336 274 l 305 243 l 339 175 l 304 94 l 410 114 l 427 106 m 0 0 l 1 89 l 92 109 l 100 168 l 115 248 l 110 283 l 115 370 l 116 403 l 89 471 l 111 546 l 111 614 l 96 666 l 120 726 l 112 810 l 104 871 l 3 865 l 12 975 l 76 956 l 140 960 l 192 946 l 252 958 l 316 961 l 398 944 l 458 951 l 532 960 l 531 844 l 632 868 l 622 743 l 741 749 l 751 674 l 732 631 l 734 541 l 743 485 l 728 418 l 766 353 l 739 290 l 746 203 l 640 218 l 646 100 l 539 98 l 538 -18 l 449 18 l 393 9 l 314 -9 l 273 -20 l 182 -3 l 140 15 l 84 -18 l -3 -11 l 0 0 m 214 1068 l 200 1179 l 113 1194 l 115 1299 l 182 1281 l 252 1262 l 335 1284 l 331 1178 l 413 1164 l 427 1266 l 505 1282 l 555 1282 l 635 1280 l 644 1185 l 538 1168 l 549 1075 l 475 1084 l 405 1060 l 321 1078 l 295 1086 l 224 1054 l 214 1068 z "},"":{"ha":961,"x_min":-11,"x_max":874,"o":"m 106 0 l 115 102 l 1 87 l 9 158 l 19 212 l -5 282 l 20 357 l -9 401 l -9 464 l -11 515 l 96 528 l 89 643 l 195 648 l 227 762 l 271 755 l 353 758 l 425 734 l 436 819 l 440 884 l 431 942 l 309 968 l 330 1057 l 397 1052 l 444 1057 l 515 1084 l 582 1055 l 645 1059 l 645 1149 l 660 1211 l 644 1284 l 730 1299 l 789 1300 l 850 1277 l 874 1204 l 862 1148 l 854 1059 l 744 1086 l 738 971 l 639 949 l 642 916 l 646 842 l 659 765 l 644 732 l 644 675 l 622 587 l 646 547 l 624 492 l 625 422 l 648 351 l 638 269 l 655 233 l 642 149 l 631 114 l 732 123 l 764 5 l 682 -9 l 590 -1 l 547 -9 l 545 104 l 414 111 l 411 189 l 425 233 l 447 319 l 421 358 l 430 428 l 427 517 l 441 590 l 444 661 l 331 648 l 302 549 l 195 537 l 228 458 l 195 422 l 214 360 l 217 290 l 216 235 l 207 183 l 231 118 l 302 115 l 374 109 l 437 125 l 414 -19 l 382 18 l 311 -1 l 226 1 l 159 19 l 104 3 l 106 0 z "},"":{"ha":961,"x_min":-17,"x_max":767,"o":"m 427 106 l 414 230 l 539 208 l 543 262 l 523 327 l 551 418 l 521 488 l 541 518 l 549 596 l 532 654 l 516 719 l 553 786 l 526 852 l 425 857 l 421 975 l 317 970 l 323 899 l 330 835 l 317 758 l 332 688 l 327 650 l 431 637 l 422 535 l 326 528 l 326 460 l 323 401 l 328 354 l 336 293 l 329 230 l 304 181 l 334 87 l 448 117 l 427 106 m 0 0 l 3 121 l 116 119 l 94 153 l 104 226 l 113 275 l 118 347 l 123 396 l 104 486 l 119 532 l 17 549 l -16 622 l 109 642 l 121 715 l 90 776 l 124 833 l 116 913 l 102 953 l -8 943 l -17 1082 l 50 1053 l 142 1073 l 213 1067 l 250 1088 l 319 1081 l 408 1059 l 454 1064 l 513 1082 l 515 949 l 625 943 l 649 835 l 728 855 l 767 774 l 761 747 l 753 654 l 745 617 l 748 527 l 734 481 l 728 423 l 747 336 l 741 295 l 746 232 l 625 221 l 638 90 l 513 122 l 543 12 l 459 0 l 415 -10 l 340 -1 l 262 2 l 181 -13 l 151 -19 l 54 -9 l -15 7 l 0 0 z "},"":{"ha":961,"x_min":-18,"x_max":756,"o":"m 106 0 l 119 115 l 17 103 l -9 184 l -18 227 l -2 286 l 7 373 l 3 444 l 114 434 l 98 530 l 209 545 l 201 633 l 279 659 l 364 623 l 427 639 l 408 745 l 361 759 l 302 745 l 237 732 l 174 743 l 91 748 l 126 838 l 162 863 l 233 866 l 309 871 l 347 863 l 444 840 l 427 907 l 440 999 l 447 1083 l 492 1072 l 569 1063 l 654 1086 l 649 992 l 652 926 l 640 859 l 734 840 l 748 735 l 627 760 l 658 671 l 639 600 l 627 574 l 660 477 l 625 416 l 648 349 l 628 291 l 661 243 l 643 186 l 647 104 l 756 106 l 740 -6 l 685 7 l 603 -11 l 551 19 l 531 114 l 434 126 l 413 148 l 444 228 l 423 298 l 448 357 l 431 431 l 435 478 l 414 553 l 330 549 l 307 446 l 197 420 l 198 361 l 217 314 l 193 220 l 196 172 l 214 127 l 266 91 l 374 97 l 446 92 l 420 -1 l 373 -12 l 317 5 l 250 13 l 151 -3 l 92 -5 l 106 0 z "},"":{"ha":961,"x_min":-18,"x_max":765,"o":"m 0 0 l -4 110 l 100 91 l 104 165 l 123 237 l 113 298 l 121 358 l 91 401 l 119 482 l 116 536 l 117 595 l 92 637 l 103 734 l 127 762 l 94 838 l 119 880 l 99 966 l -16 972 l -18 1080 l 77 1086 l 106 1080 l 168 1053 l 239 1082 l 299 1082 l 368 1054 l 423 1050 l 517 1080 l 562 1088 l 628 1049 l 694 1080 l 730 1082 l 734 1010 l 743 920 l 762 873 l 760 827 l 733 743 l 654 766 l 640 836 l 522 838 l 515 946 l 465 973 l 402 957 l 304 978 l 317 906 l 321 849 l 336 773 l 302 719 l 303 624 l 408 623 l 407 763 l 522 751 l 531 670 l 541 604 l 522 553 l 543 478 l 522 421 l 440 420 l 435 536 l 336 530 l 304 475 l 332 394 l 303 358 l 324 272 l 326 210 l 315 165 l 327 119 l 410 119 l 446 110 l 536 102 l 519 226 l 656 215 l 641 326 l 732 319 l 728 275 l 765 189 l 730 140 l 751 52 l 752 9 l 676 10 l 618 -17 l 547 -20 l 509 -6 l 443 -18 l 384 13 l 328 -19 l 269 18 l 194 -12 l 106 -20 l 79 -14 l 1 -2 l 0 0 m 106 1175 l 125 1296 l 159 1282 l 248 1266 l 312 1291 l 381 1293 l 420 1291 l 513 1293 l 554 1262 l 626 1281 l 637 1194 l 585 1173 l 500 1159 l 431 1190 l 362 1173 l 295 1175 l 252 1162 l 182 1162 l 102 1187 l 106 1175 z "},"":{"ha":961,"x_min":-14,"x_max":763,"o":"m 534 534 l 528 655 l 450 627 l 403 648 l 345 636 l 281 658 l 227 649 l 195 552 l 269 517 l 347 522 l 400 553 l 481 553 l 541 547 l 534 534 m 106 0 l 109 115 l -14 121 l 17 177 l -12 245 l -5 309 l -3 389 l -14 447 l -5 501 l -8 583 l -1 652 l 94 659 l 121 728 l 176 730 l 229 750 l 300 748 l 370 763 l 421 734 l 520 746 l 570 763 l 629 762 l 623 640 l 743 627 l 750 573 l 729 513 l 751 433 l 662 446 l 610 431 l 566 434 l 467 444 l 425 422 l 334 414 l 286 419 l 201 425 l 220 361 l 233 300 l 206 224 l 206 157 l 197 113 l 271 126 l 338 87 l 421 101 l 461 103 l 534 115 l 538 221 l 609 224 l 681 204 l 747 205 l 763 113 l 631 95 l 637 7 l 575 7 l 518 -1 l 441 -14 l 378 -2 l 294 -20 l 245 16 l 155 5 l 120 7 l 106 0 m 106 961 l 102 1079 l 160 1077 l 239 1081 l 294 1069 l 376 1082 l 457 1066 l 519 1063 l 575 1064 l 657 1053 l 623 947 l 576 952 l 516 941 l 458 960 l 361 956 l 307 956 l 222 969 l 191 976 l 98 954 l 106 961 z "},"":{"ha":961,"x_min":-20,"x_max":764,"o":"m 0 0 l -20 104 l 113 118 l 111 171 l 120 212 l 90 311 l 98 347 l 87 408 l 124 491 l 124 541 l 87 593 l 101 684 l 117 723 l 94 801 l 90 869 l -17 866 l 15 980 l 79 945 l 106 949 l 169 968 l 269 971 l 323 943 l 385 955 l 451 950 l 497 968 l 565 972 l 638 956 l 677 956 l 741 962 l 755 913 l 764 850 l 760 787 l 732 724 l 745 643 l 625 631 l 627 734 l 514 758 l 522 838 l 475 840 l 388 867 l 340 844 l 304 789 l 317 714 l 326 672 l 309 602 l 338 527 l 416 516 l 410 638 l 534 644 l 528 578 l 528 525 l 528 456 l 547 372 l 519 319 l 447 319 l 433 421 l 304 434 l 319 380 l 326 311 l 309 232 l 340 155 l 321 109 l 393 121 l 481 126 l 545 127 l 553 196 l 626 202 l 622 320 l 754 304 l 762 273 l 755 199 l 753 146 l 757 45 l 739 10 l 673 5 l 604 2 l 558 1 l 500 -7 l 422 -8 l 374 -20 l 332 -9 l 237 -9 l 189 -13 l 130 2 l 82 -6 l -9 -13 l 0 0 m 106 1068 l 92 1171 l -3 1168 l -18 1277 l 77 1286 l 148 1289 l 233 1297 l 223 1164 l 282 1175 l 325 1187 l 418 1177 l 468 1169 l 527 1173 l 532 1294 l 610 1278 l 678 1293 l 756 1271 l 736 1186 l 628 1192 l 641 1074 l 563 1064 l 494 1057 l 424 1080 l 364 1069 l 321 1054 l 229 1053 l 192 1062 l 117 1056 l 106 1068 z "},"":{"ha":961,"x_min":-14,"x_max":765,"o":"m 534 534 l 526 623 l 473 646 l 407 635 l 338 627 l 262 628 l 224 633 l 233 541 l 291 541 l 328 519 l 422 514 l 465 530 l 543 536 l 534 534 m 106 0 l 126 103 l -12 107 l -14 182 l 13 241 l 3 313 l -7 378 l 16 431 l 16 490 l 19 565 l -12 656 l 87 635 l 89 734 l 160 767 l 247 734 l 321 745 l 357 746 l 429 753 l 503 750 l 576 755 l 652 730 l 625 622 l 765 623 l 737 578 l 752 483 l 734 446 l 696 441 l 614 418 l 548 441 l 481 420 l 396 418 l 354 419 l 283 416 l 203 422 l 194 355 l 208 318 l 195 231 l 208 155 l 211 116 l 266 124 l 340 116 l 398 120 l 485 123 l 541 103 l 545 201 l 622 218 l 677 203 l 764 194 l 758 115 l 637 96 l 622 -14 l 588 16 l 503 -18 l 437 18 l 377 11 l 303 11 l 243 -9 l 168 3 l 88 -12 l 106 0 m 106 854 l 117 961 l 7 968 l 9 1068 l 59 1066 l 150 1059 l 210 1080 l 212 943 l 265 979 l 333 958 l 419 959 l 484 973 l 553 971 l 534 1078 l 604 1088 l 694 1054 l 728 1058 l 730 975 l 636 970 l 649 867 l 557 860 l 496 854 l 446 840 l 385 867 l 288 871 l 260 842 l 178 870 l 115 835 l 106 854 z "},"":{"ha":961,"x_min":-6,"x_max":768,"o":"m 0 0 l 19 111 l 95 90 l 119 153 l 92 233 l 96 313 l 123 350 l 100 420 l 97 481 l 123 562 l 115 609 l 119 665 l 94 734 l 122 802 l 98 857 l -6 859 l 5 947 l 70 972 l 114 965 l 194 966 l 252 981 l 329 973 l 382 970 l 425 956 l 490 970 l 548 943 l 618 954 l 688 947 l 732 970 l 760 893 l 750 831 l 762 778 l 759 722 l 729 660 l 633 653 l 633 751 l 531 762 l 515 850 l 473 843 l 374 844 l 308 862 l 310 804 l 321 745 l 337 673 l 321 604 l 330 530 l 416 533 l 418 632 l 548 627 l 545 572 l 524 526 l 527 463 l 530 391 l 528 339 l 429 332 l 412 414 l 338 443 l 307 373 l 316 300 l 300 239 l 332 188 l 311 112 l 399 124 l 444 96 l 516 122 l 526 219 l 656 214 l 644 311 l 756 302 l 745 239 l 747 173 l 766 110 l 768 79 l 761 1 l 681 6 l 617 17 l 541 -7 l 515 -7 l 433 9 l 387 -2 l 298 -10 l 267 8 l 168 -7 l 111 -1 l 47 16 l 4 7 l 0 0 m 320 1068 l 304 1127 l 315 1219 l 316 1277 l 406 1278 l 477 1286 l 545 1297 l 538 1221 l 547 1124 l 552 1065 l 467 1075 l 389 1072 l 328 1088 l 320 1068 z "},"":{"ha":961,"x_min":-7,"x_max":760,"o":"m 534 534 l 537 635 l 472 626 l 422 626 l 360 628 l 292 629 l 214 654 l 222 528 l 288 553 l 328 528 l 396 534 l 479 526 l 515 521 l 534 534 m 106 0 l 117 99 l 5 108 l 9 169 l -4 232 l -2 303 l -2 382 l 16 459 l -3 501 l -7 579 l 10 622 l 125 654 l 112 739 l 184 747 l 229 761 l 323 734 l 368 766 l 439 738 l 506 753 l 566 738 l 648 762 l 644 657 l 760 648 l 746 575 l 753 494 l 730 435 l 693 442 l 625 447 l 549 435 l 464 420 l 403 435 l 338 436 l 272 420 l 218 441 l 230 362 l 198 279 l 229 226 l 231 189 l 229 99 l 277 112 l 325 121 l 414 96 l 474 116 l 527 96 l 525 196 l 612 223 l 665 229 l 746 214 l 737 111 l 654 95 l 623 -3 l 575 4 l 495 4 l 441 -7 l 364 16 l 300 2 l 220 13 l 188 15 l 103 20 l 106 0 m 320 854 l 311 910 l 315 1002 l 340 1060 l 387 1051 l 470 1056 l 526 1069 l 545 989 l 527 935 l 533 838 l 466 844 l 387 848 l 330 857 l 320 854 z "},"":{"ha":961,"x_min":-18,"x_max":764,"o":"m 320 -320 l 301 -227 l 210 -208 l 201 -97 l 330 -92 l 334 -9 l 243 -20 l 197 -9 l 115 16 l 69 7 l -3 -14 l -15 111 l 100 111 l 106 180 l 117 210 l 111 275 l 105 342 l 126 409 l 89 458 l 104 542 l 101 594 l 115 658 l 118 707 l 91 779 l 100 850 l 109 916 l 96 942 l 5 953 l -18 1056 l 62 1052 l 113 1059 l 177 1065 l 261 1054 l 301 1063 l 378 1072 l 429 1059 l 495 1086 l 547 1086 l 608 1080 l 670 1073 l 764 1056 l 736 986 l 738 924 l 728 864 l 756 811 l 730 751 l 632 750 l 640 857 l 530 871 l 528 951 l 457 963 l 395 964 l 310 949 l 302 902 l 335 834 l 312 778 l 309 703 l 338 640 l 437 648 l 409 761 l 547 742 l 524 702 l 514 639 l 531 558 l 523 486 l 528 427 l 427 411 l 408 534 l 319 518 l 326 488 l 319 420 l 311 360 l 334 299 l 323 231 l 328 168 l 322 100 l 376 114 l 469 92 l 524 127 l 526 199 l 642 201 l 656 323 l 764 327 l 747 254 l 730 190 l 761 115 l 736 82 l 760 -14 l 682 -13 l 603 -20 l 552 9 l 528 -107 l 437 -121 l 424 -228 l 498 -215 l 549 -209 l 632 -195 l 664 -224 l 741 -229 l 760 -315 l 676 -304 l 646 -335 l 548 -325 l 507 -335 l 454 -306 l 380 -317 l 304 -305 l 320 -320 z "},"":{"ha":961,"x_min":-9,"x_max":754,"o":"m 534 534 l 528 652 l 450 637 l 392 628 l 348 648 l 289 621 l 229 628 l 213 529 l 268 541 l 357 544 l 404 515 l 452 534 l 551 533 l 534 534 m 214 -320 l 210 -213 l 115 -208 l 91 -118 l 215 -89 l 210 -8 l 109 19 l 90 111 l -3 98 l 16 192 l 12 229 l -2 326 l 18 354 l 5 432 l 0 501 l -1 565 l -9 625 l 90 652 l 92 744 l 165 728 l 236 738 l 307 761 l 365 741 l 458 764 l 524 745 l 555 758 l 659 742 l 648 629 l 744 629 l 727 564 l 744 489 l 737 427 l 683 430 l 612 410 l 530 444 l 481 415 l 419 432 l 351 440 l 277 439 l 231 439 l 231 367 l 214 296 l 231 248 l 208 168 l 214 115 l 297 115 l 343 89 l 420 103 l 486 109 l 528 94 l 546 227 l 618 202 l 695 201 l 754 206 l 743 113 l 656 87 l 621 7 l 579 1 l 507 9 l 420 -17 l 443 -109 l 323 -96 l 320 -195 l 380 -216 l 437 -225 l 520 -211 l 591 -207 l 651 -209 l 657 -318 l 589 -337 l 539 -338 l 441 -314 l 395 -302 l 320 -325 l 273 -336 l 231 -307 l 214 -320 z "},"":{"ha":961,"x_min":0,"x_max":762,"o":"m 0 0 l 16 112 l 120 108 l 94 151 l 103 216 l 97 273 l 102 349 l 90 436 l 102 465 l 115 551 l 122 606 l 97 651 l 102 741 l 102 779 l 90 871 l 6 867 l 18 960 l 71 941 l 138 973 l 199 958 l 230 947 l 312 976 l 371 949 l 442 941 l 492 966 l 559 942 l 610 968 l 685 969 l 733 968 l 756 895 l 731 842 l 730 779 l 761 725 l 741 647 l 648 659 l 652 766 l 549 746 l 523 840 l 473 861 l 408 841 l 333 839 l 302 783 l 331 715 l 313 674 l 313 610 l 302 526 l 435 515 l 439 644 l 533 640 l 532 560 l 533 532 l 548 448 l 519 365 l 534 321 l 425 330 l 431 430 l 317 440 l 301 376 l 332 302 l 324 221 l 312 182 l 336 114 l 387 117 l 446 87 l 526 94 l 538 202 l 639 218 l 623 332 l 749 301 l 733 243 l 747 180 l 752 121 l 745 46 l 762 -17 l 684 11 l 623 -1 l 543 -7 l 496 17 l 448 -1 l 378 3 l 304 1 l 232 -6 l 198 -13 l 133 -1 l 52 14 l 12 5 l 0 0 m 214 1068 l 195 1171 l 97 1173 l 108 1276 l 186 1269 l 267 1278 l 319 1276 l 305 1171 l 435 1185 l 425 1278 l 487 1289 l 551 1267 l 660 1270 l 648 1183 l 528 1160 l 518 1084 l 483 1082 l 391 1066 l 324 1083 l 259 1063 l 216 1069 l 214 1068 z "},"":{"ha":961,"x_min":-16,"x_max":755,"o":"m 534 534 l 534 657 l 459 634 l 407 625 l 341 635 l 297 636 l 197 651 l 213 543 l 263 551 l 339 547 l 423 522 l 465 551 l 531 519 l 534 534 m 106 0 l 126 125 l 14 100 l 10 191 l -14 258 l -1 295 l 13 385 l 13 444 l -5 499 l -16 593 l 9 621 l 96 627 l 96 729 l 167 763 l 241 728 l 323 754 l 378 741 l 450 741 l 513 751 l 594 766 l 622 755 l 624 659 l 746 621 l 730 560 l 755 498 l 746 421 l 692 433 l 609 427 l 554 427 l 488 441 l 416 445 l 327 412 l 262 431 l 218 432 l 230 355 l 219 304 l 214 230 l 222 170 l 225 98 l 296 115 l 346 100 l 419 101 l 462 115 l 536 126 l 540 219 l 621 208 l 688 197 l 753 210 l 741 104 l 654 104 l 630 18 l 557 -13 l 515 -17 l 450 9 l 378 10 l 312 3 l 220 5 l 190 0 l 111 -11 l 106 0 m 214 854 l 231 979 l 94 949 l 97 1076 l 165 1069 l 235 1079 l 330 1084 l 327 945 l 395 981 l 453 945 l 531 951 l 536 1061 l 588 1065 l 685 1078 l 752 1069 l 749 978 l 631 943 l 630 871 l 560 850 l 511 866 l 439 847 l 400 861 l 330 847 l 273 861 l 201 865 l 214 854 z "},"":{"ha":961,"x_min":-15,"x_max":766,"o":"m 641 0 l 647 125 l 530 117 l 537 178 l 538 237 l 534 308 l 479 326 l 391 317 l 304 301 l 326 429 l 389 436 l 438 416 l 518 419 l 559 434 l 608 429 l 686 435 l 747 429 l 736 367 l 730 319 l 740 233 l 763 164 l 756 108 l 732 79 l 752 -1 l 632 13 l 641 0 m 214 0 l 232 113 l 110 94 l 89 206 l 1 206 l 1 283 l 1 355 l -15 414 l -6 478 l 1 554 l 5 604 l -11 664 l 16 751 l 113 762 l 100 868 l 227 844 l 203 943 l 272 953 l 347 948 l 409 979 l 442 943 l 523 949 l 564 960 l 654 944 l 652 857 l 751 854 l 731 803 l 762 704 l 763 645 l 625 656 l 635 733 l 515 746 l 540 844 l 479 857 l 376 854 l 307 861 l 302 732 l 221 753 l 198 694 l 231 634 l 198 561 l 234 469 l 203 416 l 225 358 l 209 284 l 210 225 l 331 197 l 305 109 l 393 118 l 472 117 l 529 97 l 543 9 l 450 -17 l 401 -14 l 342 -12 l 296 1 l 194 -13 l 214 0 m 214 1068 l 230 1162 l 326 1191 l 323 1264 l 374 1263 l 448 1277 l 532 1274 l 562 1289 l 625 1263 l 653 1168 l 766 1160 l 730 1088 l 695 1062 l 619 1049 l 515 1065 l 530 1178 l 422 1168 l 444 1086 l 361 1059 l 298 1063 l 215 1063 l 214 1068 z "},"":{"ha":961,"x_min":-18,"x_max":766,"o":"m 106 -320 l 114 -208 l -14 -203 l -18 -105 l 90 -117 l 143 -90 l 197 -121 l 229 -193 l 271 -224 l 366 -199 l 418 -205 l 437 -132 l 421 -90 l 417 -11 l 357 -4 l 290 3 l 241 14 l 151 5 l 96 18 l 123 107 l 16 106 l 14 163 l 12 245 l 12 325 l -18 354 l -9 432 l 3 515 l 2 564 l -2 654 l 111 654 l 115 743 l 171 734 l 224 753 l 314 753 l 382 754 l 438 755 l 408 656 l 345 633 l 301 638 l 214 648 l 214 587 l 201 494 l 195 437 l 210 353 l 210 297 l 202 251 l 210 184 l 206 101 l 276 123 l 348 89 l 441 94 l 436 186 l 437 235 l 435 292 l 446 385 l 437 450 l 432 515 l 436 573 l 431 634 l 551 642 l 524 755 l 620 735 l 691 745 l 743 767 l 766 645 l 654 641 l 628 567 l 658 508 l 650 469 l 652 414 l 635 328 l 633 264 l 650 219 l 648 148 l 657 84 l 652 11 l 632 -33 l 656 -94 l 637 -142 l 644 -213 l 547 -207 l 535 -314 l 454 -313 l 412 -301 l 368 -304 l 293 -334 l 218 -338 l 186 -340 l 105 -321 l 106 -320 m 106 854 l 104 949 l 211 965 l 218 1062 l 304 1079 l 302 1194 l 408 1174 l 431 1052 l 539 1085 l 553 958 l 631 945 l 648 863 l 572 850 l 505 848 l 427 853 l 429 962 l 332 941 l 332 849 l 246 870 l 163 836 l 111 865 l 106 854 z "},"":{"ha":961,"x_min":-9,"x_max":765,"o":"m 641 0 l 652 103 l 535 115 l 528 180 l 532 232 l 526 334 l 461 317 l 399 332 l 305 334 l 308 414 l 395 421 l 458 446 l 519 444 l 551 428 l 642 416 l 670 416 l 765 426 l 765 368 l 749 286 l 757 237 l 754 195 l 734 106 l 732 75 l 758 -10 l 640 9 l 641 0 m 214 0 l 227 107 l 118 87 l 123 195 l -8 224 l 1 277 l 9 330 l -9 425 l 1 494 l 20 539 l -3 608 l 3 681 l 16 751 l 117 750 l 102 837 l 200 863 l 220 958 l 284 957 l 340 944 l 398 950 l 468 943 l 508 942 l 576 956 l 639 947 l 623 861 l 764 866 l 741 768 l 763 729 l 728 658 l 652 652 l 631 735 l 524 746 l 515 845 l 469 875 l 384 859 l 328 861 l 312 734 l 207 743 l 208 676 l 212 613 l 218 557 l 199 471 l 204 395 l 216 366 l 204 265 l 214 207 l 320 222 l 314 107 l 380 104 l 478 112 l 545 92 l 528 -19 l 461 -1 l 399 12 l 350 13 l 265 3 l 209 9 l 214 0 m 214 1068 l 222 1159 l 121 1166 l 113 1291 l 161 1280 l 258 1265 l 326 1282 l 335 1173 l 378 1157 l 450 1186 l 537 1173 l 536 1294 l 599 1265 l 667 1286 l 744 1293 l 748 1191 l 661 1161 l 630 1085 l 586 1066 l 505 1086 l 449 1053 l 407 1050 l 317 1086 l 262 1073 l 197 1053 l 214 1068 z "},"":{"ha":961,"x_min":-16,"x_max":764,"o":"m 106 -320 l 121 -229 l -15 -197 l -7 -125 l 65 -118 l 153 -110 l 201 -96 l 209 -212 l 275 -212 l 366 -218 l 446 -212 l 414 -161 l 441 -85 l 423 -7 l 373 7 l 309 16 l 233 3 l 182 -3 l 111 -13 l 117 103 l -1 120 l 15 190 l 0 249 l 9 297 l -7 361 l 15 438 l 12 526 l 9 555 l -16 642 l 89 628 l 114 761 l 153 762 l 254 736 l 293 753 l 382 742 l 446 743 l 416 656 l 346 660 l 291 659 l 216 640 l 216 572 l 225 490 l 194 439 l 194 380 l 221 292 l 220 224 l 214 193 l 218 118 l 296 119 l 355 122 l 444 125 l 408 191 l 419 228 l 410 311 l 435 360 l 442 433 l 435 507 l 412 572 l 418 632 l 519 631 l 532 758 l 609 755 l 683 728 l 764 751 l 734 661 l 644 638 l 621 594 l 628 530 l 650 458 l 624 377 l 640 337 l 651 272 l 647 209 l 627 172 l 661 73 l 633 45 l 644 -45 l 656 -83 l 637 -161 l 643 -200 l 543 -222 l 539 -311 l 475 -323 l 416 -330 l 363 -320 l 288 -319 l 232 -316 l 157 -330 l 115 -334 l 106 -320 m 106 854 l 110 945 l -8 972 l 9 1054 l 70 1080 l 162 1050 l 222 1071 l 199 969 l 272 948 l 328 954 l 410 954 l 470 956 l 520 968 l 513 1074 l 604 1060 l 677 1082 l 744 1076 l 755 962 l 630 975 l 646 852 l 590 847 l 526 866 l 435 874 l 365 838 l 297 835 l 230 873 l 154 864 l 94 866 l 106 854 z "},"":{"ha":961,"x_min":-20,"x_max":766,"o":"m 641 0 l 646 109 l 554 87 l 524 157 l 540 264 l 535 332 l 454 301 l 391 306 l 313 331 l 334 410 l 376 414 l 462 411 l 510 429 l 578 409 l 621 428 l 685 414 l 764 441 l 741 364 l 739 303 l 766 242 l 763 191 l 735 111 l 756 66 l 754 16 l 625 9 l 641 0 m 214 0 l 219 102 l 99 110 l 123 229 l 19 202 l 14 279 l 10 330 l -5 416 l -20 481 l 10 554 l -12 630 l -7 694 l -5 741 l 117 751 l 120 850 l 195 863 l 206 968 l 286 960 l 332 963 l 387 968 l 475 979 l 511 954 l 597 975 l 658 952 l 655 850 l 749 850 l 754 783 l 761 720 l 743 641 l 656 637 l 623 753 l 542 755 l 527 855 l 450 855 l 403 865 l 338 846 l 310 739 l 214 753 l 197 666 l 197 597 l 227 559 l 224 488 l 197 414 l 227 330 l 201 279 l 214 199 l 312 226 l 321 98 l 393 123 l 481 107 l 520 91 l 542 17 l 481 -7 l 387 -8 l 360 0 l 286 -16 l 208 7 l 214 0 m 320 1068 l 326 1141 l 317 1205 l 316 1273 l 375 1272 l 476 1265 l 514 1281 l 522 1204 l 530 1123 l 534 1065 l 473 1072 l 411 1053 l 313 1085 l 320 1068 z "},"":{"ha":961,"x_min":-10,"x_max":765,"o":"m 106 -320 l 117 -231 l 9 -209 l -10 -90 l 85 -102 l 151 -90 l 201 -100 l 210 -227 l 281 -216 l 351 -211 l 416 -216 l 414 -158 l 422 -91 l 428 -17 l 357 -7 l 281 17 l 243 0 l 182 8 l 94 -7 l 90 107 l 14 120 l 15 174 l -7 226 l -1 323 l 1 370 l 18 448 l -3 509 l 5 566 l 18 631 l 86 631 l 93 755 l 189 755 l 248 736 l 300 758 l 367 750 l 420 737 l 439 633 l 343 625 l 283 650 l 197 625 l 227 555 l 215 507 l 222 457 l 216 393 l 219 289 l 201 245 l 195 160 l 214 98 l 288 121 l 366 118 l 439 107 l 443 191 l 420 244 l 410 300 l 433 370 l 425 452 l 436 526 l 429 554 l 432 650 l 546 646 l 515 740 l 610 758 l 670 741 l 741 762 l 765 654 l 636 628 l 627 579 l 637 528 l 659 474 l 628 404 l 639 334 l 642 269 l 649 211 l 644 135 l 633 87 l 657 17 l 650 -28 l 626 -107 l 658 -171 l 654 -231 l 548 -224 l 543 -328 l 473 -304 l 406 -330 l 341 -336 l 291 -317 l 211 -330 l 152 -313 l 96 -324 l 106 -320 m 320 854 l 321 925 l 316 993 l 308 1084 l 383 1050 l 475 1051 l 522 1057 l 517 1015 l 527 939 l 525 848 l 455 850 l 410 856 l 338 865 l 320 854 z "},"":{"ha":961,"x_min":-20,"x_max":765,"o":"m 641 0 l 633 101 l 520 98 l 545 187 l 548 231 l 537 315 l 517 363 l 546 427 l 460 432 l 372 445 l 304 446 l 305 550 l 378 514 l 458 534 l 504 543 l 554 551 l 631 516 l 669 525 l 765 523 l 760 477 l 731 409 l 736 352 l 731 266 l 754 183 l 760 145 l 745 83 l 731 1 l 648 12 l 641 0 m 106 -320 l 93 -199 l 179 -203 l 238 -201 l 279 -222 l 346 -200 l 432 -214 l 412 -88 l 316 -119 l 323 -13 l 203 -15 l 220 102 l 104 94 l 93 223 l -18 197 l -12 271 l -12 357 l 7 387 l -17 455 l 1 543 l 15 611 l 19 666 l -20 709 l 19 788 l -3 865 l 121 850 l 110 975 l 215 954 l 219 1078 l 263 1060 l 317 1066 l 414 1087 l 439 1080 l 503 1088 l 587 1065 l 655 1078 l 626 947 l 730 962 l 753 907 l 739 832 l 749 736 l 646 748 l 645 850 l 515 862 l 532 943 l 473 980 l 408 979 l 315 947 l 311 859 l 216 863 l 212 789 l 221 715 l 233 656 l 201 595 l 199 553 l 211 468 l 203 422 l 216 338 l 230 297 l 195 229 l 340 230 l 323 122 l 389 102 l 447 117 l 541 117 l 526 50 l 541 -21 l 538 -98 l 633 -94 l 626 -203 l 531 -196 l 523 -311 l 482 -322 l 405 -315 l 345 -309 l 304 -318 l 209 -323 l 170 -305 l 117 -319 l 106 -320 z "},"":{"ha":961,"x_min":-20,"x_max":756,"o":"m 106 -320 l 97 -200 l 19 -229 l 1 -94 l 85 -117 l 153 -88 l 229 -109 l 224 -206 l 295 -212 l 339 -220 l 411 -197 l 436 -151 l 410 -60 l 424 -1 l 349 -16 l 300 -5 l 220 17 l 170 3 l 108 -20 l 104 110 l 8 87 l 12 184 l -16 237 l -20 326 l 3 367 l 17 421 l -16 521 l -1 563 l 2 658 l 92 646 l 116 727 l 168 747 l 226 734 l 319 742 l 366 731 l 423 759 l 423 648 l 372 629 l 277 640 l 223 623 l 221 588 l 201 515 l 208 422 l 210 392 l 213 290 l 194 222 l 233 170 l 200 87 l 267 116 l 355 113 l 410 104 l 435 184 l 417 239 l 440 302 l 427 378 l 444 423 l 412 505 l 443 574 l 416 655 l 527 645 l 549 767 l 605 729 l 688 732 l 756 743 l 755 658 l 628 628 l 652 583 l 648 517 l 657 462 l 654 405 l 643 330 l 642 285 l 630 212 l 641 157 l 656 110 l 626 49 l 660 -39 l 646 -71 l 657 -161 l 624 -207 l 538 -234 l 551 -312 l 463 -325 l 420 -320 l 342 -334 l 296 -315 l 210 -317 l 171 -320 l 111 -336 l 106 -320 m 320 854 l 304 960 l 201 960 l 222 1066 l 315 1071 l 340 1173 l 394 1177 l 433 1179 l 508 1160 l 585 1164 l 638 1162 l 676 1162 l 752 1162 l 755 1079 l 679 1069 l 604 1065 l 543 1067 l 483 1074 l 445 1085 l 446 950 l 551 952 l 538 842 l 476 868 l 387 858 l 330 852 l 320 854 z "},"":{"ha":961,"x_min":-19,"x_max":767,"o":"m 0 0 l -10 81 l 2 135 l 7 189 l -5 261 l 11 338 l 11 402 l -10 435 l -16 516 l -14 590 l 3 628 l 16 686 l 9 781 l -14 813 l 20 900 l -1 968 l 62 974 l 124 941 l 208 981 l 214 913 l 205 829 l 204 763 l 198 732 l 195 644 l 229 591 l 206 550 l 274 538 l 340 525 l 394 530 l 480 513 l 519 536 l 541 598 l 549 644 l 526 736 l 551 785 l 524 845 l 530 913 l 517 958 l 592 976 l 681 962 l 735 970 l 767 911 l 747 850 l 754 751 l 729 697 l 732 634 l 765 595 l 733 519 l 742 443 l 747 382 l 754 325 l 743 267 l 732 172 l 755 111 l 747 77 l 735 13 l 660 -7 l 618 17 l 539 -8 l 538 45 l 522 125 l 530 178 l 545 243 l 516 324 l 551 346 l 534 412 l 483 414 l 408 438 l 361 420 l 260 429 l 206 409 l 232 365 l 229 319 l 198 241 l 214 172 l 207 134 l 231 50 l 210 3 l 155 -19 l 77 -15 l -19 9 l 0 0 m 106 1068 l 124 1194 l 210 1160 l 207 1296 l 293 1270 l 350 1276 l 416 1272 l 454 1279 l 519 1296 l 538 1187 l 639 1181 l 661 1055 l 580 1055 l 493 1074 l 410 1053 l 413 1175 l 315 1156 l 330 1050 l 238 1072 l 171 1084 l 87 1050 l 106 1068 z "},"":{"ha":961,"x_min":-18,"x_max":762,"o":"m 534 0 l 539 59 l 542 138 l 553 197 l 544 277 l 536 346 l 542 420 l 541 486 l 533 521 l 412 529 l 418 642 l 513 625 l 589 634 l 642 644 l 654 520 l 736 531 l 761 452 l 746 391 l 758 338 l 759 275 l 762 220 l 762 120 l 734 85 l 752 0 l 665 -20 l 624 11 l 553 2 l 534 0 m 0 0 l -18 109 l 90 125 l 101 186 l 110 241 l 115 300 l 88 359 l 97 409 l 100 469 l 122 535 l 121 616 l 121 683 l 114 739 l 86 804 l 101 846 l 13 871 l -1 972 l 47 946 l 122 947 l 208 969 l 261 972 l 319 957 l 328 900 l 328 841 l 328 789 l 326 730 l 320 648 l 317 576 l 328 549 l 410 535 l 429 429 l 302 410 l 335 357 l 314 319 l 323 224 l 311 184 l 335 142 l 313 47 l 302 15 l 271 -2 l 204 -19 l 125 2 l 75 7 l 20 18 l 0 0 m 106 1068 l 108 1170 l 197 1156 l 220 1270 l 281 1292 l 323 1282 l 395 1273 l 485 1286 l 522 1274 l 514 1178 l 622 1158 l 650 1072 l 572 1067 l 495 1054 l 435 1066 l 444 1191 l 320 1155 l 311 1074 l 243 1060 l 157 1072 l 123 1069 l 106 1068 z "},"":{"ha":961,"x_min":-9,"x_max":862,"o":"m 534 641 l 540 741 l 448 756 l 399 762 l 335 728 l 321 627 l 387 661 l 464 638 l 552 634 l 534 641 m 106 0 l 90 71 l 121 109 l 107 201 l 104 263 l 120 309 l 95 391 l 87 416 l 126 482 l 92 543 l 111 606 l 115 690 l 88 761 l 8 755 l -9 849 l 112 840 l 119 939 l 92 1003 l 102 1079 l 174 1061 l 263 1055 l 333 1088 l 301 986 l 321 928 l 314 852 l 401 846 l 445 873 l 551 861 l 514 909 l 536 1000 l 536 1060 l 604 1059 l 672 1086 l 755 1064 l 762 991 l 754 907 l 738 871 l 862 869 l 842 734 l 749 742 l 730 688 l 745 609 l 730 564 l 750 505 l 751 427 l 764 380 l 733 315 l 756 244 l 751 201 l 754 133 l 758 60 l 757 5 l 687 -16 l 610 -15 l 519 -5 l 532 60 l 544 144 l 515 186 l 522 282 l 521 319 l 517 420 l 529 452 l 553 541 l 457 549 l 399 547 l 328 545 l 328 456 l 311 404 l 339 353 l 326 253 l 312 182 l 334 129 l 319 60 l 302 -14 l 230 -5 l 181 5 l 104 -19 l 106 0 z "},"":{"ha":961,"x_min":-18,"x_max":768,"o":"m 534 0 l 528 71 l 515 139 l 541 184 l 538 260 l 524 321 l 524 406 l 524 463 l 554 550 l 429 545 l 415 627 l 505 631 l 585 655 l 657 639 l 627 524 l 763 534 l 728 462 l 768 385 l 741 322 l 736 258 l 758 220 l 751 153 l 730 54 l 764 -7 l 677 -5 l 619 -10 l 527 -9 l 534 0 m 0 0 l -18 115 l 94 127 l 113 181 l 98 232 l 105 279 l 117 347 l 96 412 l 123 505 l 119 557 l 90 621 l 115 686 l 119 730 l 12 754 l 12 839 l 123 842 l 97 966 l 1 951 l -16 1073 l 55 1057 l 110 1065 l 212 1064 l 242 1067 l 334 1066 l 332 1000 l 321 943 l 303 871 l 388 863 l 451 840 l 539 857 l 533 764 l 477 753 l 395 731 l 332 745 l 334 686 l 317 597 l 307 528 l 423 543 l 414 444 l 312 420 l 304 351 l 332 302 l 330 233 l 312 190 l 340 137 l 323 42 l 337 13 l 259 -18 l 208 -11 l 145 6 l 52 -1 l 2 20 l 0 0 z "},"":{"ha":961,"x_min":98,"x_max":859,"o":"m 214 0 l 212 92 l 336 87 l 315 189 l 336 228 l 300 307 l 311 372 l 323 425 l 328 463 l 336 541 l 340 587 l 334 686 l 330 721 l 334 781 l 307 843 l 214 841 l 231 964 l 279 949 l 317 949 l 410 959 l 466 972 l 524 972 l 596 943 l 649 967 l 652 873 l 542 863 l 533 793 l 538 735 l 549 671 l 517 623 l 522 537 l 536 471 l 538 430 l 533 364 l 537 277 l 517 217 l 538 184 l 519 111 l 659 112 l 649 9 l 578 10 l 510 -15 l 439 -12 l 380 -8 l 321 5 l 271 17 l 227 -13 l 214 0 m 106 1068 l 115 1172 l 210 1187 l 231 1280 l 281 1278 l 334 1267 l 394 1286 l 483 1289 l 550 1268 l 542 1179 l 638 1167 l 639 1295 l 724 1292 l 791 1286 l 859 1282 l 852 1166 l 736 1184 l 764 1065 l 699 1055 l 630 1086 l 553 1080 l 477 1073 l 445 1057 l 443 1194 l 322 1160 l 316 1054 l 237 1084 l 163 1070 l 98 1079 l 106 1068 z "},"":{"ha":961,"x_min":-7,"x_max":742,"o":"m 214 0 l 205 98 l 304 115 l 301 190 l 334 258 l 323 294 l 318 387 l 338 431 l 330 517 l 332 592 l 340 636 l 219 629 l 193 767 l 296 741 l 323 734 l 395 760 l 463 757 l 528 740 l 520 666 l 553 608 l 530 562 l 540 505 l 524 413 l 528 349 l 530 310 l 553 240 l 528 159 l 529 112 l 644 125 l 625 -3 l 599 -13 l 526 6 l 473 -17 l 412 10 l 323 18 l 257 -3 l 229 5 l 214 0 m 0 854 l 6 964 l 96 978 l 87 1052 l 177 1055 l 252 1061 l 311 1057 l 363 1057 l 446 1059 l 412 967 l 549 958 l 533 1083 l 599 1051 l 671 1083 l 742 1088 l 735 951 l 644 962 l 644 869 l 561 846 l 530 840 l 467 845 l 382 869 l 334 845 l 313 966 l 195 943 l 226 857 l 134 865 l 77 869 l -7 873 l 0 854 z "},"":{"ha":961,"x_min":100,"x_max":742,"o":"m 214 0 l 231 87 l 323 99 l 310 156 l 301 244 l 300 279 l 316 364 l 302 393 l 301 458 l 333 524 l 333 602 l 311 639 l 301 709 l 317 789 l 328 838 l 309 908 l 329 974 l 195 974 l 215 1065 l 262 1063 l 319 1056 l 377 1066 l 453 1072 l 519 1055 l 598 1086 l 658 1071 l 654 949 l 547 964 l 530 918 l 550 823 l 522 768 l 524 701 l 541 664 l 549 612 l 544 526 l 551 473 l 550 425 l 522 344 l 518 305 l 529 233 l 515 171 l 518 92 l 652 123 l 639 6 l 597 13 l 522 0 l 470 -11 l 413 -3 l 345 1 l 258 -9 l 214 -13 l 214 0 m 106 1175 l 105 1263 l 185 1263 l 245 1300 l 296 1285 l 374 1264 l 441 1301 l 484 1278 l 547 1276 l 624 1285 l 690 1288 l 742 1264 l 736 1190 l 674 1185 l 620 1160 l 568 1187 l 506 1189 l 440 1156 l 369 1157 l 293 1173 l 214 1189 l 184 1190 l 100 1192 l 106 1175 z "},"":{"ha":961,"x_min":92,"x_max":661,"o":"m 214 0 l 232 125 l 336 105 l 336 164 l 338 222 l 330 290 l 339 358 l 321 452 l 306 498 l 332 585 l 326 638 l 197 631 l 203 766 l 264 738 l 330 740 l 416 732 l 475 731 l 553 751 l 543 687 l 547 610 l 528 560 l 540 509 l 528 417 l 549 376 l 549 302 l 523 234 l 534 169 l 525 89 l 656 116 l 661 12 l 569 -20 l 530 -4 l 444 -16 l 414 -12 l 350 -2 l 255 14 l 225 12 l 214 0 m 106 961 l 111 1059 l 172 1049 l 242 1084 l 300 1072 l 390 1065 l 452 1084 l 510 1068 l 557 1061 l 623 1080 l 623 954 l 558 945 l 513 960 l 454 975 l 355 950 l 291 972 l 237 978 l 180 972 l 92 963 l 106 961 z "},"":{"ha":961,"x_min":87,"x_max":758,"o":"m 214 0 l 226 114 l 313 120 l 304 159 l 329 215 l 303 285 l 328 355 l 308 438 l 318 465 l 302 532 l 305 609 l 310 679 l 336 729 l 331 799 l 328 845 l 210 850 l 195 956 l 293 960 l 317 965 l 404 974 l 448 974 l 538 972 l 591 980 l 651 957 l 659 861 l 551 850 l 549 804 l 524 724 l 543 654 l 541 612 l 529 563 l 551 464 l 538 415 l 526 346 l 551 282 l 553 212 l 519 158 l 534 125 l 650 103 l 644 -14 l 593 1 l 500 16 l 457 -8 l 396 -14 l 345 5 l 276 7 l 212 -12 l 214 0 m 214 1068 l 227 1160 l 87 1157 l 95 1288 l 183 1295 l 264 1262 l 336 1298 l 334 1176 l 378 1168 l 444 1175 l 522 1187 l 545 1290 l 616 1271 l 661 1296 l 758 1289 l 732 1159 l 629 1190 l 633 1083 l 571 1050 l 503 1087 l 446 1070 l 410 1050 l 349 1081 l 268 1081 l 197 1055 l 214 1068 z "},"":{"ha":961,"x_min":89,"x_max":753,"o":"m 214 0 l 199 125 l 338 124 l 323 170 l 335 246 l 332 298 l 321 374 l 310 427 l 311 524 l 302 587 l 307 642 l 207 626 l 229 741 l 288 751 l 322 742 l 395 760 l 477 738 l 526 728 l 545 696 l 547 614 l 522 555 l 546 491 l 536 434 l 542 370 l 531 281 l 526 241 l 522 153 l 530 117 l 631 92 l 627 -12 l 574 -6 l 534 -16 l 454 15 l 397 1 l 317 8 l 255 -3 l 213 5 l 214 0 m 214 854 l 227 967 l 89 948 l 100 1050 l 193 1051 l 261 1057 l 329 1074 l 331 944 l 376 970 l 446 967 l 533 979 l 539 1050 l 589 1053 l 668 1061 l 728 1058 l 753 948 l 648 972 l 629 836 l 564 853 l 499 852 l 439 857 l 411 853 l 350 859 l 293 836 l 218 867 l 214 854 z "},"":{"ha":961,"x_min":195,"x_max":762,"o":"m 320 -320 l 302 -201 l 228 -203 l 231 -104 l 333 -121 l 330 -1 l 222 2 l 202 123 l 300 113 l 328 154 l 321 220 l 328 296 l 323 331 l 311 414 l 319 485 l 320 521 l 304 576 l 304 666 l 326 731 l 305 768 l 335 852 l 316 890 l 336 945 l 205 960 l 195 1080 l 283 1075 l 352 1084 l 387 1052 l 457 1083 l 514 1080 l 571 1063 l 661 1078 l 634 977 l 551 968 l 549 903 l 544 835 l 550 762 l 530 697 l 519 668 l 534 591 l 538 540 l 515 465 l 539 428 l 543 366 l 515 287 l 518 234 l 543 186 l 514 110 l 629 119 l 646 20 l 527 12 l 524 -90 l 440 -97 l 423 -222 l 503 -195 l 554 -194 l 631 -208 l 671 -231 l 762 -220 l 730 -312 l 698 -301 l 640 -313 l 545 -319 l 492 -330 l 462 -334 l 396 -334 l 321 -311 l 320 -320 z "},"":{"ha":961,"x_min":194,"x_max":760,"o":"m 320 -320 l 307 -219 l 226 -218 l 216 -96 l 338 -117 l 332 -19 l 233 -17 l 194 88 l 323 111 l 315 154 l 323 245 l 323 315 l 309 374 l 312 460 l 307 493 l 334 591 l 334 621 l 195 621 l 206 755 l 283 738 l 344 759 l 393 730 l 483 732 l 515 747 l 533 687 l 540 635 l 532 551 l 543 497 l 518 435 l 550 366 l 538 317 l 527 218 l 530 179 l 532 115 l 626 92 l 654 13 l 525 -16 l 529 -116 l 419 -92 l 416 -201 l 475 -212 l 536 -233 l 635 -222 l 677 -211 l 738 -220 l 760 -319 l 680 -317 l 628 -314 l 547 -331 l 484 -340 l 432 -335 l 398 -317 l 326 -334 l 320 -320 m 320 854 l 304 925 l 324 991 l 305 1072 l 399 1050 l 469 1078 l 533 1053 l 551 1005 l 515 907 l 543 836 l 474 836 l 385 865 l 323 853 l 320 854 z "},"":{"ha":961,"x_min":195,"x_max":661,"o":"m 214 0 l 210 92 l 300 125 l 309 184 l 333 221 l 306 281 l 310 354 l 333 420 l 315 470 l 326 530 l 309 614 l 324 665 l 324 745 l 321 810 l 321 843 l 195 864 l 208 967 l 265 979 l 355 977 l 400 947 l 474 945 l 511 963 l 561 942 l 656 965 l 661 857 l 523 871 l 527 800 l 551 724 l 548 658 l 553 612 l 536 556 l 531 462 l 539 417 l 526 374 l 516 273 l 528 214 l 542 185 l 532 100 l 621 118 l 638 10 l 566 14 l 524 -5 l 452 5 l 378 -15 l 336 -19 l 292 -6 l 195 3 l 214 0 m 320 1068 l 340 1131 l 319 1190 l 311 1273 l 387 1276 l 460 1276 l 546 1268 l 530 1193 l 536 1134 l 519 1057 l 454 1065 l 374 1068 l 301 1050 l 320 1068 z "},"":{"ha":961,"x_min":198,"x_max":633,"o":"m 214 0 l 220 112 l 303 104 l 313 185 l 319 222 l 324 296 l 328 382 l 339 452 l 316 523 l 311 554 l 323 655 l 198 653 l 204 739 l 266 741 l 347 765 l 420 766 l 469 741 l 550 763 l 546 671 l 514 616 l 539 565 l 543 505 l 547 427 l 519 382 l 547 295 l 547 218 l 521 164 l 534 99 l 624 88 l 633 6 l 564 0 l 511 -16 l 440 10 l 399 -18 l 345 -7 l 255 -5 l 218 -18 l 214 0 z "},"":{"ha":961,"x_min":-12,"x_max":873,"o":"m 0 0 l -7 51 l -9 132 l 6 208 l 6 260 l 2 329 l 3 373 l 1 422 l -12 521 l 10 577 l 1 633 l 12 705 l -4 755 l 14 816 l 8 871 l -10 938 l 7 997 l 19 1069 l 59 1084 l 137 1070 l 199 1065 l 215 1015 l 213 930 l 201 865 l 197 807 l 205 758 l 210 677 l 220 641 l 210 576 l 216 508 l 208 460 l 225 392 l 213 320 l 220 241 l 215 180 l 200 113 l 231 47 l 205 -9 l 138 -7 l 72 -12 l 0 -15 l 0 0 m 427 0 l 416 88 l 302 104 l 313 163 l 313 234 l 302 286 l 301 372 l 325 443 l 409 418 l 483 444 l 553 421 l 554 383 l 545 290 l 551 223 l 537 181 l 537 117 l 640 113 l 638 159 l 644 218 l 630 281 l 644 354 l 627 427 l 659 459 l 655 519 l 629 581 l 625 644 l 622 698 l 653 786 l 654 829 l 622 896 l 626 977 l 532 973 l 527 1082 l 588 1072 l 679 1072 l 741 1060 l 810 1086 l 845 1078 l 836 1000 l 858 922 l 864 865 l 858 793 l 873 753 l 858 694 l 855 613 l 866 570 l 870 494 l 845 409 l 861 363 l 860 294 l 861 216 l 864 175 l 857 96 l 739 120 l 729 18 l 702 7 l 611 -5 l 561 -3 l 505 16 l 421 -11 l 427 0 z "},"":{"ha":961,"x_min":-14,"x_max":872,"o":"m 0 0 l 1 71 l 14 138 l -1 204 l -13 264 l -5 310 l 20 366 l -7 439 l -6 483 l 6 547 l 6 621 l 0 694 l -14 753 l 87 739 l 161 749 l 214 766 l 199 700 l 225 623 l 212 566 l 205 503 l 208 427 l 218 371 l 205 296 l 197 249 l 205 182 l 228 114 l 208 83 l 221 -19 l 136 -6 l 84 5 l 12 9 l 0 0 m 427 -320 l 431 -220 l 304 -233 l 323 -136 l 314 -60 l 323 7 l 373 18 l 476 20 l 515 9 l 514 -70 l 521 -136 l 516 -197 l 658 -231 l 648 -148 l 651 -81 l 648 -12 l 657 29 l 640 73 l 631 164 l 638 199 l 652 291 l 630 335 l 640 386 l 651 464 l 631 507 l 654 595 l 646 651 l 532 643 l 528 743 l 593 750 l 670 751 l 720 758 l 794 744 l 848 741 l 867 696 l 840 627 l 857 568 l 836 508 l 872 411 l 849 376 l 857 311 l 841 217 l 846 161 l 852 104 l 845 57 l 850 -23 l 851 -100 l 872 -156 l 861 -218 l 734 -231 l 766 -320 l 696 -336 l 600 -319 l 557 -332 l 500 -331 l 447 -307 l 427 -320 m 0 854 l 19 939 l -6 979 l 15 1060 l 85 1076 l 151 1069 l 200 1057 l 204 991 l 231 906 l 214 848 l 149 850 l 85 868 l 14 873 l 0 854 m 641 854 l 624 911 l 623 1015 l 627 1084 l 699 1084 l 770 1085 l 855 1058 l 838 1008 l 858 924 l 850 858 l 799 842 l 716 870 l 660 873 l 641 854 z "},"":{"ha":961,"x_min":-17,"x_max":761,"o":"m 106 0 l 87 103 l -3 119 l 10 178 l 14 261 l -17 338 l 79 311 l 149 302 l 225 307 l 204 258 l 218 173 l 221 93 l 265 114 l 352 103 l 429 92 l 439 150 l 410 222 l 431 308 l 435 352 l 445 431 l 438 463 l 446 538 l 418 608 l 431 662 l 445 738 l 448 776 l 418 862 l 319 859 l 328 951 l 380 962 l 460 949 l 494 970 l 566 978 l 614 945 l 690 960 l 755 972 l 761 838 l 629 836 l 642 802 l 637 711 l 623 663 l 643 587 l 623 551 l 631 497 l 640 438 l 654 360 l 644 313 l 641 233 l 658 181 l 635 117 l 553 122 l 530 -20 l 475 -14 l 424 7 l 365 -19 l 293 -19 l 241 -16 l 176 11 l 93 -1 l 106 0 m 214 1068 l 229 1178 l 320 1178 l 309 1280 l 397 1278 l 466 1294 l 493 1292 l 557 1284 l 641 1293 l 635 1187 l 755 1169 l 738 1055 l 675 1054 l 609 1086 l 522 1074 l 543 1177 l 433 1168 l 416 1076 l 344 1074 l 303 1051 l 225 1084 l 214 1068 z "},"":{"ha":961,"x_min":-20,"x_max":759,"o":"m 106 -320 l 91 -219 l 20 -216 l 11 -147 l 5 -58 l -20 -15 l 64 14 l 149 6 l 210 -14 l 193 -52 l 214 -138 l 210 -198 l 279 -227 l 344 -231 l 418 -205 l 441 -147 l 420 -102 l 429 -18 l 414 32 l 435 84 l 428 171 l 437 218 l 439 275 l 430 327 l 425 397 l 420 441 l 416 524 l 412 576 l 443 628 l 331 625 l 329 733 l 373 743 l 435 750 l 527 742 l 569 748 l 635 750 l 629 689 l 623 617 l 649 545 l 625 490 l 625 414 l 628 374 l 628 284 l 650 252 l 646 189 l 656 124 l 652 35 l 621 -9 l 650 -84 l 645 -133 l 634 -200 l 552 -214 l 532 -312 l 470 -315 l 431 -305 l 368 -311 l 302 -324 l 216 -330 l 168 -319 l 113 -327 l 106 -320 m 214 854 l 222 962 l 322 952 l 340 1067 l 431 1069 l 417 1160 l 532 1194 l 532 1081 l 627 1074 l 654 955 l 742 968 l 759 835 l 665 865 l 610 871 l 553 850 l 536 945 l 441 973 l 412 848 l 370 856 l 273 864 l 232 845 l 214 854 z "},"":{"ha":961,"x_min":-18,"x_max":762,"o":"m 106 -320 l 117 -203 l 153 -202 l 225 -205 l 283 -208 l 369 -224 l 425 -200 l 432 -113 l 327 -111 l 319 13 l 382 9 l 482 -18 l 544 2 l 537 -116 l 652 -95 l 642 -228 l 535 -234 l 517 -330 l 458 -334 l 412 -313 l 355 -323 l 271 -324 l 216 -339 l 156 -329 l 109 -313 l 106 -320 m 0 0 l -18 112 l 117 104 l 117 167 l 101 249 l 111 289 l 104 361 l 100 418 l 100 484 l 117 547 l 103 600 l 99 666 l 123 733 l 124 770 l 98 850 l 111 891 l 112 969 l 15 953 l -12 1063 l 48 1063 l 117 1078 l 191 1076 l 237 1079 l 313 1055 l 338 1021 l 307 930 l 326 877 l 300 840 l 333 753 l 340 713 l 313 632 l 411 647 l 416 762 l 518 732 l 528 831 l 534 883 l 530 939 l 524 1022 l 541 1085 l 602 1064 l 672 1073 l 745 1053 l 753 985 l 738 960 l 753 887 l 755 795 l 729 744 l 632 751 l 626 643 l 548 656 l 517 566 l 545 486 l 534 411 l 654 435 l 643 334 l 762 301 l 739 260 l 749 185 l 736 121 l 728 76 l 736 19 l 665 18 l 589 7 l 515 -10 l 544 61 l 550 136 l 520 193 l 553 262 l 540 327 l 440 334 l 444 444 l 307 434 l 332 367 l 306 308 l 309 235 l 318 163 l 340 118 l 328 56 l 310 -12 l 258 6 l 211 -8 l 142 -16 l 64 8 l -1 7 l 0 0 z "},"":{"ha":961,"x_min":-11,"x_max":763,"o":"m 106 -320 l 105 -219 l 176 -209 l 254 -231 l 284 -203 l 365 -224 l 437 -231 l 429 -99 l 302 -119 l 335 16 l 406 15 l 452 16 l 522 9 l 523 -124 l 625 -123 l 661 -229 l 548 -200 l 521 -318 l 472 -311 l 394 -338 l 365 -312 l 300 -309 l 233 -318 l 152 -301 l 113 -306 l 106 -320 m 0 0 l -9 100 l 99 99 l 124 155 l 116 221 l 106 304 l 118 370 l 109 412 l 90 475 l 106 543 l 100 586 l 106 642 l 113 730 l 92 770 l 117 820 l 122 890 l 96 957 l -11 975 l -2 1048 l 48 1057 l 115 1056 l 182 1084 l 270 1072 l 308 1061 l 313 988 l 327 937 l 339 878 l 323 792 l 308 726 l 338 654 l 303 621 l 333 526 l 414 518 l 417 647 l 530 648 l 540 760 l 615 767 l 676 752 l 728 730 l 763 646 l 623 660 l 640 549 l 551 515 l 543 447 l 530 380 l 553 333 l 627 313 l 659 214 l 730 202 l 742 129 l 731 66 l 745 -5 l 659 -9 l 618 3 l 545 -20 l 540 59 l 515 126 l 522 220 l 427 213 l 420 336 l 319 327 l 323 273 l 316 184 l 313 147 l 334 77 l 307 18 l 247 6 l 189 -18 l 146 1 l 58 -1 l -2 -4 l 0 0 z "}}}
